<svg width="320" height="320" viewBox="0 0 320 320" fill="none" xmlns="http://www.w3.org/2000/svg">
<g clip-path="url(#clip0_1148_3590)">
<path d="M164.519 80.5402C164.592 80.5371 164.665 80.5543 164.728 80.5899C164.792 80.6256 164.845 80.6782 164.88 80.742C164.918 80.8024 164.939 80.8724 164.939 80.9438C164.939 81.0153 164.918 81.0852 164.88 81.1457L87.2117 236.844C87.1194 237.029 87.0439 237.08 86.876 237.08C86.7081 237.08 86.4227 237.012 86.4227 236.659V80.9606C86.4227 80.8491 86.4669 80.7422 86.5456 80.6633C86.6244 80.5845 86.7311 80.5402 86.8424 80.5402H164.519ZM164.519 77.5967H86.8424C85.9519 77.5967 85.0979 77.9511 84.4683 78.582C83.8386 79.2129 83.4849 80.0685 83.4849 80.9606V236.659C83.4849 237.551 83.8386 238.407 84.4683 239.038C85.0979 239.669 85.9519 240.023 86.8424 240.023C87.4632 240.03 88.073 239.859 88.5996 239.529C89.1262 239.2 89.5476 238.726 89.8139 238.164L167.541 82.466C167.798 81.9517 167.919 81.38 167.893 80.8054C167.866 80.2309 167.693 79.6728 167.39 79.1844C167.087 78.696 166.664 78.2936 166.161 78.0156C165.659 77.7377 165.093 77.5934 164.519 77.5967Z" fill="white"/>
<path d="M145.905 154.546C145.947 154.539 145.989 154.539 146.031 154.546L242.275 211.842C242.305 211.858 242.332 211.881 242.352 211.908C242.373 211.936 242.386 211.968 242.393 212.002C242.404 212.023 242.409 212.046 242.409 212.069C242.409 212.093 242.404 212.116 242.393 212.136C234.392 224.153 222.095 232.636 208.036 235.836C193.977 239.036 179.228 236.71 166.831 229.336C154.434 221.962 145.333 210.104 141.405 196.206C137.477 182.308 139.022 167.43 145.72 154.639C145.741 154.609 145.769 154.586 145.801 154.569C145.833 154.553 145.869 154.545 145.905 154.546ZM145.905 151.611C145.332 151.609 144.77 151.764 144.28 152.061C143.789 152.358 143.39 152.784 143.126 153.293C136.137 166.743 134.553 182.363 138.7 196.946C142.846 211.529 152.408 223.968 165.422 231.709C178.435 239.45 193.913 241.905 208.677 238.57C223.441 235.235 236.371 226.363 244.81 213.776C245.045 213.419 245.205 213.017 245.28 212.595C245.355 212.173 245.343 211.741 245.246 211.324C245.149 210.907 244.967 210.514 244.713 210.169C244.46 209.824 244.138 209.535 243.769 209.319L147.525 152.057C147.035 151.765 146.475 151.611 145.905 151.611Z" fill="white"/>
<path d="M203.764 86.2171C211.4 86.2171 218.865 88.4859 225.215 92.7367C231.565 96.9874 236.514 103.029 239.436 110.098C242.359 117.167 243.123 124.945 241.633 132.449C240.144 139.953 236.466 146.846 231.066 152.256C225.666 157.667 218.786 161.351 211.296 162.844C203.806 164.336 196.043 163.57 188.987 160.642C181.932 157.714 175.902 152.756 171.659 146.394C167.416 140.032 165.152 132.553 165.152 124.902C165.167 114.647 169.24 104.816 176.478 97.5648C183.716 90.3134 193.528 86.2326 203.764 86.2171ZM203.764 83.2737C195.542 83.2737 187.506 85.7161 180.67 90.2921C173.835 94.8682 168.507 101.372 165.361 108.982C162.215 116.592 161.392 124.965 162.996 133.043C164.6 141.122 168.558 148.542 174.372 154.366C180.185 160.191 187.591 164.157 195.654 165.764C203.717 167.371 212.075 166.546 219.67 163.394C227.266 160.242 233.757 154.904 238.325 148.056C242.892 141.207 245.33 133.155 245.33 124.919C245.332 119.448 244.259 114.031 242.171 108.977C240.083 103.922 237.021 99.3293 233.161 95.4604C229.301 91.5915 224.718 88.5224 219.674 86.4285C214.63 84.3346 209.224 83.2568 203.764 83.2568V83.2737Z" fill="white"/>
<path d="M21.1462 214.541C21.459 213.713 21.9385 212.957 22.5552 212.322C23.1718 211.687 23.9122 211.186 24.7304 210.85C25.5399 210.472 26.4184 210.266 27.311 210.244C28.2036 210.223 29.0911 210.386 29.9179 210.723C30.741 211.027 31.4917 211.499 32.1219 212.111C32.7522 212.722 33.248 213.458 33.5776 214.272C33.9458 215.079 34.1454 215.952 34.1641 216.839C34.1829 217.725 34.0204 218.606 33.6867 219.428C33.3629 220.26 32.8738 221.018 32.2491 221.655C31.6243 222.293 30.8769 222.797 30.0522 223.136C29.2456 223.495 28.3761 223.689 27.494 223.707C26.6119 223.726 25.7349 223.569 24.914 223.245C24.0932 222.921 23.3448 222.437 22.7123 221.82C22.0799 221.204 21.5761 220.468 21.2302 219.655C20.8622 218.855 20.6646 217.987 20.6501 217.107C20.6357 216.227 20.8047 215.353 21.1462 214.541Z" fill="white"/>
<path d="M33.7602 182.753C33.8106 183.165 33.7602 183.215 33.3657 183.257L2.72801 186.697C2.32511 186.739 2.27474 186.697 2.23277 186.293L1.83826 182.778C1.83826 182.366 1.83826 182.315 2.24117 182.273L14.832 180.869C15.1929 180.827 15.1845 180.373 14.832 180.179L1.05763 171.652C0.663117 171.374 0.553996 171.206 0.520421 170.886L0 166.286C0 165.925 0.0839388 165.866 0.428088 166.051L15.5371 175.512C15.6899 175.537 15.8468 175.52 15.9903 175.461L31.0574 162.132C31.3931 161.871 31.4771 161.863 31.5274 162.266L32.0394 166.917C32.0814 167.279 32.0395 167.38 31.6785 167.758L17.837 179.784C17.5432 180.045 17.6859 180.532 18.0468 180.49L32.8704 178.808C33.2733 178.766 33.3237 178.808 33.3741 179.212L33.7602 182.753Z" fill="white"/>
<path d="M31.9961 153.209C31.9961 153.621 31.9037 153.655 31.5008 153.621L0.837958 150.535C0.435051 150.535 0.393082 150.45 0.435051 150.038L0.7792 146.515C0.7792 146.111 0.871533 146.069 1.27444 146.111L27.7991 148.743C28.2104 148.785 28.2608 148.743 28.2943 148.34L29.3184 137.92C29.3184 137.508 29.4107 137.474 29.8136 137.508L33.0621 137.836C33.465 137.836 33.507 137.92 33.465 138.332L31.9961 153.209Z" fill="white"/>
<path d="M35.4701 128.838C35.3526 129.233 35.2938 129.258 34.8993 129.141L5.52074 119.89C5.12623 119.764 5.10105 119.705 5.21856 119.318L10.2969 103.163C10.4228 102.776 10.4815 102.742 10.8676 102.868L13.9818 103.844C14.3679 103.97 14.4015 104.029 14.2756 104.416L10.5319 116.324C10.406 116.719 10.4396 116.77 10.8257 116.896L21.5027 120.26C21.8972 120.378 21.9476 120.352 22.0735 119.957L25.6745 108.486C25.792 108.091 25.8507 108.066 26.2452 108.183L29.309 109.159C29.7035 109.277 29.7287 109.336 29.6112 109.722L26.0186 121.185C25.8927 121.572 25.9263 121.631 26.3124 121.757L32.2637 123.624C32.6498 123.742 32.7085 123.716 32.826 123.321L36.6369 111.194C36.7628 110.807 36.8215 110.782 37.2077 110.9L40.2882 111.901C40.6743 112.018 40.7079 112.077 40.582 112.472L35.4701 128.838Z" fill="white"/>
<path d="M45.3798 102.599C45.1951 102.961 45.1363 102.977 44.767 102.792L17.4029 88.5883C17.042 88.3949 17.0252 88.336 17.2099 87.9744L18.8383 84.8292C19.023 84.4675 19.0901 84.4423 19.4511 84.6357L46.8151 98.8398C47.176 99.0248 47.1928 99.0921 47.0082 99.4537L45.3798 102.599Z" fill="white"/>
<path d="M67.4713 71.7184C67.656 71.9875 67.4713 72.1725 67.1356 72.0295L37.7066 56.051C37.3625 55.8828 37.2953 55.8155 37.5303 55.5969L40.6445 52.6787C40.7433 52.5996 40.8641 52.5531 40.9904 52.5456C41.1166 52.5381 41.2421 52.5699 41.3496 52.6366L58.4059 62.4929C58.5654 62.5938 58.8256 62.3415 58.7417 62.1817L50.1212 43.4447C49.819 42.7972 50.2807 42.3599 50.9102 42.7047L69.0326 52.5273C69.1921 52.6282 69.4523 52.3759 69.3599 52.2161L60.7059 34.4799C60.6447 34.3675 60.6208 34.2386 60.6373 34.1117C60.6539 33.9848 60.7102 33.8664 60.7982 33.7735L63.7948 30.9478C63.9543 30.7965 64.1138 30.8301 64.2313 31.1581L78.0644 61.7864C78.2491 62.0556 78.0644 62.2406 77.737 62.0976L59.0187 52.0059C58.8256 51.8713 58.6326 52.0563 58.6829 52.317L67.4713 71.7184Z" fill="white"/>
<path d="M103.294 14.5656C105.303 15.3088 107.144 16.4467 108.708 17.9125C110.272 19.3784 111.527 21.1426 112.401 23.1015C113.363 25.0195 113.933 27.1107 114.077 29.2524C114.221 31.3941 113.937 33.5431 113.241 35.5732C112.587 37.5805 111.521 39.4286 110.111 40.9986C108.702 42.5686 106.98 43.8258 105.057 44.6893C103.173 45.632 101.114 46.1698 99.0104 46.2683C96.9072 46.3668 94.8067 46.0237 92.8436 45.2612C90.8329 44.5209 88.9909 43.3841 87.4265 41.9179C85.8622 40.4517 84.6073 38.686 83.7362 36.7253C82.7742 34.8073 82.2044 32.716 82.0602 30.5743C81.9161 28.4326 82.2005 26.2837 82.8968 24.2536C83.5509 22.2462 84.6169 20.3982 86.0264 18.8282C87.4358 17.2582 89.1575 16.001 91.0809 15.1374C92.9645 14.1948 95.0239 13.657 97.1271 13.5585C99.2303 13.46 101.331 13.803 103.294 14.5656ZM87.2952 25.5824C86.4022 28.5917 86.7029 31.8302 88.1346 34.6229C89.3854 37.5158 91.6955 39.8183 94.5895 41.0563C95.9592 41.6129 97.4318 41.8693 98.9086 41.8084C100.385 41.7474 101.832 41.3706 103.151 40.7031C104.497 40.1066 105.699 39.226 106.674 38.1214C107.649 37.0169 108.374 35.7145 108.8 34.3033C109.71 31.276 109.409 28.0129 107.961 25.2039C106.724 22.3093 104.399 20.0191 101.489 18.8293C100.13 18.2514 98.6603 17.9783 97.1843 18.0291C95.7082 18.08 94.2611 18.4536 92.9443 19.1237C91.5938 19.7288 90.3898 20.6193 89.4148 21.734C88.4397 22.8488 87.7167 24.1616 87.2952 25.5824Z" fill="white"/>
<path d="M129.005 35.3968C128.602 35.4725 128.451 35.3968 128.383 35.0436L123.079 4.6255C123.003 4.22183 123.079 4.17138 123.439 4.1041L130.541 2.85945C137.508 1.68208 141.679 4.20501 142.737 10.218C143.526 14.734 141.327 18.4848 136.71 20.2593C136.542 20.3434 136.517 20.4779 136.71 20.6377L148.571 31.5115C148.94 31.7638 148.873 31.9152 148.47 31.9825L144.088 32.7562C143.694 32.8234 143.593 32.7562 143.249 32.445L130.944 21.1339C130.658 20.8143 130.364 20.9573 130.432 21.3609L132.69 34.2867C132.765 34.6904 132.69 34.7409 132.329 34.8166L129.005 35.3968ZM129.794 17.5597C129.869 17.9634 129.92 17.997 130.322 17.9298L133.487 17.3663C137.242 16.7103 138.806 14.5939 138.179 11.0169C137.583 7.65302 135.199 6.09721 131.464 6.75317L128.425 7.28299C128.023 7.35027 127.989 7.40072 128.056 7.80439L129.794 17.5597Z" fill="white"/>
<path d="M157.404 31.7467C156.992 31.7467 156.95 31.6794 156.976 31.2674L158.646 0.43715C158.646 0.0250719 158.713 -0.0169769 159.124 0.00825244L162.65 0.193267C163.061 0.193267 163.103 0.260545 163.078 0.672624L162.406 13.2873C162.406 13.6489 162.843 13.7246 163.086 13.4134L173.688 1.23608C174.024 0.891278 174.208 0.80718 174.527 0.824L179.144 1.07629C179.505 1.07629 179.538 1.22767 179.295 1.53883L167.543 14.9945C167.502 15.143 167.502 15.3001 167.543 15.4486L178.22 32.4363C178.422 32.8063 178.422 32.8988 178.011 32.882L173.352 32.6297C172.991 32.6297 172.899 32.512 172.605 32.1336L162.935 16.4914C162.725 16.1634 162.222 16.2223 162.205 16.5839L161.366 31.5112C161.366 31.9149 161.298 31.957 160.895 31.9401L157.404 31.7467Z" fill="white"/>
<path d="M205.04 31.1163C204.753 32.2934 204.219 33.3958 203.474 34.35C202.728 35.3041 201.789 36.0882 200.717 36.6499C198.398 37.7653 195.736 37.9312 193.297 37.1125C189.318 36.0024 186.263 32.9749 185.524 29.3755C185.497 29.3133 185.482 29.2462 185.482 29.1782C185.481 29.1102 185.494 29.0428 185.52 28.98C185.545 28.9171 185.584 28.8602 185.632 28.8126C185.681 28.7649 185.738 28.7275 185.801 28.7027L188.865 27.0376C189.251 26.8189 189.411 26.9114 189.503 27.2646C190.342 30.5108 191.786 32.2348 194.539 33.0085C197.292 33.7822 199.71 32.5207 200.415 30.0314C200.72 28.981 200.615 27.8534 200.121 26.8778C199.668 25.8097 198.442 24.2876 196.461 22.2776C193.943 19.7547 193.053 18.6362 192.416 17.3748C191.871 16.4555 191.521 15.4338 191.389 14.3732C191.256 13.3126 191.342 12.2359 191.643 11.2104C191.915 10.1481 192.41 9.156 193.094 8.30039C193.779 7.44478 194.638 6.7453 195.614 6.24863C197.69 5.18055 200.102 4.97509 202.329 5.67677C205.863 6.66912 208.322 8.82202 209.245 11.7654C209.371 12.1355 209.245 12.2868 208.96 12.4382L205.98 14.0108C205.594 14.2295 205.518 14.1622 205.384 13.7922C205.09 12.8197 204.557 11.9367 203.834 11.2241C203.111 10.5115 202.221 9.9921 201.246 9.71345C198.728 9.02385 196.764 10.1087 196.117 12.4298C195.878 13.3387 195.986 14.3042 196.419 15.1378C197.384 16.6943 198.559 18.1094 199.911 19.3426C202.564 21.9665 203.504 23.1691 204.259 24.5146C204.82 25.508 205.178 26.6033 205.312 27.7368C205.447 28.8703 205.354 30.0191 205.04 31.1163Z" fill="white"/>
<path d="M245.16 36.0945C245.524 37.8481 245.189 39.6748 244.226 41.1837C243.262 42.6925 241.748 43.7637 240.006 44.1679C239.15 44.3777 238.26 44.4052 237.392 44.2488C236.525 44.0924 235.699 43.7554 234.97 43.2596C234.218 42.7973 233.567 42.1858 233.059 41.4628C232.551 40.7397 232.196 39.9203 232.015 39.0548C231.821 38.1838 231.805 37.2824 231.968 36.405C232.131 35.5276 232.47 34.6925 232.964 33.95C233.433 33.2045 234.044 32.5596 234.764 32.0526C235.483 31.5456 236.296 31.1867 237.155 30.9966C238.013 30.8066 238.901 30.7891 239.767 30.9453C240.632 31.1015 241.458 31.4282 242.197 31.9065C242.954 32.3598 243.609 32.9664 244.119 33.6875C244.629 34.4087 244.984 35.2284 245.16 36.0945Z" fill="white"/>
<path d="M28.1509 251.637C28.0082 251.461 28.0502 251.309 28.3859 251.217L59.9805 239.72C60.2407 239.72 60.4086 239.897 60.2659 240.074L42.7059 268.928C42.5044 269.264 42.4373 269.323 42.2358 269.071L40.6998 267.17C40.4983 266.918 40.5487 266.766 40.6998 266.455L43.9985 261.157C44.0825 260.905 44.0909 260.846 43.8894 260.594L36.6791 251.671C36.6182 251.575 36.5279 251.502 36.4218 251.463C36.3158 251.423 36.1999 251.42 36.0915 251.452L30.3249 253.622C29.9892 253.714 29.8297 253.731 29.6282 253.487L28.1509 251.637ZM39.2812 250.266C39.0797 250.367 39.0378 250.46 39.1805 250.636L45.3668 258.298C45.3897 258.332 45.4209 258.361 45.4575 258.38C45.4941 258.4 45.535 258.41 45.5766 258.41C45.6182 258.41 45.6591 258.4 45.6957 258.38C45.7323 258.361 45.7635 258.332 45.7864 258.298L54.0964 245.128C54.2391 244.951 54.0125 244.665 53.7522 244.707L39.2812 250.266Z" fill="white"/>
<path d="M53.8737 280.045C53.5547 279.784 53.5043 279.633 53.7394 279.347L73.0453 255.295C73.3055 254.976 73.3643 254.976 73.6832 255.228L78.7699 259.332C83.3866 263.066 84.2511 267.784 81.0699 271.745C77.5696 276.093 72.3738 276.622 67.7739 273.149C67.6313 273.031 67.4886 273.149 67.4802 273.368L67.0185 290.137C66.9597 290.499 66.8674 290.541 66.6156 290.339L64.5339 288.657C64.2569 288.421 64.2485 288.362 64.2233 287.816L64.9032 270.794C64.9032 270.273 64.7102 270.172 64.3996 270.559L55.9218 281.096C55.67 281.416 55.6028 281.424 55.2839 281.164L53.8737 280.045ZM66.1287 268.414C65.8769 268.734 65.8853 268.801 66.2043 269.054L68.8316 271.164C72.0464 273.755 75.8657 273.343 78.4845 270.088C80.8684 267.119 80.4403 264.033 77.301 261.493L74.2456 259.021C73.9267 258.768 73.8679 258.768 73.6077 259.088L66.1287 268.414Z" fill="white"/>
<path d="M83.938 300.784C83.5771 300.59 83.5603 300.531 83.7534 300.17L96.9234 275.201C97.1164 274.84 97.0996 274.781 96.7387 274.587L90.9721 271.535C90.6112 271.341 90.5944 271.282 90.7791 270.921L91.6184 269.399C91.8115 269.037 91.8703 269.012 92.2312 269.205L107.055 277.06C107.416 277.253 107.433 277.312 107.248 277.674L106.408 279.196C106.215 279.557 106.157 279.574 105.796 279.389L100.021 276.328C99.6598 276.143 99.601 276.16 99.408 276.522L86.238 301.482C86.0449 301.843 85.9861 301.869 85.6252 301.675L83.938 300.784Z" fill="white"/>
<path d="M106.769 310.833C106.383 310.699 106.35 310.64 106.484 310.253L116.456 281.029C116.59 280.642 116.649 280.617 117.035 280.743L118.831 281.366C119.217 281.5 119.251 281.551 119.117 281.937L109.12 311.161C108.985 311.548 108.926 311.582 108.54 311.447L106.769 310.833Z" fill="white"/>
<path d="M141.981 310.758C141.825 311.912 141.427 313.021 140.812 314.01C140.197 314.998 139.379 315.845 138.413 316.493C136.341 317.809 133.835 318.254 131.438 317.73C129.712 317.451 128.087 316.73 126.72 315.636C125.354 314.543 124.293 313.115 123.64 311.489C123.514 311.145 123.573 311.061 123.85 310.791L125.428 309.404C125.797 309.101 125.974 309.177 126.091 309.564C126.429 311.001 127.197 312.301 128.292 313.29C129.387 314.278 130.757 314.909 132.219 315.097C135.786 315.72 138.321 314.13 138.934 310.598C139.167 309.317 138.96 307.995 138.346 306.847C137.725 305.636 136.206 304.038 133.839 302.062C132.806 301.24 131.819 300.361 130.884 299.43C130.348 298.871 129.852 298.275 129.398 297.647C128.787 296.789 128.357 295.817 128.131 294.787C127.906 293.758 127.892 292.694 128.089 291.659C128.241 290.648 128.615 289.683 129.184 288.834C129.753 287.984 130.503 287.272 131.379 286.748C133.242 285.575 135.487 285.171 137.641 285.621C140.68 286.151 143.424 288.102 144.356 290.246C144.474 290.591 144.44 290.818 144.18 291.003L142.719 292.265C142.342 292.567 142.216 292.5 142.056 292.105C141.638 291.069 140.95 290.163 140.064 289.483C139.179 288.803 138.127 288.372 137.02 288.236C133.939 287.698 131.53 289.405 131.052 292.13C130.85 293.322 131.06 294.548 131.648 295.603C132.845 297.309 134.31 298.809 135.987 300.044C138.858 302.34 139.79 303.332 140.629 304.577C141.262 305.461 141.709 306.465 141.941 307.528C142.173 308.59 142.187 309.69 141.981 310.758Z" fill="white"/>
<path d="M154.111 320C153.884 320 153.792 319.874 153.909 319.554L163.73 287.337C163.856 287.109 164.125 287.101 164.184 287.337L176.657 318.73C176.808 319.092 176.808 319.176 176.489 319.193L174.046 319.277C173.727 319.277 173.635 319.159 173.484 318.848L171.234 313.02C171.092 312.793 171.041 312.751 170.722 312.768L159.265 313.18C159.151 313.17 159.037 313.198 158.94 313.258C158.843 313.319 158.769 313.409 158.728 313.516L156.965 319.445C156.847 319.765 156.755 319.908 156.444 319.916L154.111 320ZM159.701 310.253C159.701 310.48 159.701 310.573 159.936 310.564L169.765 310.211C169.807 310.214 169.848 310.207 169.886 310.19C169.924 310.174 169.958 310.148 169.984 310.116C170.01 310.084 170.029 310.046 170.037 310.006C170.046 309.965 170.045 309.923 170.034 309.883L164.519 295.309C164.469 295.082 164.108 295.099 163.982 295.309L159.701 310.253Z" fill="white"/>
<path d="M210.234 312.095C210.335 312.448 210.125 312.549 209.823 312.297L189.367 293.703C189.314 293.646 189.245 293.607 189.168 293.593C189.092 293.579 189.014 293.589 188.944 293.623C188.874 293.657 188.818 293.713 188.782 293.782C188.746 293.85 188.733 293.929 188.746 294.005L194.529 315.492C194.638 315.888 194.604 315.946 194.21 316.047L192.464 316.527C192.07 316.628 192.011 316.594 191.91 316.207L183.667 285.596C183.567 285.251 183.776 285.142 184.079 285.394L204.534 303.996C204.589 304.049 204.659 304.083 204.734 304.094C204.809 304.105 204.886 304.093 204.954 304.059C205.022 304.025 205.078 303.971 205.114 303.904C205.15 303.837 205.164 303.761 205.156 303.685L199.372 282.198C199.263 281.803 199.297 281.752 199.691 281.643L201.437 281.172C201.832 281.063 201.89 281.096 201.999 281.492L210.234 312.095Z" fill="white"/>
<path d="M246.538 293.803C246.202 294.022 246.135 294.014 245.917 293.669L230.371 270.122C230.145 269.777 230.086 269.768 229.742 269.987L224.302 273.595C223.958 273.822 223.891 273.805 223.673 273.469L222.724 272.031C222.498 271.686 222.506 271.627 222.85 271.4L236.835 262.149C237.179 261.931 237.246 261.939 237.464 262.284L238.413 263.722C238.639 264.058 238.631 264.125 238.287 264.353L232.847 267.952C232.503 268.179 232.486 268.246 232.713 268.583L248.259 292.13C248.485 292.466 248.468 292.534 248.133 292.761L246.538 293.803Z" fill="white"/>
<path d="M263.493 281.551C263.325 281.71 263.166 281.677 263.04 281.357L248.569 250.956C248.502 250.704 248.695 250.51 248.888 250.636L279.257 265.362C279.609 265.522 279.677 265.589 279.45 265.808L277.704 267.532C277.477 267.759 277.318 267.725 276.999 267.59L271.409 264.815C271.157 264.748 271.09 264.748 270.863 264.975L262.729 273.032C262.639 273.102 262.574 273.2 262.546 273.311C262.517 273.422 262.525 273.54 262.57 273.645L265.247 279.204C265.373 279.524 265.407 279.692 265.18 279.911L263.493 281.551ZM261.042 270.618C261.168 270.811 261.269 270.845 261.428 270.685L268.437 263.772C268.47 263.748 268.497 263.717 268.515 263.68C268.534 263.643 268.543 263.603 268.543 263.562C268.543 263.521 268.534 263.481 268.515 263.444C268.497 263.408 268.47 263.376 268.437 263.352L254.545 256.338C254.352 256.204 254.092 256.464 254.159 256.717L261.042 270.618Z" fill="white"/>
<path d="M294.692 240.074C294.929 241.312 294.91 242.585 294.637 243.816C294.364 245.047 293.843 246.209 293.106 247.23L289.178 253.226C288.959 253.571 288.892 253.588 288.557 253.361L262.729 236.449C262.393 236.23 262.376 236.163 262.603 235.818L266.027 230.579C268.982 226.054 273.129 224.928 277.116 227.535C278.178 228.215 279.055 229.149 279.667 230.253C280.28 231.357 280.608 232.596 280.624 233.859C280.614 233.911 280.62 233.966 280.642 234.015C280.663 234.065 280.698 234.106 280.743 234.135C280.789 234.164 280.841 234.179 280.895 234.178C280.948 234.176 281 234.159 281.044 234.128C282.426 233.177 284.067 232.674 285.744 232.687C287.421 232.701 289.053 233.23 290.42 234.204C291.493 234.839 292.426 235.687 293.161 236.697C293.895 237.706 294.417 238.855 294.692 240.074ZM274.698 240.915C275.034 241.142 275.101 241.125 275.319 240.788L277.754 237.063C279.223 234.817 278.316 231.891 275.697 230.175C272.927 228.359 270.216 229.023 268.21 232.101L266.371 234.918C266.145 235.255 266.204 235.347 266.506 235.549L274.698 240.915ZM287.91 249.56C288.254 249.787 288.313 249.77 288.54 249.434L291.343 245.136C293.207 242.285 292.183 238.896 288.943 236.785C285.493 234.523 282.127 235.188 279.944 238.535L277.519 242.201C277.3 242.546 277.309 242.605 277.653 242.832L287.91 249.56Z" fill="white"/>
<path d="M305.42 224.827C305.261 225.205 305.202 225.23 304.824 225.079L276.285 213.457C275.908 213.297 275.882 213.238 276.033 212.86L276.755 211.094C276.906 210.715 276.965 210.69 277.343 210.841L303.465 221.48C303.842 221.631 303.901 221.606 304.052 221.227L308.148 211.136C308.308 210.757 308.367 210.732 308.744 210.883L310.339 211.539C310.717 211.691 310.742 211.749 310.583 212.128L305.42 224.827Z" fill="white"/>
<path d="M314.844 197.285C314.76 197.68 314.71 197.722 314.307 197.638L284.089 191.751C283.686 191.675 283.653 191.617 283.728 191.221L286.683 175.924C286.767 175.529 286.817 175.487 287.22 175.571L288.899 175.899C289.302 175.974 289.335 176.025 289.26 176.429L286.834 188.959C286.758 189.354 286.792 189.413 287.195 189.489L300.541 192.079C300.944 192.155 300.994 192.121 301.07 191.717L303.412 179.641C303.487 179.237 303.538 179.204 303.941 179.279L305.619 179.607C306.022 179.683 306.056 179.734 305.98 180.137L303.647 192.222C303.571 192.626 303.605 192.676 304.008 192.752L312.284 194.358C312.679 194.434 312.737 194.4 312.813 193.997L315.281 181.247C315.356 180.852 315.407 180.81 315.81 180.886L317.488 181.222C317.891 181.298 317.925 181.348 317.849 181.752L314.844 197.285Z" fill="white"/>
<path d="M319.747 157.044C320.066 157.044 320.083 157.338 319.747 157.498L288.589 168.826C288.278 168.977 288.144 168.893 288.127 168.675L287.993 166.446C287.993 166.219 288.102 166.034 288.412 165.874L310.833 157.935C311.009 157.885 310.984 157.523 310.833 157.49L286.96 152.36C286.272 152.225 286.23 151.519 286.893 151.275L309.993 143.386C310.169 143.328 310.153 142.966 309.993 142.932L286.801 137.769C286.473 137.651 286.322 137.483 286.314 137.256L286.18 135.027C286.18 134.716 286.255 134.708 286.625 134.825L318.916 142.537C319.235 142.537 319.252 142.831 318.916 142.991L295.463 151.174C295.414 151.188 295.37 151.217 295.339 151.258C295.307 151.299 295.291 151.349 295.291 151.401C295.291 151.453 295.307 151.503 295.339 151.544C295.37 151.585 295.414 151.614 295.463 151.628L319.747 157.044Z" fill="white"/>
<path d="M315.017 121.765C315.092 121.984 315.017 122.11 314.647 122.076L281.072 121.235C280.812 121.177 280.728 120.916 280.929 120.806L307.79 100.337C308.1 100.102 308.184 100.076 308.276 100.379L309.023 102.717C309.116 103.02 309.023 103.146 308.755 103.373L303.719 107.107C303.551 107.309 303.517 107.359 303.618 107.662L307.084 118.595C307.105 118.708 307.162 118.812 307.247 118.889C307.332 118.967 307.44 119.014 307.555 119.024L313.716 119.108C314.06 119.108 314.219 119.183 314.312 119.486L315.017 121.765ZM304.105 118.982C304.34 118.982 304.407 118.889 304.34 118.67L301.36 109.277C301.352 109.236 301.334 109.198 301.307 109.166C301.281 109.135 301.247 109.11 301.209 109.094C301.171 109.078 301.13 109.072 301.089 109.076C301.048 109.08 301.008 109.094 300.974 109.117L288.45 118.368C288.249 118.477 288.358 118.822 288.61 118.881L304.105 118.982Z" fill="white"/>
<path d="M301.34 85.9142C301.55 86.2674 301.533 86.4356 301.223 86.6122L274.514 102.019C274.153 102.221 274.094 102.204 273.892 101.851L270.636 96.1825C267.673 91.0273 268.579 86.3179 272.977 83.7781C277.838 80.9945 282.874 82.4157 285.887 87.2934C285.98 87.4532 286.156 87.4027 286.248 87.1925L292.753 71.7522C292.938 71.441 293.039 71.4326 293.198 71.7522L294.533 74.006C294.718 74.3171 294.692 74.3844 294.533 74.8974L287.751 90.4975C287.558 90.9769 287.709 91.1451 288.137 90.9012L299.846 84.1734C300.199 83.9715 300.258 83.9884 300.467 84.3416L301.34 85.9142ZM285.719 92.3056C286.072 92.1038 286.089 92.0365 285.887 91.6833L284.208 88.7735C282.152 85.191 278.442 84.1902 274.824 86.2506C271.525 88.1512 270.812 91.1787 272.826 94.6604L274.765 98.0243C274.967 98.3859 275.034 98.4027 275.387 98.1925L285.719 92.3056Z" fill="white"/>
<path d="M283.598 58.7672C283.875 59.0784 283.867 59.1373 283.598 59.4148L260.515 79.8926C260.213 80.1617 260.146 80.1617 259.877 79.8926L249.553 68.2282C249.284 67.9255 249.284 67.8582 249.595 67.5891L250.879 66.437C251.181 66.1678 251.248 66.1678 251.517 66.437L259.978 76.0241C260.246 76.3268 260.314 76.3353 260.616 76.0241L270.781 66.9836C271.091 66.7061 271.091 66.6472 270.823 66.3444L262.664 57.0937C262.395 56.791 262.395 56.7237 262.706 56.4546L263.99 55.3108C264.292 55.0417 264.359 55.0417 264.628 55.3108L272.804 64.6289C273.072 64.9316 273.139 64.9316 273.442 64.6289L279.745 59.0195C280.056 58.7504 280.056 58.6832 279.787 58.3804L271.125 48.7008C270.856 48.398 270.856 48.3307 271.125 48.0616L272.409 46.9179C272.72 46.6404 272.778 46.6488 273.047 46.9179L283.598 58.7672Z" fill="white"/>
</g>
<defs>
<clipPath id="clip0_1148_3590">
<rect width="320" height="320" fill="white"/>
</clipPath>
</defs>
</svg>
