<svg width="32" height="32" viewBox="0 0 32 32" fill="none" xmlns="http://www.w3.org/2000/svg">
<g clip-path="url(#clip0_768_123)">
<path d="M7.33529 23.3346C5.29084 23.3346 3.55751 22.6235 2.13529 21.2012C0.713064 19.779 0.00195312 18.0457 0.00195312 16.0013C0.00195312 13.9568 0.713064 12.2235 2.13529 10.8013C3.55751 9.37908 5.29084 8.66797 7.33529 8.66797C8.15751 8.66797 8.9464 8.81241 9.70195 9.1013C10.4575 9.39019 11.1353 9.8013 11.7353 10.3346L14.002 12.4013L12.002 14.2013L9.93529 12.3346C9.57973 12.0235 9.17973 11.7791 8.73529 11.6013C8.29084 11.4235 7.82418 11.3346 7.33529 11.3346C6.0464 11.3346 4.9464 11.7902 4.03529 12.7013C3.12418 13.6124 2.66862 14.7124 2.66862 16.0013C2.66862 17.2902 3.12418 18.3901 4.03529 19.3013C4.9464 20.2124 6.0464 20.6679 7.33529 20.6679C7.82418 20.6679 8.29084 20.579 8.73529 20.4013C9.17973 20.2235 9.57973 19.979 9.93529 19.6679L20.2686 10.3346C20.8686 9.8013 21.5464 9.39019 22.302 9.1013C23.0575 8.81241 23.8464 8.66797 24.6686 8.66797C26.7131 8.66797 28.4464 9.37908 29.8686 10.8013C31.2908 12.2235 32.002 13.9568 32.002 16.0013C32.002 18.0457 31.2908 19.779 29.8686 21.2012C28.4464 22.6235 26.7131 23.3346 24.6686 23.3346C23.8464 23.3346 23.0575 23.1901 22.302 22.9012C21.5464 22.6124 20.8686 22.2012 20.2686 21.6679L18.002 19.6013L20.002 17.8013L22.0686 19.6679C22.4242 19.979 22.8242 20.2235 23.2686 20.4013C23.7131 20.579 24.1797 20.6679 24.6686 20.6679C25.9575 20.6679 27.0575 20.2124 27.9686 19.3013C28.8797 18.3901 29.3353 17.2902 29.3353 16.0013C29.3353 14.7124 28.8797 13.6124 27.9686 12.7013C27.0575 11.7902 25.9575 11.3346 24.6686 11.3346C24.1797 11.3346 23.7131 11.4235 23.2686 11.6013C22.8242 11.7791 22.4242 12.0235 22.0686 12.3346L11.7353 21.6679C11.1353 22.2012 10.4575 22.6124 9.70195 22.9012C8.9464 23.1901 8.15751 23.3346 7.33529 23.3346Z" fill="black"/>
</g>
<defs>
<clipPath id="clip0_768_123">
<rect width="32" height="31.9999" fill="white"/>
</clipPath>
</defs>
</svg>
