<svg width="32" height="32" viewBox="0 0 32 32" fill="none" xmlns="http://www.w3.org/2000/svg">
<path d="M30.6673 15.9994L27.414 19.7061L27.8673 24.6127L23.054 25.7061L20.534 29.9461L16.0007 27.9994L11.4673 29.9594L8.94732 25.7194L4.13398 24.6261L4.58732 19.7061L1.33398 15.9994L4.58732 12.2794L4.13398 7.37273L8.94732 6.29273L11.4673 2.05273L16.0007 3.9994L20.534 2.05273L23.054 6.29273L27.8673 7.38607L27.414 12.2927L30.6673 15.9994ZM27.1073 15.9994L24.6673 13.1861L24.9873 9.46607L21.334 8.66607L19.4406 5.42607L16.0007 6.90607L12.5607 5.42607L10.6673 8.66607L7.01398 9.45273L7.33398 13.1727L4.89398 15.9994L7.33398 18.7994L7.01398 22.5327L10.6673 23.3327L12.5607 26.5727L16.0007 25.0794L19.4406 26.5594L21.334 23.3327L24.9873 22.5194L24.6673 18.7994L27.1073 15.9994Z" fill="black"/>
</svg>
