<svg width="32" height="32" viewBox="0 0 32 32" fill="none" xmlns="http://www.w3.org/2000/svg">
<path d="M27.96 9.69365C28.0836 9.5703 28.1817 9.42378 28.2486 9.26248C28.3155 9.10118 28.3499 8.92827 28.3499 8.75365C28.3499 8.57902 28.3155 8.40611 28.2486 8.24482C28.1817 8.08352 28.0836 7.937 27.96 7.81365L24.1867 4.04032C24.0633 3.91671 23.9168 3.81865 23.7555 3.75174C23.5942 3.68483 23.4213 3.65039 23.2467 3.65039C23.072 3.65039 22.8991 3.68483 22.7378 3.75174C22.5765 3.81865 22.43 3.91671 22.3067 4.04032L16.32 10.027L11.1333 4.84032C10.0933 3.80032 8.4 3.80032 7.36 4.84032L4.82667 7.37365C3.78667 8.41365 3.78667 10.107 4.82667 11.147L10.0133 16.3336L4 22.347V28.0003H9.65333L15.68 21.9736L20.8667 27.1603C22.1333 28.427 23.84 27.9603 24.64 27.1603L27.1733 24.627C28.2133 23.587 28.2133 21.8936 27.1733 20.8536L21.9867 15.667L27.96 9.69365ZM6.72 9.25365L9.24 6.72032L10.9333 8.41365L9.36 10.0003L11.24 11.8803L12.8267 10.2936L14.4267 11.8936L11.8933 14.427L6.72 9.25365ZM21.6933 19.1736L20.1067 20.7603L21.9867 22.6403L23.5733 21.0536L25.2667 22.747L22.7333 25.2803L17.5467 20.0936L20.08 17.5603L21.6933 19.1736ZM8.54667 25.3336H6.66667V23.4536L19.48 10.6403L21.2133 12.3736L21.36 12.5203L8.54667 25.3336ZM21.36 8.74698L23.24 6.86698L25.12 8.74698L23.24 10.627L21.36 8.74698Z" fill="black"/>
</svg>
