<svg width="32" height="32" viewBox="0 0 32 32" fill="none" xmlns="http://www.w3.org/2000/svg">
<g clip-path="url(#clip0_768_125)">
<path d="M13.573 10.9521L4.33544 16.2855C3.72295 16.6391 3.27602 17.2215 3.09297 17.9047C2.90993 18.5878 3.00575 19.3157 3.35938 19.9282L6.02604 24.547C6.37966 25.1595 6.96211 25.6064 7.64526 25.7895C8.3284 25.9725 9.05629 25.8767 9.66878 25.5231L10.8235 24.8564L13.4901 29.4752C13.667 29.7815 13.9582 30.0049 14.2998 30.0964C14.6413 30.188 15.0053 30.1401 15.3115 29.9632L17.6209 28.6299C17.9272 28.4531 18.1506 28.1619 18.2421 27.8203C18.3337 27.4787 18.2858 27.1148 18.1089 26.8085L15.4423 22.1897L18.9064 20.1897L27.3466 21.4752L16.6799 3L13.573 10.9521ZM22.1038 17.7279L18.7277 17.2137L8.33544 23.2137L5.66878 18.5949L16.0611 12.5949L17.3038 9.41402L22.1038 17.7279ZM27.2094 9.2376C28.3494 11.2121 28.2742 13.6419 26.9893 15.5231L21.656 6.28547C23.9226 6.13149 26.076 7.27461 27.2094 9.2376Z" fill="black"/>
</g>
<defs>
<clipPath id="clip0_768_125">
<rect width="32" height="32" fill="white"/>
</clipPath>
</defs>
</svg>
