<svg width="32" height="32" viewBox="0 0 32 32" fill="none" xmlns="http://www.w3.org/2000/svg">
<path d="M15.9994 29.3337C14.1771 29.3337 12.4549 28.9834 10.8327 28.283C9.21046 27.5825 7.79357 26.627 6.58202 25.4163C5.37135 24.2057 4.4158 22.7892 3.71535 21.167C3.01491 19.5448 2.66513 17.8225 2.66602 16.0003C2.66602 14.1559 3.01624 12.4279 3.71668 10.8163C4.41713 9.20477 5.37268 7.7941 6.58335 6.58433C7.79402 5.37277 9.21002 4.41721 10.8314 3.71766C12.4527 3.0181 14.1754 2.66788 15.9994 2.66699C17.8438 2.66699 19.5718 3.01721 21.1834 3.71766C22.7949 4.4181 24.2056 5.37366 25.4154 6.58433C26.6269 7.79499 27.5825 9.2061 28.282 10.8177C28.9816 12.4292 29.3318 14.1568 29.3327 16.0003C29.3327 17.8225 28.9825 19.5448 28.282 21.167C27.5816 22.7892 26.626 24.2061 25.4154 25.4177C24.2047 26.6283 22.7936 27.5839 21.182 28.2843C19.5705 28.9848 17.8429 29.3345 15.9994 29.3337ZM15.9994 26.6003C16.5771 25.8003 17.0771 24.967 17.4994 24.1003C17.9216 23.2337 18.266 22.3114 18.5327 21.3337H13.466C13.7327 22.3114 14.0771 23.2337 14.4994 24.1003C14.9216 24.967 15.4216 25.8003 15.9994 26.6003ZM12.5327 26.067C12.1327 25.3337 11.7825 24.5723 11.482 23.783C11.1816 22.9937 10.9318 22.1772 10.7327 21.3337H6.79935C7.44379 22.4448 8.24957 23.4114 9.21668 24.2337C10.1838 25.0559 11.2891 25.667 12.5327 26.067ZM19.466 26.067C20.7105 25.667 21.8162 25.0559 22.7833 24.2337C23.7505 23.4114 24.5558 22.4448 25.1994 21.3337H21.266C21.066 22.1781 20.8162 22.995 20.5167 23.7843C20.2171 24.5737 19.8669 25.3345 19.466 26.067ZM5.66602 18.667H10.1994C10.1327 18.2225 10.0825 17.7834 10.0487 17.3497C10.0149 16.9159 9.99846 16.4661 9.99935 16.0003C9.99935 15.5337 10.0162 15.0839 10.05 14.651C10.0838 14.2181 10.1336 13.779 10.1994 13.3337H5.66602C5.55491 13.7781 5.47135 14.2172 5.41535 14.651C5.35935 15.0848 5.3318 15.5345 5.33268 16.0003C5.33268 16.467 5.36068 16.9168 5.41668 17.3497C5.47268 17.7825 5.5558 18.2217 5.66602 18.667ZM12.866 18.667H19.1327C19.1994 18.2225 19.2496 17.7834 19.2834 17.3497C19.3171 16.9159 19.3336 16.4661 19.3327 16.0003C19.3327 15.5337 19.3158 15.0839 19.282 14.651C19.2482 14.2181 19.1985 13.779 19.1327 13.3337H12.866C12.7994 13.7781 12.7491 14.2172 12.7154 14.651C12.6816 15.0848 12.6651 15.5345 12.666 16.0003C12.666 16.467 12.6829 16.9168 12.7167 17.3497C12.7505 17.7825 12.8002 18.2217 12.866 18.667ZM21.7994 18.667H26.3327C26.4438 18.2225 26.5274 17.7834 26.5834 17.3497C26.6394 16.9159 26.6669 16.4661 26.666 16.0003C26.666 15.5337 26.638 15.0839 26.582 14.651C26.526 14.2181 26.4429 13.779 26.3327 13.3337H21.7994C21.866 13.7781 21.9162 14.2172 21.95 14.651C21.9838 15.0848 22.0002 15.5345 21.9994 16.0003C21.9994 16.467 21.9825 16.9168 21.9487 17.3497C21.9149 17.7825 21.8651 18.2217 21.7994 18.667ZM21.266 10.667H25.1994C24.5549 9.55588 23.7496 8.58921 22.7833 7.76699C21.8171 6.94477 20.7114 6.33366 19.466 5.93366C19.866 6.66699 20.2162 7.42833 20.5167 8.21766C20.8171 9.00699 21.0669 9.82344 21.266 10.667ZM13.466 10.667H18.5327C18.266 9.68921 17.9216 8.76699 17.4994 7.90033C17.0771 7.03366 16.5771 6.20033 15.9994 5.40033C15.4216 6.20033 14.9216 7.03366 14.4994 7.90033C14.0771 8.76699 13.7327 9.68921 13.466 10.667ZM6.79935 10.667H10.7327C10.9327 9.82255 11.1829 9.00566 11.4834 8.21633C11.7838 7.42699 12.1336 6.6661 12.5327 5.93366C11.2882 6.33366 10.1825 6.94477 9.21535 7.76699C8.24824 8.58921 7.44291 9.55588 6.79935 10.667Z" fill="black"/>
</svg>
