<svg width="81" height="80" viewBox="0 0 81 80" fill="none" xmlns="http://www.w3.org/2000/svg">
<path d="M33.8975 77.6562H47.2901" stroke="#273F32" stroke-width="2" stroke-miterlimit="10" stroke-linecap="round" stroke-linejoin="round"/>
<path d="M65.6076 22.7664C65.6076 26.2401 68.4178 29.0564 71.8845 29.0564C75.3509 29.0564 78.1612 26.2401 78.1612 22.7664V6.69296C78.1612 4.5414 76.83 2.79015 74.8021 2.38437L6.27762 2.34374C4.23918 2.67577 2.83887 4.41546 2.83887 6.55187V22.7664C2.83887 26.2401 5.64918 29.0564 9.11574 29.0564C12.5823 29.0564 15.3925 26.2401 15.3925 22.7664V12.7948" stroke="#273F32" stroke-width="2" stroke-miterlimit="10" stroke-linecap="round" stroke-linejoin="round"/>
<path d="M27.9473 22.7664C27.9473 26.2401 25.1371 29.0564 21.6704 29.0564C18.2039 29.0564 15.3936 26.2401 15.3936 22.7664" stroke="#273F32" stroke-width="2" stroke-miterlimit="10" stroke-linecap="round" stroke-linejoin="round"/>
<path d="M40.4999 22.7664C40.4999 26.2401 37.6897 29.0564 34.223 29.0564C30.7566 29.0564 27.9463 26.2401 27.9463 22.7664L27.9466 12.7948" stroke="#273F32" stroke-width="2" stroke-miterlimit="10" stroke-linecap="round" stroke-linejoin="round"/>
<path d="M53.0526 22.7664C53.0526 26.2401 50.2425 29.0564 46.7759 29.0564C43.3093 29.0564 40.499 26.2401 40.499 22.7664V12.7948" stroke="#273F32" stroke-width="2" stroke-miterlimit="10" stroke-linecap="round" stroke-linejoin="round"/>
<path d="M65.6083 12.7948V22.7664C65.6083 26.2403 62.7981 29.0564 59.3316 29.0564C55.865 29.0564 53.0547 26.2403 53.0547 22.7664V12.7948" stroke="#273F32" stroke-width="2" stroke-miterlimit="10" stroke-linecap="round" stroke-linejoin="round"/>
<path d="M2.84375 37.2608V77.6562" stroke="#273F32" stroke-width="2" stroke-miterlimit="10" stroke-linecap="round" stroke-linejoin="round"/>
<path d="M18.1728 77.6562V61.5533C18.1728 59.8747 16.812 58.5139 15.1336 58.5139H3.08984" stroke="#273F32" stroke-width="2" stroke-miterlimit="10" stroke-linecap="round" stroke-linejoin="round"/>
<path d="M2.84473 67.5146H18.1725" stroke="#273F32" stroke-width="2" stroke-miterlimit="10" stroke-linecap="round" stroke-linejoin="round"/>
<path d="M78.1562 37.2608V77.6562" stroke="#273F32" stroke-width="2" stroke-miterlimit="10" stroke-linecap="round" stroke-linejoin="round"/>
<path d="M63.0742 77.6565V61.5535C63.0742 59.8749 64.4348 58.5142 66.1134 58.5142H78.157" stroke="#273F32" stroke-width="2" stroke-miterlimit="10" stroke-linecap="round" stroke-linejoin="round"/>
<path d="M78.1572 67.5149H63.1602" stroke="#273F32" stroke-width="2" stroke-miterlimit="10" stroke-linecap="round" stroke-linejoin="round"/>
<path d="M46.7543 54.4238H29.6411C25.0795 54.4238 21.3818 50.7259 21.3818 46.1647H59.6206V46.165C59.6206 50.7263 55.9228 54.4241 51.3614 54.4241H46.7543" stroke="#273F32" stroke-width="2" stroke-miterlimit="10" stroke-linecap="round" stroke-linejoin="round"/>
<path d="M40.5938 54.4238V77.6013" stroke="#273F32" stroke-width="2" stroke-miterlimit="10" stroke-linecap="round" stroke-linejoin="round"/>
<path d="M2.83887 12.7949H78.1612" stroke="#273F32" stroke-width="2" stroke-miterlimit="10" stroke-linecap="round" stroke-linejoin="round"/>
</svg>
