<svg width="81" height="80" viewBox="0 0 81 80" fill="none" xmlns="http://www.w3.org/2000/svg">
<path d="M50.749 56.002L68.1348 63.3903C71.7019 64.9063 74.0217 68.4325 74.0217 72.3391V79H7.32227V72.3391C7.32227 68.4325 9.64199 64.9064 13.2093 63.3904L30.5008 56.0421" stroke="#273F32" stroke-width="2" stroke-miterlimit="10" stroke-linecap="round" stroke-linejoin="round"/>
<path d="M37.4257 59.281L31.6943 65.8921V79" stroke="#273F32" stroke-width="2" stroke-miterlimit="10" stroke-linecap="round" stroke-linejoin="round"/>
<path d="M40.6724 59.4188C32.1716 59.4188 25.2803 52.4634 25.2803 43.8835V34.8213H56.0646V43.8835C56.0646 52.4634 49.1732 59.4188 40.6724 59.4188Z" stroke="#273F32" stroke-width="2" stroke-miterlimit="10" stroke-linecap="round" stroke-linejoin="round"/>
<path d="M38.1064 50.3569C39.7213 51.1719 41.6223 51.1719 43.2372 50.3569" stroke="#273F32" stroke-width="2" stroke-miterlimit="10" stroke-linecap="round" stroke-linejoin="round"/>
<path d="M62.4783 10.0623C62.4783 5.0573 58.4584 1 53.4996 1C50.9865 1 48.716 2.04329 47.0862 3.72256C45.4564 2.04329 43.1859 1 40.6728 1C38.1597 1 35.8892 2.04329 34.2594 3.72256C32.6295 2.04329 30.359 1 27.846 1C22.8871 1 18.8672 5.0573 18.8672 10.0623C18.8672 14.1671 21.5722 17.6328 25.2806 18.7471V34.8216H56.0649V18.7471C59.7733 17.6328 62.4783 14.1671 62.4783 10.0623Z" stroke="#273F32" stroke-width="2" stroke-miterlimit="10" stroke-linecap="round" stroke-linejoin="round"/>
<path d="M25.2803 25.7593H56.0646" stroke="#273F32" stroke-width="2" stroke-miterlimit="10" stroke-linecap="round" stroke-linejoin="round"/>
</svg>
