<svg width="83" height="82" viewBox="0 0 83 82" fill="none" xmlns="http://www.w3.org/2000/svg">
<path d="M53.9194 66.6936C59.6641 60.3724 70.1179 48.8692 70.1179 48.8692C66.2292 44.9808 62.4141 44.9808 58.5255 48.8693L46.6452 60.7495H27.8274C35.56 56.1566 46.0488 51.5559 39.9013 46.645C36.7609 44.1363 25.1882 50.4447 18.2419 54.4966C12.4362 57.8832 13.1967 63.6191 7.15339 72.6838C6.69048 73.3782 16.6206 81.1468 16.7697 80.9979C19.9577 77.8098 24.2819 75.6868 28.7906 75.6868H39.1371C43.373 75.6868 47.4095 73.8885 50.2425 70.7396C50.2425 70.7396 51.7429 69.0885 53.9194 66.6936Z" stroke="#273F32" stroke-width="2" stroke-miterlimit="10" stroke-linecap="round" stroke-linejoin="round"/>
<path d="M81.5 35.8538C81.5 41.3535 77.0414 45.812 71.5415 45.812H11.7905C6.29054 45.812 1.5 41.3535 1.5 35.8538H81.5Z" stroke="#273F32" stroke-width="2" stroke-miterlimit="10" stroke-linecap="round" stroke-linejoin="round"/>
<path d="M11.79 35.8538C11.79 24.3983 20.7695 5.98157 41.6702 5.98157C58.1678 5.98157 71.5411 19.356 71.5411 35.8538" stroke="#273F32" stroke-width="2" stroke-miterlimit="10" stroke-linecap="round" stroke-linejoin="round"/>
<path d="M41.666 5.98169V1.00009" stroke="#273F32" stroke-width="2" stroke-miterlimit="10" stroke-linecap="round" stroke-linejoin="round"/>
</svg>
