<svg width="40" height="40" viewBox="0 0 40 40" fill="none" xmlns="http://www.w3.org/2000/svg">
<rect width="40" height="40" rx="20" fill="white"/>
<path d="M12.131 14.2642L25.7359 27.8691C26.0262 28.1595 26.3061 28.2322 26.5755 28.0872C26.8449 27.9423 27.1315 27.7179 27.4353 27.4141C27.7253 27.124 27.9428 26.8443 28.0878 26.575C28.2327 26.3056 28.16 26.0257 27.8696 25.7354L14.2648 12.1305C13.9744 11.8401 13.6945 11.7674 13.4252 11.9124C13.1558 12.0573 12.8761 12.2748 12.5861 12.5648C12.2822 12.8687 12.0578 13.1553 11.9129 13.4246C11.768 13.694 11.8407 13.9739 12.131 14.2642Z" fill="black"/>
<path d="M25.7353 12.1305L12.1304 25.7354C11.84 26.0258 11.7673 26.3056 11.9123 26.575C12.0572 26.8444 12.2816 27.131 12.5855 27.4348C12.8755 27.7248 13.1552 27.9423 13.4246 28.0873C13.6939 28.2322 13.9738 28.1595 14.2641 27.8692L27.869 14.2643C28.1594 13.9739 28.2321 13.6941 28.0871 13.4247C27.9422 13.1553 27.7247 12.8756 27.4347 12.5856C27.1309 12.2817 26.8443 12.0574 26.5749 11.9124C26.3055 11.7675 26.0256 11.8402 25.7353 12.1305Z" fill="black"/>
</svg>
