<svg width="292" height="84" viewBox="0 0 292 84" fill="none" xmlns="http://www.w3.org/2000/svg">
<g clip-path="url(#clip0_269_85)">
<mask id="mask0_269_85" style="mask-type:luminance" maskUnits="userSpaceOnUse" x="0" y="0" width="292" height="84">
<path d="M292 0H0V84H292V0Z" fill="white"/>
</mask>
<g mask="url(#mask0_269_85)">
<path d="M0.00683594 44.0906H27.0391V39.3H5.40859V24.9316H24.8891V20.1376H5.40859V5.76922H27.0391V0.978638H0.00683594V44.0906Z" fill="#0B5143"/>
<path d="M24.8924 58.4524H0V63.2464H24.8924V58.4524Z" fill="#0B5143"/>
<path d="M0 77.6113L0.00671859 82.402H27.0423V77.6113H0Z" fill="#0B5143"/>
<path d="M292 0.982056H264.965V5.77263H292V0.982056Z" fill="#0B5143"/>
<mask id="mask1_269_85" style="mask-type:luminance" maskUnits="userSpaceOnUse" x="0" y="0" width="292" height="84">
<path d="M292 0H0V84H292V0Z" fill="white"/>
</mask>
<g mask="url(#mask1_269_85)">
<path d="M64.8915 78.407C56.5571 78.407 54.0778 72.065 54.0778 65.2136V40.6983C56.8158 43.0553 60.4839 44.4436 64.8915 44.4436C69.2988 44.4436 72.9538 43.0553 75.7016 40.6983V65.2136C75.7016 72.065 73.226 78.407 64.8915 78.407ZM75.7016 26.3465C75.7016 33.2011 73.226 39.5396 64.8915 39.5396C56.5571 39.5396 54.0845 33.2011 54.0845 26.3465V0.998657H48.666V67.3013C48.666 76.243 54.9447 83.3076 64.8915 83.3076C74.8384 83.3076 81.11 76.243 81.11 67.3013V0.998657H75.7016V26.3465Z" fill="#0B5143"/>
</g>
<path d="M210.887 43.7777V12.6939L237.926 40.1657V71.243L210.887 43.7777ZM205.481 0V82.402H210.887V50.9753L243.337 84V0.998733H237.926V32.9581L205.481 0Z" fill="#0B5143"/>
<path d="M292 20.1411H267.154V24.9317H292V20.1411Z" fill="#0B5143"/>
<path d="M264.965 39.3033V82.4087H292V77.6147H270.37V63.2463H289.854V58.4523H270.37V44.094H292V39.3033H264.965Z" fill="#0B5143"/>
<mask id="mask2_269_85" style="mask-type:luminance" maskUnits="userSpaceOnUse" x="0" y="0" width="292" height="84">
<path d="M292 0H0V84H292V0Z" fill="white"/>
</mask>
<g mask="url(#mask2_269_85)">
<path d="M118.969 24.935H129.779V58.4523H118.969V63.253H129.779V65.224C129.779 72.0783 127.337 78.417 118.996 78.417C110.655 78.417 108.169 72.0783 108.149 65.2503V18.41C108.149 11.5553 110.655 4.8938 118.989 4.8938C123.78 4.8938 127.512 7.6303 129.087 10.7064L133.874 8.4426C133.01 6.80713 131.884 5.32183 130.538 4.04487C127.156 0.998733 123.4 0 118.989 0C114.578 0 110.897 1.38824 108.149 3.74523C104.702 6.69483 102.74 11.1592 102.74 16.3159V67.015C102.74 72.1483 104.702 76.616 108.149 79.5623C110.9 81.9193 114.585 83.3077 118.996 83.3077C123.407 83.3077 127.092 81.9193 129.84 79.5623C133.283 76.616 135.188 71.8587 135.188 66.7187V20.1411H118.969V24.935Z" fill="#0B5143"/>
</g>
<path d="M181.701 77.6113H156.815V82.402H181.701V77.6113Z" fill="#0B5143"/>
<path d="M181.701 0.982056H156.815V5.77263H181.701V0.982056Z" fill="#0B5143"/>
<path d="M156.815 63.243H183.858V58.4523H162.221V44.094H181.701V39.3033H162.221V24.9349H183.858V20.1377H156.815V63.243Z" fill="#0B5143"/>
</g>
</g>
<defs>
<clipPath id="clip0_269_85">
<rect width="292" height="84" fill="white"/>
</clipPath>
</defs>
</svg>
