<svg width="578" height="506" viewBox="0 0 578 506" fill="none" xmlns="http://www.w3.org/2000/svg">
<path d="M39.0693 464.038L39.0693 454.178" stroke="#E6E6E6"/>
<path d="M165.578 464.038L165.578 428.111" stroke="#E6E6E6"/>
<path d="M287.186 464.038L287.186 371.965" stroke="#E6E6E6"/>
<path d="M412.922 464.038L412.922 274.211" stroke="#E6E6E6"/>
<path d="M536.345 464.038L536.345 100.26" stroke="#E6E6E6"/>
<path d="M193.283 415.097C142.895 434.788 54.8792 450.168 15 451.17H578V7.01819C485.731 250.513 335.597 359.484 193.283 415.097Z" fill="url(#paint0_linear_40_131)"/>
<path d="M1 0V464.204H578" stroke="#C0C0C0"/>
<path d="M6 457.186C46.5167 456.17 135.939 440.582 187.133 420.624C331.722 364.258 482.256 253.811 576 7.01819" stroke="#FFCDB7" stroke-width="4" stroke-linecap="round"/>
<path d="M14.98 504.974V494.894H15.925L19.887 503.371L23.828 494.894H24.787V504.967H23.807V497.19L20.216 504.974H19.551L15.967 497.19V504.974H14.98ZM29.9085 505.184C29.1572 505.184 28.5155 505.014 27.9835 504.673C27.4515 504.332 27.0432 503.861 26.7585 503.259C26.4738 502.657 26.3315 501.966 26.3315 501.187C26.3315 500.394 26.4762 499.698 26.7655 499.101C27.0548 498.504 27.4655 498.039 27.9975 497.708C28.5342 497.372 29.1712 497.204 29.9085 497.204C30.6645 497.204 31.3085 497.374 31.8405 497.715C32.3772 498.051 32.7855 498.52 33.0655 499.122C33.3502 499.719 33.4925 500.408 33.4925 501.187C33.4925 501.98 33.3502 502.678 33.0655 503.28C32.7808 503.877 32.3702 504.344 31.8335 504.68C31.2968 505.016 30.6552 505.184 29.9085 505.184ZM29.9085 504.197C30.7485 504.197 31.3738 503.919 31.7845 503.364C32.1952 502.804 32.4005 502.078 32.4005 501.187C32.4005 500.272 32.1928 499.544 31.7775 499.003C31.3668 498.462 30.7438 498.191 29.9085 498.191C29.3438 498.191 28.8772 498.319 28.5085 498.576C28.1445 498.828 27.8715 499.18 27.6895 499.633C27.5122 500.081 27.4235 500.599 27.4235 501.187C27.4235 502.097 27.6335 502.827 28.0535 503.378C28.4735 503.924 29.0918 504.197 29.9085 504.197ZM40.4966 504.974V501.117C40.4966 500.697 40.457 500.312 40.3776 499.962C40.2983 499.607 40.17 499.299 39.9926 499.038C39.82 498.772 39.5936 498.567 39.3136 498.422C39.0383 498.277 38.7023 498.205 38.3056 498.205C37.9416 498.205 37.6196 498.268 37.3396 498.394C37.0643 498.52 36.831 498.702 36.6396 498.94C36.453 499.173 36.3106 499.458 36.2126 499.794C36.1146 500.13 36.0656 500.513 36.0656 500.942L35.3376 500.781C35.3376 500.006 35.473 499.355 35.7436 498.828C36.0143 498.301 36.3876 497.902 36.8636 497.631C37.3396 497.36 37.8856 497.225 38.5016 497.225C38.9543 497.225 39.3486 497.295 39.6846 497.435C40.0253 497.575 40.3123 497.764 40.5456 498.002C40.7836 498.24 40.975 498.513 41.1196 498.821C41.2643 499.124 41.3693 499.449 41.4346 499.794C41.5 500.135 41.5326 500.475 41.5326 500.816V504.974H40.4966ZM35.0296 504.974V497.414H35.9606V499.276H36.0656V504.974H35.0296ZM47.4651 504.974C47.0405 505.063 46.6205 505.098 46.2051 505.079C45.7945 505.06 45.4258 504.972 45.0991 504.813C44.7771 504.654 44.5321 504.407 44.3641 504.071C44.2288 503.791 44.1541 503.509 44.1401 503.224C44.1308 502.935 44.1261 502.606 44.1261 502.237V495.314H45.1481V502.195C45.1481 502.512 45.1505 502.778 45.1551 502.993C45.1645 503.203 45.2135 503.39 45.3021 503.553C45.4701 503.866 45.7361 504.052 46.1001 504.113C46.4688 504.174 46.9238 504.16 47.4651 504.071V504.974ZM42.5091 498.296V497.414H47.4651V498.296H42.5091ZM54.4146 504.974V501.117C54.4146 500.697 54.3749 500.312 54.2956 499.962C54.2163 499.607 54.0879 499.299 53.9106 499.038C53.7379 498.772 53.5116 498.567 53.2316 498.422C52.9563 498.277 52.6203 498.205 52.2236 498.205C51.8596 498.205 51.5376 498.268 51.2576 498.394C50.9823 498.52 50.7489 498.702 50.5576 498.94C50.3709 499.173 50.2286 499.458 50.1306 499.794C50.0326 500.13 49.9836 500.513 49.9836 500.942L49.2556 500.781C49.2556 500.006 49.3909 499.355 49.6616 498.828C49.9323 498.301 50.3056 497.902 50.7816 497.631C51.2576 497.36 51.8036 497.225 52.4196 497.225C52.8723 497.225 53.2666 497.295 53.6026 497.435C53.9433 497.575 54.2303 497.764 54.4636 498.002C54.7016 498.24 54.8929 498.513 55.0376 498.821C55.1823 499.124 55.2873 499.449 55.3526 499.794C55.4179 500.135 55.4506 500.475 55.4506 500.816V504.974H54.4146ZM48.9476 504.974V494.894H49.8786V500.585H49.9836V504.974H48.9476ZM61.8268 504.974V496.042L59.9298 497.183V496.028L61.8268 494.894H62.8698V504.974H61.8268Z" fill="#808080"/>
<path d="M15.8648 17.7339V7.65395H19.7568C19.8548 7.65395 19.9644 7.65861 20.0858 7.66795C20.2118 7.67261 20.3378 7.68661 20.4638 7.70995C20.9911 7.78928 21.4368 7.97361 21.8008 8.26295C22.1694 8.54761 22.4471 8.90695 22.6338 9.34095C22.8251 9.77495 22.9208 10.2556 22.9208 10.7829C22.9208 11.5436 22.7201 12.2039 22.3188 12.7639C21.9174 13.3239 21.3434 13.6763 20.5968 13.8209L20.2398 13.9049H16.8938V17.7339H15.8648ZM21.9688 17.7339L19.9808 13.6319L20.9678 13.2539L23.1518 17.7339H21.9688ZM16.8938 12.9249H19.7288C19.8128 12.9249 19.9108 12.9203 20.0228 12.9109C20.1348 12.9016 20.2444 12.8853 20.3518 12.8619C20.6971 12.7873 20.9794 12.6449 21.1988 12.4349C21.4228 12.2249 21.5884 11.9753 21.6958 11.6859C21.8078 11.3966 21.8638 11.0956 21.8638 10.7829C21.8638 10.4703 21.8078 10.1693 21.6958 9.87995C21.5884 9.58595 21.4228 9.33395 21.1988 9.12395C20.9794 8.91395 20.6971 8.77161 20.3518 8.69695C20.2444 8.67361 20.1348 8.65961 20.0228 8.65495C19.9108 8.64561 19.8128 8.64095 19.7288 8.64095H16.8938V12.9249ZM28.7778 17.9439C27.7745 17.9439 26.9275 17.7223 26.2368 17.2789C25.5461 16.8309 25.0235 16.2126 24.6688 15.4239C24.3141 14.6353 24.1368 13.7253 24.1368 12.6939C24.1368 11.6626 24.3141 10.7526 24.6688 9.96395C25.0235 9.17528 25.5461 8.55928 26.2368 8.11595C26.9275 7.66795 27.7745 7.44395 28.7778 7.44395C29.7858 7.44395 30.6328 7.66795 31.3188 8.11595C32.0095 8.55928 32.5321 9.17528 32.8868 9.96395C33.2461 10.7526 33.4258 11.6626 33.4258 12.6939C33.4258 13.7253 33.2461 14.6353 32.8868 15.4239C32.5321 16.2126 32.0095 16.8309 31.3188 17.2789C30.6328 17.7223 29.7858 17.9439 28.7778 17.9439ZM28.7778 16.9569C29.5665 16.9569 30.2245 16.7773 30.7518 16.4179C31.2791 16.0586 31.6735 15.5593 31.9348 14.9199C32.2008 14.2759 32.3338 13.5339 32.3338 12.6939C32.3338 11.8539 32.2008 11.1143 31.9348 10.4749C31.6735 9.83561 31.2791 9.33628 30.7518 8.97695C30.2245 8.61761 29.5665 8.43561 28.7778 8.43095C27.9891 8.43095 27.3335 8.61061 26.8108 8.96995C26.2881 9.32928 25.8938 9.83095 25.6278 10.4749C25.3665 11.1143 25.2335 11.8539 25.2288 12.6939C25.2241 13.5339 25.3525 14.2736 25.6138 14.9129C25.8798 15.5476 26.2765 16.0469 26.8038 16.4109C27.3311 16.7703 27.9891 16.9523 28.7778 16.9569ZM33.8542 17.7339L37.3262 7.65395H38.6912L42.1632 17.7339H41.0922L37.7952 8.22795H38.2012L34.9252 17.7339H33.8542ZM35.4012 15.2909V14.3249H40.6092V15.2909H35.4012ZM46.6538 17.9439C45.9492 17.9439 45.3145 17.8273 44.7498 17.5939C44.1898 17.3559 43.7255 17.0199 43.3568 16.5859C42.9928 16.1519 42.7548 15.6363 42.6428 15.0389L43.6928 14.8639C43.8608 15.5173 44.2155 16.0306 44.7568 16.4039C45.2982 16.7726 45.9445 16.9569 46.6958 16.9569C47.1905 16.9569 47.6338 16.8799 48.0258 16.7259C48.4178 16.5673 48.7258 16.3433 48.9498 16.0539C49.1738 15.7646 49.2858 15.4216 49.2858 15.0249C49.2858 14.7636 49.2392 14.5419 49.1458 14.3599C49.0525 14.1733 48.9288 14.0193 48.7748 13.8979C48.6208 13.7766 48.4528 13.6763 48.2708 13.5969C48.0888 13.5129 47.9115 13.4453 47.7388 13.3939L45.1838 12.6309C44.8758 12.5423 44.5912 12.4303 44.3298 12.2949C44.0685 12.1549 43.8398 11.9893 43.6438 11.7979C43.4525 11.6019 43.3032 11.3733 43.1958 11.1119C43.0885 10.8506 43.0348 10.5519 43.0348 10.2159C43.0348 9.64661 43.1842 9.15428 43.4828 8.73895C43.7815 8.32361 44.1898 8.00395 44.7078 7.77995C45.2258 7.55595 45.8162 7.44628 46.4788 7.45095C47.1508 7.45095 47.7505 7.56995 48.2778 7.80795C48.8098 8.04595 49.2485 8.38661 49.5938 8.82995C49.9392 9.26861 50.1678 9.78895 50.2798 10.3909L49.2018 10.5869C49.1318 10.1483 48.9708 9.76795 48.7188 9.44595C48.4668 9.12395 48.1448 8.87661 47.7528 8.70395C47.3655 8.52661 46.9385 8.43561 46.4718 8.43095C46.0192 8.43095 45.6155 8.50795 45.2608 8.66195C44.9108 8.81128 44.6332 9.01661 44.4278 9.27795C44.2225 9.53928 44.1198 9.83795 44.1198 10.1739C44.1198 10.5146 44.2132 10.7876 44.3998 10.9929C44.5912 11.1983 44.8245 11.3593 45.0998 11.4759C45.3798 11.5926 45.6505 11.6883 45.9118 11.7629L47.8858 12.3439C48.0912 12.3999 48.3315 12.4816 48.6068 12.5889C48.8868 12.6916 49.1575 12.8409 49.4188 13.0369C49.6848 13.2283 49.9042 13.4803 50.0768 13.7929C50.2495 14.1056 50.3358 14.5023 50.3358 14.9829C50.3358 15.4496 50.2425 15.8673 50.0558 16.2359C49.8738 16.6046 49.6148 16.9149 49.2788 17.1669C48.9475 17.4189 48.5578 17.6103 48.1098 17.7409C47.6665 17.8763 47.1812 17.9439 46.6538 17.9439Z" fill="#808080"/>
<path d="M139.865 504.974V494.894H140.81L144.772 503.371L148.713 494.894H149.672V504.967H148.692V497.19L145.101 504.974H144.436L140.852 497.19V504.974H139.865ZM154.793 505.184C154.042 505.184 153.4 505.014 152.868 504.673C152.336 504.332 151.928 503.861 151.643 503.259C151.359 502.657 151.216 501.966 151.216 501.187C151.216 500.394 151.361 499.698 151.65 499.101C151.94 498.504 152.35 498.039 152.882 497.708C153.419 497.372 154.056 497.204 154.793 497.204C155.549 497.204 156.193 497.374 156.725 497.715C157.262 498.051 157.67 498.52 157.95 499.122C158.235 499.719 158.377 500.408 158.377 501.187C158.377 501.98 158.235 502.678 157.95 503.28C157.666 503.877 157.255 504.344 156.718 504.68C156.182 505.016 155.54 505.184 154.793 505.184ZM154.793 504.197C155.633 504.197 156.259 503.919 156.669 503.364C157.08 502.804 157.285 502.078 157.285 501.187C157.285 500.272 157.078 499.544 156.662 499.003C156.252 498.462 155.629 498.191 154.793 498.191C154.229 498.191 153.762 498.319 153.393 498.576C153.029 498.828 152.756 499.18 152.574 499.633C152.397 500.081 152.308 500.599 152.308 501.187C152.308 502.097 152.518 502.827 152.938 503.378C153.358 503.924 153.977 504.197 154.793 504.197ZM165.381 504.974V501.117C165.381 500.697 165.342 500.312 165.262 499.962C165.183 499.607 165.055 499.299 164.877 499.038C164.705 498.772 164.478 498.567 164.198 498.422C163.923 498.277 163.587 498.205 163.19 498.205C162.826 498.205 162.504 498.268 162.224 498.394C161.949 498.52 161.716 498.702 161.524 498.94C161.338 499.173 161.195 499.458 161.097 499.794C160.999 500.13 160.95 500.513 160.95 500.942L160.222 500.781C160.222 500.006 160.358 499.355 160.628 498.828C160.899 498.301 161.272 497.902 161.748 497.631C162.224 497.36 162.77 497.225 163.386 497.225C163.839 497.225 164.233 497.295 164.569 497.435C164.91 497.575 165.197 497.764 165.43 498.002C165.668 498.24 165.86 498.513 166.004 498.821C166.149 499.124 166.254 499.449 166.319 499.794C166.385 500.135 166.417 500.475 166.417 500.816V504.974H165.381ZM159.914 504.974V497.414H160.845V499.276H160.95V504.974H159.914ZM172.35 504.974C171.925 505.063 171.505 505.098 171.09 505.079C170.679 505.06 170.311 504.972 169.984 504.813C169.662 504.654 169.417 504.407 169.249 504.071C169.114 503.791 169.039 503.509 169.025 503.224C169.016 502.935 169.011 502.606 169.011 502.237V495.314H170.033V502.195C170.033 502.512 170.035 502.778 170.04 502.993C170.049 503.203 170.098 503.39 170.187 503.553C170.355 503.866 170.621 504.052 170.985 504.113C171.354 504.174 171.809 504.16 172.35 504.071V504.974ZM167.394 498.296V497.414H172.35V498.296H167.394ZM179.299 504.974V501.117C179.299 500.697 179.26 500.312 179.18 499.962C179.101 499.607 178.973 499.299 178.795 499.038C178.623 498.772 178.396 498.567 178.116 498.422C177.841 498.277 177.505 498.205 177.108 498.205C176.744 498.205 176.422 498.268 176.142 498.394C175.867 498.52 175.634 498.702 175.442 498.94C175.256 499.173 175.113 499.458 175.015 499.794C174.917 500.13 174.868 500.513 174.868 500.942L174.14 500.781C174.14 500.006 174.276 499.355 174.546 498.828C174.817 498.301 175.19 497.902 175.666 497.631C176.142 497.36 176.688 497.225 177.304 497.225C177.757 497.225 178.151 497.295 178.487 497.435C178.828 497.575 179.115 497.764 179.348 498.002C179.586 498.24 179.778 498.513 179.922 498.821C180.067 499.124 180.172 499.449 180.237 499.794C180.303 500.135 180.335 500.475 180.335 500.816V504.974H179.299ZM173.832 504.974V494.894H174.763V500.585H174.868V504.974H173.832ZM184.675 504.967L184.682 504.029L189.239 499.913C189.631 499.558 189.89 499.222 190.016 498.905C190.146 498.583 190.212 498.247 190.212 497.897C190.212 497.482 190.114 497.106 189.918 496.77C189.722 496.434 189.458 496.168 189.127 495.972C188.795 495.771 188.424 495.671 188.014 495.671C187.584 495.671 187.202 495.774 186.866 495.979C186.53 496.184 186.264 496.455 186.068 496.791C185.876 497.127 185.783 497.493 185.788 497.89H184.738C184.738 497.279 184.882 496.73 185.172 496.245C185.461 495.76 185.853 495.379 186.348 495.104C186.842 494.824 187.402 494.684 188.028 494.684C188.639 494.684 189.187 494.829 189.673 495.118C190.163 495.403 190.548 495.79 190.828 496.28C191.112 496.765 191.255 497.307 191.255 497.904C191.255 498.324 191.203 498.695 191.101 499.017C191.003 499.334 190.846 499.631 190.632 499.906C190.422 500.177 190.153 500.457 189.827 500.746L185.781 504.4L185.62 503.98H191.255V504.967H184.675Z" fill="#808080"/>
<path d="M262.911 504.974V494.894H263.856L267.818 503.371L271.759 494.894H272.718V504.967H271.738V497.19L268.147 504.974H267.482L263.898 497.19V504.974H262.911ZM277.839 505.184C277.088 505.184 276.446 505.014 275.914 504.673C275.382 504.332 274.974 503.861 274.689 503.259C274.404 502.657 274.262 501.966 274.262 501.187C274.262 500.394 274.407 499.698 274.696 499.101C274.985 498.504 275.396 498.039 275.928 497.708C276.465 497.372 277.102 497.204 277.839 497.204C278.595 497.204 279.239 497.374 279.771 497.715C280.308 498.051 280.716 498.52 280.996 499.122C281.281 499.719 281.423 500.408 281.423 501.187C281.423 501.98 281.281 502.678 280.996 503.28C280.711 503.877 280.301 504.344 279.764 504.68C279.227 505.016 278.586 505.184 277.839 505.184ZM277.839 504.197C278.679 504.197 279.304 503.919 279.715 503.364C280.126 502.804 280.331 502.078 280.331 501.187C280.331 500.272 280.123 499.544 279.708 499.003C279.297 498.462 278.674 498.191 277.839 498.191C277.274 498.191 276.808 498.319 276.439 498.576C276.075 498.828 275.802 499.18 275.62 499.633C275.443 500.081 275.354 500.599 275.354 501.187C275.354 502.097 275.564 502.827 275.984 503.378C276.404 503.924 277.022 504.197 277.839 504.197ZM288.427 504.974V501.117C288.427 500.697 288.388 500.312 288.308 499.962C288.229 499.607 288.101 499.299 287.923 499.038C287.751 498.772 287.524 498.567 287.244 498.422C286.969 498.277 286.633 498.205 286.236 498.205C285.872 498.205 285.55 498.268 285.27 498.394C284.995 498.52 284.762 498.702 284.57 498.94C284.384 499.173 284.241 499.458 284.143 499.794C284.045 500.13 283.996 500.513 283.996 500.942L283.268 500.781C283.268 500.006 283.404 499.355 283.674 498.828C283.945 498.301 284.318 497.902 284.794 497.631C285.27 497.36 285.816 497.225 286.432 497.225C286.885 497.225 287.279 497.295 287.615 497.435C287.956 497.575 288.243 497.764 288.476 498.002C288.714 498.24 288.906 498.513 289.05 498.821C289.195 499.124 289.3 499.449 289.365 499.794C289.431 500.135 289.463 500.475 289.463 500.816V504.974H288.427ZM282.96 504.974V497.414H283.891V499.276H283.996V504.974H282.96ZM295.396 504.974C294.971 505.063 294.551 505.098 294.136 505.079C293.725 505.06 293.356 504.972 293.03 504.813C292.708 504.654 292.463 504.407 292.295 504.071C292.159 503.791 292.085 503.509 292.071 503.224C292.061 502.935 292.057 502.606 292.057 502.237V495.314H293.079V502.195C293.079 502.512 293.081 502.778 293.086 502.993C293.095 503.203 293.144 503.39 293.233 503.553C293.401 503.866 293.667 504.052 294.031 504.113C294.399 504.174 294.854 504.16 295.396 504.071V504.974ZM290.44 498.296V497.414H295.396V498.296H290.44ZM302.345 504.974V501.117C302.345 500.697 302.306 500.312 302.226 499.962C302.147 499.607 302.019 499.299 301.841 499.038C301.669 498.772 301.442 498.567 301.162 498.422C300.887 498.277 300.551 498.205 300.154 498.205C299.79 498.205 299.468 498.268 299.188 498.394C298.913 498.52 298.68 498.702 298.488 498.94C298.302 499.173 298.159 499.458 298.061 499.794C297.963 500.13 297.914 500.513 297.914 500.942L297.186 500.781C297.186 500.006 297.322 499.355 297.592 498.828C297.863 498.301 298.236 497.902 298.712 497.631C299.188 497.36 299.734 497.225 300.35 497.225C300.803 497.225 301.197 497.295 301.533 497.435C301.874 497.575 302.161 497.764 302.394 498.002C302.632 498.24 302.824 498.513 302.968 498.821C303.113 499.124 303.218 499.449 303.283 499.794C303.349 500.135 303.381 500.475 303.381 500.816V504.974H302.345ZM296.878 504.974V494.894H297.809V500.585H297.914V504.974H296.878ZM310.71 505.177C310.21 505.177 309.751 505.088 309.331 504.911C308.911 504.734 308.549 504.482 308.246 504.155C307.942 503.824 307.721 503.429 307.581 502.972L308.561 502.678C308.729 503.177 309.004 503.555 309.387 503.812C309.774 504.069 310.21 504.192 310.696 504.183C311.144 504.174 311.529 504.073 311.851 503.882C312.177 503.691 312.427 503.425 312.6 503.084C312.772 502.743 312.859 502.349 312.859 501.901C312.859 501.215 312.658 500.664 312.257 500.249C311.86 499.829 311.335 499.619 310.682 499.619C310.5 499.619 310.308 499.645 310.108 499.696C309.907 499.743 309.72 499.81 309.548 499.899L309.03 499.08L312.95 495.461L313.118 495.881H307.98V494.894H313.804V495.895L310.388 499.157L310.374 498.751C311.074 498.662 311.69 498.742 312.222 498.989C312.754 499.236 313.169 499.614 313.468 500.123C313.771 500.627 313.923 501.22 313.923 501.901C313.923 502.545 313.783 503.114 313.503 503.609C313.227 504.099 312.847 504.484 312.362 504.764C311.876 505.039 311.326 505.177 310.71 505.177Z" fill="#808080"/>
<path d="M386.574 504.974V494.894H387.519L391.481 503.371L395.422 494.894H396.381V504.967H395.401V497.19L391.81 504.974H391.145L387.561 497.19V504.974H386.574ZM401.502 505.184C400.751 505.184 400.109 505.014 399.577 504.673C399.045 504.332 398.637 503.861 398.352 503.259C398.068 502.657 397.925 501.966 397.925 501.187C397.925 500.394 398.07 499.698 398.359 499.101C398.649 498.504 399.059 498.039 399.591 497.708C400.128 497.372 400.765 497.204 401.502 497.204C402.258 497.204 402.902 497.374 403.434 497.715C403.971 498.051 404.379 498.52 404.659 499.122C404.944 499.719 405.086 500.408 405.086 501.187C405.086 501.98 404.944 502.678 404.659 503.28C404.375 503.877 403.964 504.344 403.427 504.68C402.891 505.016 402.249 505.184 401.502 505.184ZM401.502 504.197C402.342 504.197 402.968 503.919 403.378 503.364C403.789 502.804 403.994 502.078 403.994 501.187C403.994 500.272 403.787 499.544 403.371 499.003C402.961 498.462 402.338 498.191 401.502 498.191C400.938 498.191 400.471 498.319 400.102 498.576C399.738 498.828 399.465 499.18 399.283 499.633C399.106 500.081 399.017 500.599 399.017 501.187C399.017 502.097 399.227 502.827 399.647 503.378C400.067 503.924 400.686 504.197 401.502 504.197ZM412.09 504.974V501.117C412.09 500.697 412.051 500.312 411.971 499.962C411.892 499.607 411.764 499.299 411.586 499.038C411.414 498.772 411.187 498.567 410.907 498.422C410.632 498.277 410.296 498.205 409.899 498.205C409.535 498.205 409.213 498.268 408.933 498.394C408.658 498.52 408.425 498.702 408.233 498.94C408.047 499.173 407.904 499.458 407.806 499.794C407.708 500.13 407.659 500.513 407.659 500.942L406.931 500.781C406.931 500.006 407.067 499.355 407.337 498.828C407.608 498.301 407.981 497.902 408.457 497.631C408.933 497.36 409.479 497.225 410.095 497.225C410.548 497.225 410.942 497.295 411.278 497.435C411.619 497.575 411.906 497.764 412.139 498.002C412.377 498.24 412.569 498.513 412.713 498.821C412.858 499.124 412.963 499.449 413.028 499.794C413.094 500.135 413.126 500.475 413.126 500.816V504.974H412.09ZM406.623 504.974V497.414H407.554V499.276H407.659V504.974H406.623ZM419.059 504.974C418.634 505.063 418.214 505.098 417.799 505.079C417.388 505.06 417.02 504.972 416.693 504.813C416.371 504.654 416.126 504.407 415.958 504.071C415.823 503.791 415.748 503.509 415.734 503.224C415.725 502.935 415.72 502.606 415.72 502.237V495.314H416.742V502.195C416.742 502.512 416.744 502.778 416.749 502.993C416.758 503.203 416.807 503.39 416.896 503.553C417.064 503.866 417.33 504.052 417.694 504.113C418.063 504.174 418.518 504.16 419.059 504.071V504.974ZM414.103 498.296V497.414H419.059V498.296H414.103ZM426.008 504.974V501.117C426.008 500.697 425.969 500.312 425.889 499.962C425.81 499.607 425.682 499.299 425.504 499.038C425.332 498.772 425.105 498.567 424.825 498.422C424.55 498.277 424.214 498.205 423.817 498.205C423.453 498.205 423.131 498.268 422.851 498.394C422.576 498.52 422.343 498.702 422.151 498.94C421.965 499.173 421.822 499.458 421.724 499.794C421.626 500.13 421.577 500.513 421.577 500.942L420.849 500.781C420.849 500.006 420.985 499.355 421.255 498.828C421.526 498.301 421.899 497.902 422.375 497.631C422.851 497.36 423.397 497.225 424.013 497.225C424.466 497.225 424.86 497.295 425.196 497.435C425.537 497.575 425.824 497.764 426.057 498.002C426.295 498.24 426.487 498.513 426.631 498.821C426.776 499.124 426.881 499.449 426.946 499.794C427.012 500.135 427.044 500.475 427.044 500.816V504.974H426.008ZM420.541 504.974V494.894H421.472V500.585H421.577V504.974H420.541ZM436.102 504.974V503.021H431.384V502.041L434.758 494.894H435.913L432.539 502.041H436.102V499.101H437.138V502.041H438.237V503.021H437.138V504.974H436.102Z" fill="#808080"/>
<path d="M509.395 504.974V494.894H510.34L514.302 503.371L518.243 494.894H519.202V504.967H518.222V497.19L514.631 504.974H513.966L510.382 497.19V504.974H509.395ZM524.324 505.184C523.572 505.184 522.931 505.014 522.399 504.673C521.867 504.332 521.458 503.861 521.174 503.259C520.889 502.657 520.747 501.966 520.747 501.187C520.747 500.394 520.891 499.698 521.181 499.101C521.47 498.504 521.881 498.039 522.413 497.708C522.949 497.372 523.586 497.204 524.324 497.204C525.08 497.204 525.724 497.374 526.256 497.715C526.792 498.051 527.201 498.52 527.481 499.122C527.765 499.719 527.908 500.408 527.908 501.187C527.908 501.98 527.765 502.678 527.481 503.28C527.196 503.877 526.785 504.344 526.249 504.68C525.712 505.016 525.07 505.184 524.324 505.184ZM524.324 504.197C525.164 504.197 525.789 503.919 526.2 503.364C526.61 502.804 526.816 502.078 526.816 501.187C526.816 500.272 526.608 499.544 526.193 499.003C525.782 498.462 525.159 498.191 524.324 498.191C523.759 498.191 523.292 498.319 522.924 498.576C522.56 498.828 522.287 499.18 522.105 499.633C521.927 500.081 521.839 500.599 521.839 501.187C521.839 502.097 522.049 502.827 522.469 503.378C522.889 503.924 523.507 504.197 524.324 504.197ZM534.912 504.974V501.117C534.912 500.697 534.872 500.312 534.793 499.962C534.713 499.607 534.585 499.299 534.408 499.038C534.235 498.772 534.009 498.567 533.729 498.422C533.453 498.277 533.117 498.205 532.721 498.205C532.357 498.205 532.035 498.268 531.755 498.394C531.479 498.52 531.246 498.702 531.055 498.94C530.868 499.173 530.726 499.458 530.628 499.794C530.53 500.13 530.481 500.513 530.481 500.942L529.753 500.781C529.753 500.006 529.888 499.355 530.159 498.828C530.429 498.301 530.803 497.902 531.279 497.631C531.755 497.36 532.301 497.225 532.917 497.225C533.369 497.225 533.764 497.295 534.1 497.435C534.44 497.575 534.727 497.764 534.961 498.002C535.199 498.24 535.39 498.513 535.535 498.821C535.679 499.124 535.784 499.449 535.85 499.794C535.915 500.135 535.948 500.475 535.948 500.816V504.974H534.912ZM529.445 504.974V497.414H530.376V499.276H530.481V504.974H529.445ZM541.88 504.974C541.456 505.063 541.036 505.098 540.62 505.079C540.21 505.06 539.841 504.972 539.514 504.813C539.192 504.654 538.947 504.407 538.779 504.071C538.644 503.791 538.569 503.509 538.555 503.224C538.546 502.935 538.541 502.606 538.541 502.237V495.314H539.563V502.195C539.563 502.512 539.566 502.778 539.57 502.993C539.58 503.203 539.629 503.39 539.717 503.553C539.885 503.866 540.151 504.052 540.515 504.113C540.884 504.174 541.339 504.16 541.88 504.071V504.974ZM536.924 498.296V497.414H541.88V498.296H536.924ZM548.83 504.974V501.117C548.83 500.697 548.79 500.312 548.711 499.962C548.631 499.607 548.503 499.299 548.326 499.038C548.153 498.772 547.927 498.567 547.647 498.422C547.371 498.277 547.035 498.205 546.639 498.205C546.275 498.205 545.953 498.268 545.673 498.394C545.397 498.52 545.164 498.702 544.973 498.94C544.786 499.173 544.644 499.458 544.546 499.794C544.448 500.13 544.399 500.513 544.399 500.942L543.671 500.781C543.671 500.006 543.806 499.355 544.077 498.828C544.347 498.301 544.721 497.902 545.197 497.631C545.673 497.36 546.219 497.225 546.835 497.225C547.287 497.225 547.682 497.295 548.018 497.435C548.358 497.575 548.645 497.764 548.879 498.002C549.117 498.24 549.308 498.513 549.453 498.821C549.597 499.124 549.702 499.449 549.768 499.794C549.833 500.135 549.866 500.475 549.866 500.816V504.974H548.83ZM543.363 504.974V494.894H544.294V500.585H544.399V504.974H543.363ZM557.46 505.184C556.937 505.184 556.454 505.077 556.011 504.862C555.568 504.647 555.19 504.351 554.877 503.973C554.564 503.595 554.34 503.161 554.205 502.671L555.192 502.405C555.281 502.769 555.442 503.084 555.675 503.35C555.908 503.611 556.181 503.814 556.494 503.959C556.811 504.104 557.143 504.176 557.488 504.176C557.936 504.176 558.337 504.069 558.692 503.854C559.051 503.635 559.336 503.345 559.546 502.986C559.756 502.627 559.861 502.232 559.861 501.803C559.861 501.36 559.751 500.961 559.532 500.606C559.313 500.247 559.023 499.962 558.664 499.752C558.305 499.542 557.913 499.437 557.488 499.437C557.012 499.437 556.601 499.542 556.256 499.752C555.911 499.957 555.635 500.216 555.43 500.529L554.492 500.137L554.8 494.894H560.183V495.881H555.255L555.766 495.398L555.493 499.871L555.234 499.528C555.523 499.197 555.873 498.938 556.284 498.751C556.695 498.564 557.126 498.471 557.579 498.471C558.2 498.471 558.76 498.62 559.259 498.919C559.758 499.213 560.155 499.612 560.449 500.116C560.743 500.62 560.89 501.182 560.89 501.803C560.89 502.419 560.734 502.984 560.421 503.497C560.108 504.006 559.693 504.414 559.175 504.722C558.657 505.03 558.085 505.184 557.46 505.184Z" fill="#808080"/>
<defs>
<linearGradient id="paint0_linear_40_131" x1="296.5" y1="7.01819" x2="296.5" y2="451.17" gradientUnits="userSpaceOnUse">
<stop stop-color="#FFCDB7"/>
<stop offset="1" stop-color="#FFCDB7" stop-opacity="0"/>
</linearGradient>
</defs>
</svg>
