<svg width="23" height="22" viewBox="0 0 23 22" fill="none" xmlns="http://www.w3.org/2000/svg">
<g clip-path="url(#clip0_193_504)">
<path d="M11.041 5.34286C10.258 5.34286 9.52279 5.48571 8.83529 5.77143C8.14778 6.07619 7.551 6.48095 7.04492 6.98571C6.53884 7.49048 6.13303 8.08571 5.82747 8.77143C5.54101 9.45715 5.39779 10.1905 5.39779 10.9714C5.39779 11.7524 5.54101 12.4857 5.82747 13.1714C6.13303 13.8571 6.53884 14.4524 7.04492 14.9571C7.551 15.4619 8.14778 15.8667 8.83529 16.1714C9.52279 16.4571 10.258 16.6 11.041 16.6C11.824 16.6 12.5592 16.4571 13.2467 16.1714C13.9342 15.8667 14.531 15.4619 15.0371 14.9571C15.5432 14.4524 15.949 13.8571 16.2546 13.1714C16.541 12.4857 16.6842 11.7524 16.6842 10.9714C16.6842 10.1905 16.541 9.45715 16.2546 8.77143C15.949 8.08571 15.5432 7.49048 15.0371 6.98571C14.531 6.48095 13.9342 6.07619 13.2467 5.77143C12.5592 5.48571 11.824 5.34286 11.041 5.34286ZM11.041 14.6286C10.0289 14.6286 9.16472 14.2714 8.44857 13.5571C7.73242 12.8429 7.37435 11.981 7.37435 10.9714C7.37435 9.9619 7.73242 9.1 8.44857 8.38571C9.16472 7.67143 10.0289 7.31429 11.041 7.31429C12.0532 7.31429 12.9173 7.67143 13.6335 8.38571C14.3496 9.1 14.7077 9.9619 14.7077 10.9714C14.7077 11.981 14.3496 12.8429 13.6335 13.5571C12.9173 14.2714 12.0532 14.6286 11.041 14.6286ZM18.2311 5.11429C18.2311 4.75238 18.1022 4.44762 17.8444 4.2C17.5866 3.95238 17.2763 3.82857 16.9134 3.82857C16.5506 3.82857 16.2402 3.95238 15.9824 4.2C15.7246 4.44762 15.5957 4.75238 15.5957 5.11429C15.5957 5.49524 15.7246 5.80952 15.9824 6.05714C16.2402 6.30476 16.5506 6.42857 16.9134 6.42857C17.2763 6.42857 17.5866 6.30476 17.8444 6.05714C18.1022 5.80952 18.2311 5.49524 18.2311 5.11429ZM21.4681 3.8C21.1816 3.05714 20.7567 2.40476 20.1934 1.84286C19.63 1.28095 18.9855 0.857144 18.2598 0.571429C17.8205 0.419047 17.3765 0.3 16.9277 0.214285C16.4789 0.128571 16.0254 0.0857143 15.5671 0.0857143C14.9941 0.047619 14.469 0.0238098 13.9915 0.014286C13.5141 0.0047616 12.5306 0 11.041 0C9.55142 0 8.56793 0.0047616 8.0905 0.014286C7.61306 0.0238098 7.08789 0.047619 6.51497 0.0857143C6.05664 0.0857143 5.60308 0.128571 5.1543 0.214285C4.70551 0.3 4.27105 0.419047 3.85091 0.571429C3.10612 0.857144 2.45204 1.28095 1.88867 1.84286C1.3253 2.40476 0.900392 3.05714 0.613932 3.8C0.461154 4.21905 0.341797 4.65238 0.255859 5.1C0.169922 5.54762 0.117405 6 0.0983073 6.45714C0.0792101 7.04762 0.0648875 7.57619 0.0553388 8.04286C0.0457896 8.50953 0.0410156 9.48571 0.0410156 10.9714C0.0410156 12.4572 0.0457896 13.4381 0.0553388 13.9143C0.0648875 14.3905 0.0792101 14.9238 0.0983073 15.5143C0.117405 15.9714 0.169922 16.419 0.255859 16.8571C0.341797 17.2952 0.461154 17.7333 0.613932 18.1714C0.900392 18.9143 1.3253 19.5619 1.88867 20.1143C2.45204 20.6667 3.10612 21.0857 3.85091 21.3714C4.27105 21.5429 4.70551 21.6762 5.1543 21.7714C5.60308 21.8667 6.05664 21.9143 6.51497 21.9143C7.10699 21.9524 7.63693 21.9762 8.10482 21.9857C8.5727 21.9952 9.55142 22 11.041 22C12.5306 22 13.5141 21.9952 13.9915 21.9857C14.469 21.9762 15.0037 21.9524 15.5957 21.9143C16.0349 21.9143 16.4789 21.8714 16.9277 21.7857C17.3765 21.7 17.8205 21.581 18.2598 21.4286C19.0046 21.1429 19.6539 20.7191 20.2077 20.1571C20.7615 19.5952 21.1816 18.9429 21.4681 18.2C21.64 17.781 21.7689 17.3476 21.8548 16.9C21.9408 16.4524 21.9837 16 21.9837 15.5429C22.0028 14.9524 22.0171 14.4238 22.0267 13.9571C22.0362 13.4905 22.041 12.5143 22.041 11.0286C22.041 9.5238 22.041 8.5381 22.041 8.07143C22.041 7.60476 22.0219 7.07619 21.9837 6.48571C21.9837 6.02857 21.9408 5.57143 21.8548 5.11429C21.7689 4.65714 21.64 4.21905 21.4681 3.8ZM19.9785 15.4C19.9785 15.7619 19.9451 16.1143 19.8783 16.4571C19.8114 16.8 19.7207 17.1333 19.6061 17.4571C19.4151 17.9524 19.1382 18.381 18.7754 18.7429C18.4125 19.1048 17.9924 19.3714 17.515 19.5429C17.1903 19.6762 16.8561 19.7714 16.5124 19.8286C16.1686 19.8857 15.8249 19.9238 15.4811 19.9429C14.8891 19.9619 14.3687 19.9762 13.9199 19.9857C13.4711 19.9952 12.502 20 11.0124 20C9.52278 20 8.5536 19.9952 8.10482 19.9857C7.65603 19.9762 7.13564 19.9619 6.54362 19.9429C6.18077 19.9429 5.83225 19.9095 5.49805 19.8429C5.16384 19.7762 4.82487 19.6762 4.48112 19.5429C4.00369 19.3714 3.58355 19.1048 3.2207 18.7429C2.85785 18.381 2.58095 17.9524 2.38997 17.4571C2.27539 17.1333 2.18468 16.8 2.11784 16.4571C2.051 16.1143 2.01758 15.7714 2.01758 15.4286C1.97938 14.8571 1.96029 14.3429 1.96029 13.8857C1.96029 13.4286 1.96029 12.4572 1.96029 10.9714C1.96029 9.48571 1.96029 8.51905 1.96029 8.07143C1.96029 7.62381 1.97938 7.10477 2.01758 6.51429C2.01758 6.17143 2.051 5.82857 2.11784 5.48571C2.18468 5.14286 2.27539 4.8 2.38997 4.45714C2.58095 3.98095 2.85785 3.56191 3.2207 3.2C3.58355 2.83809 4.00369 2.56191 4.48112 2.37143C4.82487 2.25714 5.16384 2.16667 5.49805 2.1C5.83225 2.03333 6.18077 2 6.54362 2C7.11654 1.98095 7.63216 1.96667 8.0905 1.95714C8.54883 1.94762 9.52278 1.94286 11.0124 1.94286C12.502 1.94286 13.4711 1.94286 13.9199 1.94286C14.3687 1.94286 14.8891 1.9619 15.4811 2C15.8249 2 16.1686 2.03333 16.5124 2.1C16.8561 2.16667 17.1903 2.25714 17.515 2.37143C17.9924 2.56191 18.4125 2.83809 18.7754 3.2C19.1382 3.56191 19.4151 3.98095 19.6061 4.45714C19.7207 4.8 19.8114 5.13809 19.8783 5.47143C19.9451 5.80476 19.9785 6.15238 19.9785 6.51429C19.9976 7.08572 20.0119 7.6 20.0215 8.05714C20.031 8.51429 20.0358 9.48571 20.0358 10.9714C20.0358 12.4572 20.0358 13.4238 20.0358 13.8714C20.0358 14.3191 20.0263 14.8286 20.0072 15.4H19.9785Z" fill="#1B1B1B"/>
</g>
<defs>
<clipPath id="clip0_193_504">
<rect width="22" height="22" fill="white" transform="translate(0.0410156)"/>
</clipPath>
</defs>
</svg>
