<svg width="23" height="22" viewBox="0 0 23 22" fill="none" xmlns="http://www.w3.org/2000/svg">
<g clip-path="url(#clip0_65_837)">
<path d="M11.5 5.34286C10.717 5.34286 9.98177 5.48571 9.29427 5.77143C8.60677 6.07619 8.00999 6.48095 7.50391 6.98571C6.99783 7.49048 6.59202 8.08571 6.28646 8.77143C6 9.45715 5.85677 10.1905 5.85677 10.9714C5.85677 11.7524 6 12.4857 6.28646 13.1714C6.59202 13.8571 6.99783 14.4524 7.50391 14.9571C8.00999 15.4619 8.60677 15.8667 9.29427 16.1714C9.98177 16.4571 10.717 16.6 11.5 16.6C12.283 16.6 13.0182 16.4571 13.7057 16.1714C14.3932 15.8667 14.99 15.4619 15.4961 14.9571C16.0022 14.4524 16.408 13.8571 16.7135 13.1714C17 12.4857 17.1432 11.7524 17.1432 10.9714C17.1432 10.1905 17 9.45715 16.7135 8.77143C16.408 8.08571 16.0022 7.49048 15.4961 6.98571C14.99 6.48095 14.3932 6.07619 13.7057 5.77143C13.0182 5.48571 12.283 5.34286 11.5 5.34286ZM11.5 14.6286C10.4878 14.6286 9.6237 14.2714 8.90755 13.5571C8.1914 12.8429 7.83333 11.981 7.83333 10.9714C7.83333 9.9619 8.1914 9.1 8.90755 8.38571C9.6237 7.67143 10.4878 7.31429 11.5 7.31429C12.5122 7.31429 13.3763 7.67143 14.0924 8.38571C14.8086 9.1 15.1667 9.9619 15.1667 10.9714C15.1667 11.981 14.8086 12.8429 14.0924 13.5571C13.3763 14.2714 12.5122 14.6286 11.5 14.6286ZM18.6901 5.11429C18.6901 4.75238 18.5612 4.44762 18.3034 4.2C18.0456 3.95238 17.7352 3.82857 17.3724 3.82857C17.0095 3.82857 16.6992 3.95238 16.4414 4.2C16.1836 4.44762 16.0547 4.75238 16.0547 5.11429C16.0547 5.49524 16.1836 5.80952 16.4414 6.05714C16.6992 6.30476 17.0095 6.42857 17.3724 6.42857C17.7352 6.42857 18.0456 6.30476 18.3034 6.05714C18.5612 5.80952 18.6901 5.49524 18.6901 5.11429ZM21.9271 3.8C21.6406 3.05714 21.2157 2.40476 20.6523 1.84286C20.089 1.28095 19.4444 0.857144 18.7188 0.571429C18.2795 0.419047 17.8355 0.3 17.3867 0.214285C16.9379 0.128571 16.4844 0.0857143 16.026 0.0857143C15.4531 0.047619 14.928 0.0238098 14.4505 0.014286C13.9731 0.0047616 12.9896 0 11.5 0C10.0104 0 9.02691 0.0047616 8.54948 0.014286C8.07205 0.0238098 7.54688 0.047619 6.97396 0.0857143C6.51562 0.0857143 6.06207 0.128571 5.61328 0.214285C5.16449 0.3 4.73004 0.419047 4.3099 0.571429C3.5651 0.857144 2.91103 1.28095 2.34766 1.84286C1.78429 2.40476 1.35938 3.05714 1.07292 3.8C0.920138 4.21905 0.800782 4.65238 0.714843 5.1C0.628906 5.54762 0.576389 6 0.557292 6.45714C0.538194 7.04762 0.523872 7.57619 0.514323 8.04286C0.504774 8.50953 0.5 9.48571 0.5 10.9714C0.5 12.4572 0.504774 13.4381 0.514323 13.9143C0.523872 14.3905 0.538194 14.9238 0.557292 15.5143C0.576389 15.9714 0.628906 16.419 0.714843 16.8571C0.800782 17.2952 0.920138 17.7333 1.07292 18.1714C1.35938 18.9143 1.78429 19.5619 2.34766 20.1143C2.91103 20.6667 3.5651 21.0857 4.3099 21.3714C4.73004 21.5429 5.16449 21.6762 5.61328 21.7714C6.06207 21.8667 6.51562 21.9143 6.97396 21.9143C7.56598 21.9524 8.09592 21.9762 8.5638 21.9857C9.03169 21.9952 10.0104 22 11.5 22C12.9896 22 13.9731 21.9952 14.4505 21.9857C14.928 21.9762 15.4627 21.9524 16.0547 21.9143C16.4939 21.9143 16.9379 21.8714 17.3867 21.7857C17.8355 21.7 18.2795 21.581 18.7188 21.4286C19.4635 21.1429 20.1128 20.7191 20.6667 20.1571C21.2205 19.5952 21.6406 18.9429 21.9271 18.2C22.099 17.781 22.2279 17.3476 22.3138 16.9C22.3997 16.4524 22.4427 16 22.4427 15.5429C22.4618 14.9524 22.4761 14.4238 22.4857 13.9571C22.4952 13.4905 22.5 12.5143 22.5 11.0286C22.5 9.5238 22.5 8.5381 22.5 8.07143C22.5 7.60476 22.4809 7.07619 22.4427 6.48571C22.4427 6.02857 22.3997 5.57143 22.3138 5.11429C22.2279 4.65714 22.099 4.21905 21.9271 3.8ZM20.4375 15.4C20.4375 15.7619 20.4041 16.1143 20.3372 16.4571C20.2704 16.8 20.1797 17.1333 20.0651 17.4571C19.8741 17.9524 19.5972 18.381 19.2344 18.7429C18.8715 19.1048 18.4514 19.3714 17.974 19.5429C17.6493 19.6762 17.3151 19.7714 16.9714 19.8286C16.6276 19.8857 16.2839 19.9238 15.9401 19.9429C15.3481 19.9619 14.8277 19.9762 14.3789 19.9857C13.9301 19.9952 12.9609 20 11.4714 20C9.98176 20 9.01259 19.9952 8.5638 19.9857C8.11502 19.9762 7.59462 19.9619 7.0026 19.9429C6.63976 19.9429 6.29123 19.9095 5.95703 19.8429C5.62283 19.7762 5.28386 19.6762 4.9401 19.5429C4.46267 19.3714 4.04254 19.1048 3.67969 18.7429C3.31684 18.381 3.03993 17.9524 2.84896 17.4571C2.73437 17.1333 2.64366 16.8 2.57682 16.4571C2.50998 16.1143 2.47656 15.7714 2.47656 15.4286C2.43837 14.8571 2.41927 14.3429 2.41927 13.8857C2.41927 13.4286 2.41927 12.4572 2.41927 10.9714C2.41927 9.48571 2.41927 8.51905 2.41927 8.07143C2.41927 7.62381 2.43837 7.10477 2.47656 6.51429C2.47656 6.17143 2.50998 5.82857 2.57682 5.48571C2.64366 5.14286 2.73437 4.8 2.84896 4.45714C3.03993 3.98095 3.31684 3.56191 3.67969 3.2C4.04254 2.83809 4.46267 2.56191 4.9401 2.37143C5.28386 2.25714 5.62283 2.16667 5.95703 2.1C6.29123 2.03333 6.63976 2 7.0026 2C7.57552 1.98095 8.09114 1.96667 8.54948 1.95714C9.00781 1.94762 9.98176 1.94286 11.4714 1.94286C12.9609 1.94286 13.9301 1.94286 14.3789 1.94286C14.8277 1.94286 15.3481 1.9619 15.9401 2C16.2839 2 16.6276 2.03333 16.9714 2.1C17.3151 2.16667 17.6493 2.25714 17.974 2.37143C18.4514 2.56191 18.8715 2.83809 19.2344 3.2C19.5972 3.56191 19.8741 3.98095 20.0651 4.45714C20.1797 4.8 20.2704 5.13809 20.3372 5.47143C20.4041 5.80476 20.4375 6.15238 20.4375 6.51429C20.4566 7.08572 20.4709 7.6 20.4805 8.05714C20.49 8.51429 20.4948 9.48571 20.4948 10.9714C20.4948 12.4572 20.4948 13.4238 20.4948 13.8714C20.4948 14.3191 20.4852 14.8286 20.4661 15.4H20.4375Z" fill="#273F32"/>
</g>
<defs>
<clipPath id="clip0_65_837">
<rect width="22" height="22" fill="white" transform="translate(0.5)"/>
</clipPath>
</defs>
</svg>
