<svg width="310" height="155" viewBox="0 0 310 155" fill="none" xmlns="http://www.w3.org/2000/svg">
<path d="M78.7658 111.94H81.3084C82.5997 111.94 83.2153 111.483 83.2153 110.518C83.2153 109.554 82.5997 109.156 81.3481 109.156H78.7658V111.94ZM78.7658 113.093V116.791H77.3355V108.053H81.666C83.5133 108.053 84.7152 108.918 84.7152 110.469C84.7513 110.952 84.6097 111.432 84.317 111.819C84.0243 112.205 83.6008 112.471 83.1261 112.566C83.6526 112.715 84.4767 113.133 84.4767 114.684V115.081C84.452 115.67 84.4852 116.259 84.5762 116.841H83.0862C82.9673 116.249 82.9272 115.644 82.9671 115.042V114.743C82.9671 113.54 82.5103 113.143 81.0403 113.143L78.7658 113.093ZM94.6677 112.785H89.4829V115.588H95.2139L95.0252 116.791H88.023V108.003H94.9358V109.206H89.4829V111.582H94.6677V112.785ZM98.9483 114.206C99.2464 115.2 99.9416 115.847 101.62 115.847C103.299 115.847 103.865 115.24 103.865 114.485C103.865 113.729 103.408 113.192 101.243 112.824C98.5013 112.367 97.8857 111.492 97.8857 110.309C97.8857 108.709 99.4051 107.814 101.352 107.814C104.242 107.814 104.957 109.325 105.057 110.24H103.587C103.418 109.683 103.07 108.937 101.312 108.937C100.11 108.937 99.3257 109.355 99.3257 110.16C99.3257 110.965 99.6833 111.234 101.59 111.562C104.798 112.119 105.325 113.113 105.325 114.336C105.325 115.757 104.183 116.98 101.471 116.98C98.9483 116.98 97.7068 115.827 97.4286 114.206H98.9483ZM110.559 109.206H107.262V108.003H115.287V109.206H112.009V116.791H110.559V109.206ZM121.952 113.073C120.959 110.737 120.452 109.624 120.253 109.007C120.065 109.604 119.498 111.075 118.664 113.073H121.952ZM118.217 114.286L117.224 116.791H115.724L119.439 108.003H121.197L125.07 116.791H123.501L122.399 114.286H118.217ZM128.795 108.053V113.023C128.795 115.23 130.057 115.827 131.318 115.827C132.818 115.827 133.741 115.131 133.741 113.023V108.053H135.192V113.023C135.192 115.847 133.712 117 131.268 117C128.825 117 127.295 115.837 127.295 113.103V108.053H128.795ZM140.277 111.94H142.82C144.111 111.94 144.727 111.483 144.727 110.518C144.727 109.554 144.111 109.156 142.859 109.156H140.277V111.94ZM140.277 113.093V116.791H138.847V108.053H143.177C145.025 108.053 146.226 108.917 146.226 110.468C146.263 110.952 146.121 111.432 145.828 111.819C145.536 112.205 145.112 112.471 144.637 112.566C145.164 112.715 145.988 113.133 145.988 114.684V115.081C145.963 115.67 145.996 116.259 146.087 116.841H144.608C144.479 116.25 144.436 115.644 144.478 115.041V114.743C144.478 113.54 144.022 113.143 142.542 113.143L140.277 113.093ZM154.818 113.073C153.824 110.737 153.318 109.624 153.119 109.007C152.931 109.604 152.365 111.075 151.53 113.073H154.818ZM151.103 114.286L150.05 116.791H148.55L152.265 108.003H154.063L157.937 116.791H156.367L155.265 114.286H151.103ZM160.489 116.791V108.053H162.227C164.322 111.035 166.706 114.127 167.193 115.012C167.103 113.928 167.123 112.477 167.123 111.035V108.053H168.464V116.841H166.885C165.693 115.191 162.405 110.538 161.81 109.524C161.869 110.638 161.869 111.89 161.869 113.441V116.841L160.489 116.791ZM174.483 109.206H171.185V108.003H179.211V109.206H175.933V116.791H174.483V109.206ZM188.398 109.941C188.422 110.246 188.519 110.54 188.682 110.798C188.845 111.056 189.067 111.27 189.331 111.423C190.325 110.955 190.702 110.518 190.702 109.922C190.711 109.769 190.688 109.616 190.632 109.474C190.577 109.331 190.492 109.202 190.383 109.095C190.274 108.989 190.143 108.907 189.999 108.856C189.855 108.804 189.702 108.785 189.55 108.798C189.319 108.783 189.09 108.842 188.895 108.967C188.701 109.092 188.551 109.275 188.468 109.491C188.413 109.635 188.389 109.788 188.398 109.941ZM191.06 114.654L188.765 112.665C187.712 113.202 187.514 113.779 187.514 114.336C187.517 114.636 187.612 114.928 187.787 115.173C187.961 115.417 188.205 115.603 188.488 115.704C188.675 115.771 188.874 115.799 189.073 115.787C189.858 115.787 190.315 115.519 191.06 114.644M195.39 111.075L192.708 114.395L195.469 116.791H193.483L191.894 115.409C191.561 115.892 191.116 116.285 190.596 116.556C190.077 116.826 189.499 116.965 188.914 116.96C188.562 117 188.206 116.967 187.868 116.861C187.529 116.756 187.217 116.581 186.949 116.349C186.682 116.116 186.466 115.83 186.316 115.509C186.165 115.188 186.082 114.839 186.074 114.485C186.074 113.49 186.59 112.775 187.971 111.989C187.674 111.759 187.431 111.465 187.259 111.131C187.088 110.796 186.992 110.427 186.977 110.051C186.983 109.736 187.054 109.425 187.185 109.138C187.316 108.851 187.505 108.594 187.74 108.384C187.975 108.174 188.251 108.015 188.551 107.917C188.85 107.819 189.167 107.784 189.48 107.814C189.931 107.76 190.387 107.849 190.783 108.069C191.18 108.289 191.498 108.629 191.691 109.041C191.819 109.314 191.888 109.61 191.894 109.912C191.894 110.906 191.288 111.463 189.997 112.089L191.795 113.64L193.781 111.085L195.39 111.075ZM204.825 115.648H207.517C208.51 115.648 209.503 115.349 209.503 114.186C209.503 113.192 208.768 112.725 207.517 112.725H204.825V115.648ZM207.427 111.582C208.609 111.582 209.156 111.154 209.156 110.369C209.156 109.584 208.411 109.156 207.457 109.156H204.825V111.582H207.427ZM203.385 108.003H207.775C209.702 108.003 210.665 108.878 210.665 110.22C210.675 110.643 210.542 111.058 210.288 111.397C210.034 111.736 209.674 111.98 209.265 112.089C209.755 112.187 210.196 112.451 210.515 112.837C210.833 113.222 211.009 113.706 211.013 114.206C211.013 115.936 209.613 116.791 207.805 116.791H203.385V108.003ZM219.416 113.073C218.423 110.737 217.916 109.623 217.718 109.007C217.529 109.603 216.963 111.075 216.138 113.073H219.416ZM215.701 114.286L214.649 116.791H213.149L216.864 108.003H218.661L222.545 116.791H220.966L219.863 114.286H215.701ZM226.547 111.94H229.09C230.371 111.94 230.997 111.483 230.997 110.518C230.997 109.554 230.371 109.156 229.12 109.156H226.547V111.94ZM226.547 113.093V116.791H225.107V108.053H229.457C231.305 108.053 232.497 108.918 232.497 110.469C232.533 110.951 232.392 111.43 232.102 111.816C231.811 112.202 231.39 112.468 230.918 112.566C231.434 112.715 232.268 113.133 232.268 114.684V115.081C232.243 115.67 232.277 116.259 232.368 116.841H230.878C230.754 116.25 230.714 115.644 230.758 115.042V114.743C230.758 113.54 230.302 113.143 228.822 113.143L226.547 113.093ZM97.1904 84.9788L99.7429 82.8314V62.5807H94.4292V82.8314L97.1904 84.9788ZM97.1208 38.1052L94.4292 40.3221V59.4891H99.7429V40.3221L97.1208 38.1052ZM107.262 82.8412L110.082 85.1279H84.2587L86.9503 82.8412V40.3221L84.2587 38.0354H109.993L107.301 40.3221L107.262 82.8412ZM113.857 38.0354H131.526V47.8576L128.497 41.1371H124.067V59.4891H125.606L128.437 53.1762V68.7743L125.676 62.5807H124.067V82.0161H128.497L131.526 75.2959V85.1178H113.857L116.538 82.8314V40.3221L113.857 38.0354ZM144.587 82.0384H158.837L162.07 75.3057V85.1276H134.879L152.286 41.1001H139.919L136.676 47.8325V38H162.07L144.587 82.0384ZM205.243 38.0354H216.526L212.364 41.5348L206.653 85.1178H198.588L194.893 57.4809L191.268 85.1178H183.273L177.224 40.3221L174.463 38.0354H187.633L184.812 40.3221L189.52 74.8881L193.344 45.9787L192.609 40.3221L189.788 38.0354H202.958L200.197 40.3221L204.835 74.8881L209.275 41.5348L205.243 38.0354ZM221.373 71.8662H227.759L224.491 50.7509L221.373 71.8662ZM230.044 38.0657L236.996 82.8614L239.757 85.148H226.617L229.438 82.8614L228.226 74.9878H220.906L219.694 82.8614L222.247 85.148H214.112L216.665 82.8614L223.19 40.352L222.515 38.0657H230.044ZM245.965 82.8314L248.517 85.1178H240.323L242.876 82.8314V40.1927L240.194 38.0354H250.136L258.668 64.4696L265.929 38.0354H276L273.05 40.1929V82.8311L275.871 85.1175H262.76L265.521 82.8311V51.8242L256.652 85.3864L245.965 50.5419V82.8314ZM71.933 69.4902C67.4236 75.8625 59.9447 80.545 52.4957 80.545C44.3711 80.545 38.5905 74.9578 38.5905 66.8857C38.5905 54.7172 50.6185 42.8174 62.7157 42.8174C68.9534 42.8174 73.9095 46.307 75.7071 51.7648H79.094C76.8006 46.7769 72.8468 42.7437 67.9103 40.3564C62.972 37.9679 57.3586 37.3729 52.0308 38.6734C46.704 39.973 41.9941 43.0877 38.7077 47.4841C35.4232 51.8784 33.768 57.2812 34.0262 62.7649C34.2849 68.2487 36.4408 73.4714 40.1238 77.5365C43.8088 81.6038 48.7906 84.2611 54.2161 85.0532C59.6423 85.8461 65.1749 84.7248 69.867 81.8815C74.557 79.0398 78.1142 74.652 79.9285 69.4703L71.933 69.4902Z" fill="#273F32"/>
</svg>
