<svg width="310" height="155" viewBox="0 0 310 155" fill="none" xmlns="http://www.w3.org/2000/svg">
<g clip-path="url(#clip0_65_953)">
<mask id="mask0_65_953" style="mask-type:luminance" maskUnits="userSpaceOnUse" x="34" y="43" width="242" height="69">
<path d="M276 43H34V112H276V43Z" fill="white"/>
</mask>
<g mask="url(#mask0_65_953)">
<mask id="mask1_65_953" style="mask-type:luminance" maskUnits="userSpaceOnUse" x="34" y="43" width="242" height="69">
<path d="M276 43H34V112H276V43Z" fill="white"/>
</mask>
<g mask="url(#mask1_65_953)">
<path d="M34.0049 79.2171H56.4083V75.2819H38.4817V63.4793H54.6265V59.5414H38.4817V47.7388H56.4083V43.8037H34.0049V79.2171Z" fill="#273F32"/>
<path d="M54.63 91.0144H34V94.9523H54.63V91.0144Z" fill="#273F32"/>
<path d="M34 106.752L34.0056 110.687H56.4118V106.752H34Z" fill="#273F32"/>
<path d="M276 43.8067H253.594V47.7418H276V43.8067Z" fill="#273F32"/>
<mask id="mask2_65_953" style="mask-type:luminance" maskUnits="userSpaceOnUse" x="34" y="43" width="242" height="69">
<path d="M276 43H34V112H276V43Z" fill="white"/>
</mask>
<g mask="url(#mask2_65_953)">
<path d="M87.7802 107.406C80.8729 107.406 78.8181 102.196 78.8181 96.5684V76.4308C81.0873 78.3669 84.1273 79.5073 87.7802 79.5073C91.4328 79.5073 94.4619 78.3669 96.7392 76.4308V96.5684C96.7392 102.196 94.6875 107.406 87.7802 107.406ZM96.7392 64.6418C96.7392 70.2724 94.6875 75.479 87.7802 75.479C80.8729 75.479 78.8237 70.2724 78.8237 64.6418V43.8204H74.333V98.2833C74.333 105.628 79.5366 111.431 87.7802 111.431C96.0238 111.431 101.221 105.628 101.221 98.2833V43.8204H96.7392V64.6418Z" fill="#273F32"/>
</g>
<path d="M208.776 78.9602V53.4271L231.185 75.9932V101.521L208.776 78.9602ZM204.296 43V110.687H208.776V84.8726L235.67 112V43.8204H231.185V70.0728L204.296 43Z" fill="#273F32"/>
<path d="M276 59.5449H255.409V63.4801H276V59.5449Z" fill="#273F32"/>
<path d="M253.594 75.2852V110.693H276V106.755H258.073V94.9526H274.221V91.0147H258.073V79.2203H276V75.2852H253.594Z" fill="#273F32"/>
<mask id="mask3_65_953" style="mask-type:luminance" maskUnits="userSpaceOnUse" x="34" y="43" width="242" height="69">
<path d="M276 43H34V112H276V43Z" fill="white"/>
</mask>
<g mask="url(#mask3_65_953)">
<path d="M132.598 63.4823H141.557V91.0144H132.598V94.9578H141.557V96.5769C141.557 102.207 139.534 107.414 132.621 107.414C125.708 107.414 123.647 102.207 123.631 96.5985V58.1225C123.631 52.4919 125.708 47.0199 132.615 47.0199C136.585 47.0199 139.678 49.2677 140.984 51.7945L144.951 49.935C144.235 48.5916 143.302 47.3715 142.187 46.3226C139.383 43.8204 136.27 43 132.615 43C128.959 43 125.908 44.1403 123.631 46.0764C120.774 48.4993 119.148 52.1665 119.148 56.4024V98.048C119.148 102.265 120.774 105.935 123.631 108.355C125.911 110.291 128.965 111.431 132.621 111.431C136.276 111.431 139.33 110.291 141.608 108.355C144.461 105.935 146.04 102.027 146.04 97.8046V59.5445H132.598V63.4823Z" fill="#273F32"/>
</g>
<path d="M184.588 106.752H163.963V110.687H184.588V106.752Z" fill="#273F32"/>
<path d="M184.588 43.8066H163.963V47.7418H184.588V43.8066Z" fill="#273F32"/>
<path d="M163.963 94.9499H186.375V91.0147H168.443V79.2204H184.588V75.2852H168.443V63.4826H186.375V59.542H163.963V94.9499Z" fill="#273F32"/>
</g>
</g>
</g>
<defs>
<clipPath id="clip0_65_953">
<rect width="242" height="69" fill="white" transform="translate(34 43)"/>
</clipPath>
</defs>
</svg>
