<svg width="310" height="155" viewBox="0 0 310 155" fill="none" xmlns="http://www.w3.org/2000/svg">
<path d="M222.794 84.6284L224.07 82.713H224.434C226.165 84.3544 228.451 85.2426 230.809 85.1902C233.45 85.1902 234.998 84.2075 234.998 82.3859C234.998 80.2798 232.717 79.5024 230.209 78.6459C227.149 77.6046 223.751 76.4444 223.751 72.6164C223.751 69.2504 226.619 66.6794 231.902 66.6794C234.287 66.5844 236.637 67.29 238.595 68.6887L237.502 70.654H237.093C235.645 69.4043 233.794 68.7536 231.902 68.8295C229.26 68.8295 228.031 69.6714 228.031 71.1204C228.031 72.7528 230.089 73.4583 232.472 74.2752C235.749 75.4002 239.641 76.7334 239.641 80.9838C239.641 85.1902 235.863 87.2934 230.899 87.2934C227.978 87.3953 225.112 86.4532 222.794 84.6284ZM57.7892 67.0534V86.9663H52.9162V71.7276L45.9498 86.7786H44.5393L37.5729 71.823V86.78H35.3877V67.0519H40.7146L46.6786 80.095L52.9162 67.0534H57.7892ZM65.3456 67.0534H69.8992V86.9663H65.3456V67.0534ZM99.996 86.9663V67.0534H95.2161L89.2506 80.095L83.2407 67.0534H77.9138V86.78H80.1448V71.82L87.0654 86.78H88.4773L95.4438 71.7276V86.9663H99.996ZM107.555 67.0534H112.335V86.9663H107.555V67.0534ZM135.239 80.095L137.606 77.6163L142.933 86.9663H148.669L140.884 73.9247L147.349 67.0534H144.344L135.239 76.9622V67.0534H130.686V86.9663H135.239V80.095Z" fill="#273F32"/>
<path fill-rule="evenodd" clip-rule="evenodd" d="M165.107 83.2726H156.317L154.769 86.9657H152.356L160.735 67.0527H163.513L171.89 86.9657H166.745L165.107 83.2726ZM164.196 81.1694L160.735 72.8021L157.229 81.1694H164.196Z" fill="#273F32"/>
<path d="M211.094 87.2927C216.83 87.2927 218.606 84.3946 218.606 80.7015L219.015 67.0997H216.83V81.121C216.83 84.2538 214.873 85.3758 212.276 85.3758C209.682 85.3758 207.724 84.2538 207.724 81.0755V67.0527H202.715V80.6546C202.715 84.3946 205.356 87.2927 211.094 87.2927ZM262.953 86.9657V67.0527H258.173V75.4655H250.842V67.0527H246.062V86.9657H250.842V77.6157H258.173V86.9642H262.953V86.9657ZM270.513 67.0527H275.065V86.9657H270.513V67.0527ZM197.844 81.0755C198.097 81.0081 198.364 81.0081 198.617 81.0755C198.855 81.2039 199.059 81.3904 199.21 81.6187C199.36 81.8469 199.454 82.1097 199.482 82.3838C199.434 83.2719 199.115 84.1223 198.571 84.8155C198.106 85.4834 197.491 86.0272 196.778 86.4014C196.066 86.7755 195.275 86.969 194.474 86.9657H194.019C192.818 86.899 191.658 86.4982 190.663 85.8064C189.668 85.1146 188.876 84.1579 188.373 83.0394L187.508 81.4965L185.231 77.6171L182.863 80.0943V86.9657H178.311V67.0527H182.863V77.381L191.97 67.4722H194.974L188.509 74.3435L193.61 82.8971C193.958 83.5359 194.466 84.0678 195.083 84.4375C195.699 84.8073 196.401 85.0016 197.115 85.0003C197.443 85.0035 197.766 84.9134 198.048 84.7399C198.329 84.5664 198.558 84.3164 198.709 84.0177C198.459 84.2065 198.155 84.3054 197.844 84.2993C197.64 84.2997 197.438 84.2588 197.25 84.1791C197.062 84.0994 196.891 83.9824 196.747 83.8348C196.603 83.6872 196.489 83.5119 196.411 83.3191C196.334 83.1262 196.294 82.9195 196.294 82.7109C196.295 82.2854 196.456 81.8766 196.746 81.5712C197.035 81.2657 197.429 81.0874 197.844 81.0741V81.0755Z" fill="#273F32"/>
</svg>
