<svg width="310" height="155" viewBox="0 0 310 155" fill="none" xmlns="http://www.w3.org/2000/svg">
<g clip-path="url(#clip0_65_1023)">
<mask id="mask0_65_1023" style="mask-type:luminance" maskUnits="userSpaceOnUse" x="34" y="50" width="242" height="55">
<path d="M276 50H34V104.327H276V50Z" fill="white"/>
</mask>
<g mask="url(#mask0_65_1023)">
<path d="M86.332 103.542L60.7382 53.7038L35.1444 103.542L34 102.95L60.7382 50.8936L87.4763 102.95L86.332 103.542Z" fill="#273F32"/>
<path d="M80.713 103.497L60.7381 63.3115L40.7633 103.497L39.7539 102.995L60.7381 60.7842L81.7159 102.995L80.713 103.497Z" fill="#273F32"/>
<path d="M75.094 103.452L60.7381 72.9316L46.3822 103.452L45.5078 103.04L60.7381 70.668L75.9619 103.04L75.094 103.452Z" fill="#273F32"/>
<path d="M116.561 103.503C116.381 103.233 114.105 98.4743 109.778 89.3556L109.386 88.5453L109.939 88.3911C111.733 87.8894 112.453 86.8283 113.649 85.0791L113.88 84.7384C115.635 82.1661 115.95 77.4782 115.166 74.6872C114.607 72.5879 113.506 70.6726 111.974 69.133C110.441 67.5936 108.531 66.484 106.435 65.9157C105.149 65.5427 102.333 65.3626 97.891 65.3626H90.2342L90.5749 103.471H89.6105L89.2891 64.3916H97.8718C102.469 64.3916 105.265 64.5781 106.68 64.9833C108.937 65.5948 110.994 66.7905 112.643 68.45C114.292 70.1096 115.475 72.1742 116.072 74.4363C116.934 77.4267 116.644 82.4362 114.677 85.3042L114.446 85.6387C113.327 87.2785 112.517 88.5068 110.743 89.1627C114.709 97.5226 117.172 102.667 117.371 103.014L116.561 103.503Z" fill="#273F32"/>
<path d="M112.517 103.651C111.784 101.812 105.548 89.4139 104.577 87.6969L104.191 87.0539L104.969 87.0153C108.325 86.8352 111.032 83.6585 111.874 80.7518C112.22 79.7028 112.341 78.5928 112.231 77.4937C112.12 76.3948 111.779 75.3313 111.231 74.3725C110.266 72.7145 108.88 71.3412 107.213 70.3919C105.476 69.5238 103.554 69.0933 101.613 69.1379L93.937 69.0864V103.471H92.9727V68.1025L101.613 68.1604C103.711 68.1128 105.788 68.581 107.663 69.5238C109.494 70.5551 111.014 72.0585 112.067 73.8773C112.682 74.9483 113.065 76.1366 113.191 77.3652C113.318 78.5938 113.184 79.8353 112.8 81.009C111.925 83.9993 109.219 87.2982 105.76 87.864C107.399 90.9444 112.735 101.594 113.41 103.298L112.517 103.651Z" fill="#273F32"/>
<path d="M97.3833 103.587H96.4189V71.5236H96.8883H97.8526C100.643 71.44 104.86 71.3242 107.065 72.5396C109.676 73.9865 109.772 78.6874 109.232 80.2564C108.998 81.2741 108.425 82.1815 107.605 82.8287L107.503 82.9252C105.49 84.8029 102.706 84.9637 100.315 84.7579L109.695 103.047L108.84 103.484L98.6498 83.5875L99.5435 83.6968C101.909 83.9733 104.873 84.0506 106.853 82.1985L106.956 82.102C107.655 81.5674 108.14 80.8014 108.325 79.9414C108.801 78.533 108.634 74.4817 106.602 73.3563C104.571 72.2309 100.572 72.3787 97.8912 72.456H97.3833V103.587Z" fill="#273F32"/>
<path d="M146.558 103.117H119.37V64.3916H146.68V65.3563H120.322V102.133H146.545L146.558 103.117ZM146.558 99.7219L122.642 99.3489V67.7741H146.687V68.7388H123.607V83.2336H142.932V84.1982H123.6V98.3972L146.565 98.7573L146.558 99.7219ZM146.558 95.9792L126.628 95.7284V87.0341L142.804 87.272V88.2367L127.606 88.0116V94.7767L146.571 95.0146L146.558 95.9792ZM142.932 80.9764L126.635 80.8671V71.4396L146.565 71.639V72.6036L127.612 72.4107V79.9282L142.945 80.0118L142.932 80.9764Z" fill="#273F32"/>
<path d="M170.423 103.105H169.459V71.5177H181.867V72.508H170.423V103.105ZM163.351 103.105H162.387V72.4115H150.313V71.447H163.345L163.351 103.105ZM216.648 84.572H189.195V83.6074H216.648V84.572ZM181.867 68.7396H150.313V67.775H181.867V68.7396ZM181.867 65.2477H150.313V64.2832H181.867V65.2477Z" fill="#273F32"/>
<path d="M186.605 64.1406H185.641V103.104H186.605V64.1406Z" fill="#273F32"/>
<path d="M166.914 68.791H165.949V103.253H166.914V68.791Z" fill="#273F32"/>
<path d="M213.504 103.104H212.539V88.0369H193.626V103.104H192.661V87.0723H213.504V103.104Z" fill="#273F32"/>
<path d="M220.755 64.1406H219.791V103.252H220.755V64.1406Z" fill="#273F32"/>
<path d="M217.13 64.0703H216.166V103.182H217.13V64.0703Z" fill="#273F32"/>
<path d="M190.115 64.0703H189.15V103.182H190.115V64.0703Z" fill="#273F32"/>
<path d="M213.504 80.7H192.661V64.083H193.626V79.7353H212.539V64.083H213.504V80.7Z" fill="#273F32"/>
<path d="M223.668 104.327L222.517 103.754L249.255 50L276 103.754L274.849 104.327L249.255 52.8874L223.668 104.327Z" fill="#273F32"/>
<path d="M269.159 104.082L249.172 63.5747L229.177 104.082L228.027 103.509L249.172 60.668L270.31 103.509L269.159 104.082Z" fill="#273F32"/>
<path d="M263.471 103.832L249.082 74.2635L234.694 103.832L233.537 103.266L249.082 71.3311L264.628 103.266L263.471 103.832Z" fill="#273F32"/>
</g>
</g>
<defs>
<clipPath id="clip0_65_1023">
<rect width="242" height="54.3265" fill="white" transform="translate(34 50)"/>
</clipPath>
</defs>
</svg>
