<svg width="312" height="51" viewBox="0 0 312 51" fill="none" xmlns="http://www.w3.org/2000/svg">
<path d="M26.2558 30.6582C16.9558 35.2008 6.05503 32.0106 1.9332 23.569C-2.18862 15.1273 2.0312 4.53711 11.3312 0L15.9539 9.48867C11.8811 11.4791 9.8447 15.7217 11.4128 18.9446C12.981 22.1675 17.5711 23.1709 21.6439 21.1859L26.2558 30.6582Z" fill="#273F32"/>
<path d="M37.5221 50.9998C47.0889 46.3427 51.5592 35.7852 47.5027 27.4253C43.4462 19.0655 32.3984 16.0662 22.8262 20.7233L37.5221 50.9998Z" fill="#C8EFA0"/>
<path d="M69.0982 11.3873C68.641 10.9545 68.1039 10.619 67.5184 10.4006C66.9328 10.1821 66.3106 10.085 65.6879 10.115H61.016V23.1111H65.6879C66.3106 23.1411 66.9328 23.044 67.5184 22.8255C68.1039 22.6071 68.641 22.2716 69.0982 21.8388C70.4346 20.4737 70.4239 18.7208 70.4132 17.0226V16.0943C70.4239 14.3742 70.4346 12.7524 69.0982 11.3873ZM67.0136 19.6928C66.8254 19.9194 66.5871 20.097 66.3185 20.2109C66.0499 20.3248 65.7586 20.3719 65.4687 20.3481H63.9773V12.8944H65.4634C65.7526 12.8702 66.0432 12.917 66.311 13.031C66.5789 13.145 66.8161 13.3228 67.0029 13.5497C67.3824 14.0247 67.4465 14.7565 67.4465 16.5748C67.4465 18.3932 67.3877 19.2123 67.0136 19.6928ZM75.5662 10.115H72.6048V23.1111H75.5662V10.115ZM85.5406 16.3018C84.8412 15.699 83.973 15.3377 83.0604 15.2698L81.6278 15.0622C81.2754 15.0225 80.9415 14.8804 80.6656 14.6527C80.5799 14.5657 80.5124 14.4618 80.4674 14.3472C80.4223 14.2327 80.4007 14.1099 80.4037 13.9865C80.4037 13.2057 81.0078 12.7197 82.0073 12.7197C82.4188 12.6869 82.8325 12.7382 83.2243 12.8703C83.6162 13.0025 83.9784 13.213 84.2898 13.4896L84.4983 13.6916L86.4173 11.7531L86.1981 11.5402C85.6512 11.0092 85.0029 10.5993 84.2937 10.3362C83.5845 10.0731 82.8298 9.96245 82.0768 10.0112C79.3721 10.0112 77.5546 11.6494 77.5546 14.0739C77.528 14.5592 77.5998 15.0449 77.7653 15.5006C77.9309 15.9563 78.1867 16.3722 78.5168 16.7223C79.2189 17.3506 80.0991 17.7332 81.0291 17.8144L82.4938 18.0219C82.8284 18.034 83.1498 18.1588 83.4078 18.3768C83.5053 18.4886 83.5801 18.6191 83.6278 18.7606C83.6755 18.9022 83.6952 19.052 83.6858 19.2014C83.6858 20.015 83.0657 20.43 81.8363 20.43C81.3431 20.4673 80.8476 20.4018 80.3798 20.2375C79.9121 20.0733 79.482 19.8136 79.1155 19.4744L78.907 19.2614L76.956 21.2491L77.1644 21.4675C78.3297 22.6743 79.7195 23.1931 81.8042 23.1931C84.6693 23.1931 86.6151 21.5549 86.6151 19.1304C86.6349 18.6065 86.5471 18.0842 86.3575 17.5971C86.1678 17.1099 85.8805 16.6687 85.5139 16.3018H85.5406ZM87.6467 12.878H90.8112V23.1111H93.7725V12.8944H96.9423V10.1313H87.62L87.6467 12.878ZM101.545 18.1693H102.769L105.137 23.1111H108.552L105.768 17.6178C106.409 17.3267 106.951 16.8473 107.325 16.2406C107.699 15.6338 107.888 14.9272 107.868 14.2104C107.868 11.8023 106.126 10.115 103.635 10.115H98.6048V23.1111H101.561L101.545 18.1693ZM101.545 12.878H103.48C103.661 12.8612 103.844 12.8832 104.016 12.9425C104.188 13.0019 104.347 13.0973 104.481 13.2226C104.616 13.348 104.723 13.5006 104.796 13.6706C104.87 13.8407 104.908 14.0245 104.908 14.2104C104.908 14.3963 104.87 14.5801 104.796 14.7502C104.723 14.9202 104.616 15.0728 104.481 15.1982C104.347 15.3235 104.188 15.4189 104.016 15.4782C103.844 15.5376 103.661 15.5596 103.48 15.5428H101.545V12.878ZM113.037 10.115H110.076V23.1111H113.037V10.115ZM124.995 19.2396C125.021 18.6903 124.907 18.1436 124.663 17.6533C124.419 17.163 124.055 16.7461 123.605 16.4438C123.984 16.142 124.291 15.756 124.502 15.3151C124.713 14.8742 124.823 14.39 124.824 13.8991C124.824 11.5675 123.274 10.115 120.777 10.115H115.603V23.1111H120.975C123.407 23.1111 124.984 21.5876 124.984 19.2396H124.995ZM118.58 12.878H120.601C121.408 12.878 121.873 13.2876 121.873 14.0029C121.873 14.7182 121.408 15.1278 120.601 15.1278H118.58V12.878ZM118.58 20.3481V17.9072H120.756C120.922 17.8825 121.091 17.896 121.252 17.9466C121.412 17.9972 121.559 18.0838 121.683 18.1999C121.806 18.3161 121.903 18.4589 121.965 18.618C122.028 18.777 122.055 18.9484 122.044 19.1195C122.054 19.2911 122.027 19.4629 121.965 19.6226C121.902 19.7823 121.806 19.9259 121.683 20.0433C121.56 20.1606 121.413 20.2488 121.253 20.3015C121.093 20.3542 120.923 20.3701 120.756 20.3481H118.58ZM136.498 10.115H133.558V18.4751C133.558 19.7092 132.879 20.4518 131.741 20.4518C130.602 20.4518 129.945 19.7092 129.945 18.4751V10.115H126.983V18.5625C126.983 21.2545 128.983 23.2149 131.741 23.2149C134.499 23.2149 136.498 21.2545 136.498 18.5625V10.115ZM147.28 10.115H137.963V12.8944H141.133V23.1275H144.089V12.8944H147.248L147.28 10.115ZM148.953 23.1111H157.511V20.3481H151.893V17.94H156.677V15.1769H151.893V12.8944H157.511V10.1313H148.932L148.953 23.1111ZM168.998 16.5584V16.0943C168.998 14.3742 168.998 12.7524 167.683 11.3873C167.226 10.9545 166.689 10.619 166.103 10.4006C165.518 10.1821 164.895 10.085 164.273 10.115H159.596V23.1111H164.273C164.895 23.1411 165.518 23.044 166.103 22.8255C166.689 22.6071 167.226 22.2716 167.683 21.8388C169.019 20.4737 169.009 18.7208 168.998 17.0226V16.5584ZM165.593 19.6928C165.405 19.9194 165.167 20.097 164.898 20.2109C164.629 20.3248 164.338 20.3719 164.048 20.3481H162.536V12.8944H164.027C164.317 12.8706 164.608 12.9176 164.877 13.0316C165.145 13.1455 165.384 13.3231 165.572 13.5497C165.946 14.0247 166.015 14.7565 166.015 16.5748C166.015 18.3932 165.957 19.2123 165.572 19.6928H165.593ZM67.1472 33.0439L65.7146 32.831C65.362 32.7956 65.0274 32.655 64.7524 32.4269C64.6665 32.3389 64.599 32.234 64.554 32.1185C64.5089 32.0031 64.4874 31.8795 64.4905 31.7552C64.4905 30.9798 65.0945 30.4938 66.0941 30.4938C66.5056 30.4611 66.9192 30.5123 67.3111 30.6445C67.703 30.7767 68.0652 30.9872 68.3766 31.2638L68.5851 31.4658L70.5041 29.5273L70.2849 29.3144C69.738 28.7834 69.0897 28.3735 68.3805 28.1104C67.6713 27.8473 66.9166 27.7366 66.1636 27.7854C63.4589 27.7854 61.6414 29.4236 61.6414 31.8426C61.614 32.3284 61.6849 32.8147 61.8495 33.2713C62.0141 33.7278 62.269 34.1449 62.5983 34.4964C63.303 35.1239 64.1846 35.5063 65.1159 35.5886L66.5325 35.8288C66.8689 35.8449 67.1913 35.9712 67.4518 36.1892C67.5511 36.2998 67.6271 36.4301 67.6749 36.5719C67.7227 36.7138 67.7414 36.8642 67.7298 37.0138C67.7298 37.8274 67.1098 38.2424 65.8803 38.2424C65.3872 38.2784 64.892 38.2123 64.4245 38.0481C63.957 37.8839 63.5267 37.625 63.1595 37.2868L62.951 37.0684L61 39.0615L61.2084 39.2745C62.3737 40.4867 63.7635 41 65.8482 41C68.7134 41 70.6591 39.3618 70.6591 36.9428C70.6913 36.4204 70.6161 35.897 70.4385 35.4061C70.2608 34.9152 69.9845 34.4677 69.6274 34.0924C68.9322 33.48 68.0627 33.1124 67.1472 33.0439ZM72.6315 40.8799H81.2162V38.1223H75.6196V35.7142H80.4037V32.9511H75.6196V30.6522H81.243V27.8892H72.6315V40.8799ZM92.5591 32.0064C92.5591 29.5928 90.8165 27.911 88.3256 27.911H83.2795V40.9017H86.2355V35.938H87.4596L89.8276 40.8799H93.2594L90.4744 35.392C91.1095 35.0999 91.646 34.6228 92.0169 34.0206C92.3877 33.4183 92.5763 32.7177 92.5591 32.0064ZM88.1706 33.3388H86.2355V30.674H88.1706C88.3518 30.6573 88.5344 30.6793 88.7068 30.7386C88.8792 30.7979 89.0377 30.8933 89.172 31.0187C89.3064 31.144 89.4137 31.2966 89.4871 31.4667C89.5605 31.6367 89.5984 31.8206 89.5984 32.0064C89.5984 32.1923 89.5605 32.3761 89.4871 32.5462C89.4137 32.7163 89.3064 32.8688 89.172 32.9942C89.0377 33.1195 88.8792 33.2149 88.7068 33.2743C88.5344 33.3336 88.3518 33.3556 88.1706 33.3388ZM98.6048 35.2391L96.3864 27.8892H93.2594L97.4608 40.8799H99.6738L103.891 27.8892H100.791L98.6048 35.2391ZM105.019 40.8799H107.981V27.8892H105.019V40.8799ZM114.924 30.5485C115.35 30.5315 115.767 30.6787 116.092 30.9609C116.416 31.2431 116.626 31.6397 116.677 32.072L116.736 32.3013H119.719L119.66 31.9518C119.238 29.3417 117.458 27.7854 114.903 27.7854C114.257 27.7723 113.615 27.8939 113.017 28.1427C112.419 28.3915 111.876 28.7623 111.423 29.2325C110.872 29.7753 110.498 30.4791 110.354 31.2474C110.076 33.3292 110.076 35.4398 110.354 37.5216C110.507 38.2882 110.879 38.9913 111.423 39.542C111.877 40.0104 112.42 40.3797 113.018 40.6275C113.616 40.8753 114.257 40.9965 114.903 40.9836C117.458 40.9836 119.238 39.4274 119.66 36.8172L119.719 36.4677H116.736L116.677 36.6971C116.627 37.1303 116.418 37.5282 116.093 37.8115C115.768 38.0949 115.351 38.2428 114.924 38.226C114.68 38.2425 114.436 38.2019 114.21 38.1072C113.984 38.0126 113.782 37.8665 113.62 37.68C113.214 37.2377 113.085 36.779 113.085 34.4036C113.085 32.0283 113.192 31.5532 113.62 31.1C113.779 30.9162 113.976 30.7713 114.197 30.6758C114.418 30.5804 114.658 30.5368 114.897 30.5485H114.924ZM121.456 40.8799H130.009V38.1223H124.386V35.7142H129.196V32.9511H124.386V30.6522H130.009V27.8892H121.456V40.8799ZM137.017 33.0439L135.589 32.831C135.237 32.7965 134.902 32.6559 134.627 32.4269C134.541 32.3392 134.472 32.2344 134.426 32.119C134.38 32.0036 134.358 31.8798 134.36 31.7552C134.36 30.9798 134.964 30.4938 135.937 30.4938C136.348 30.4605 136.762 30.5114 137.154 30.6437C137.546 30.7759 137.908 30.9867 138.219 31.2638L138.428 31.4658L140.347 29.5273L140.128 29.3144C139.581 28.7834 138.932 28.3735 138.223 28.1104C137.514 27.8473 136.759 27.7366 136.006 27.7854C133.302 27.7854 131.484 29.4236 131.484 31.8426C131.458 32.3287 131.53 32.8152 131.695 33.2717C131.861 33.7283 132.116 34.1452 132.446 34.4964C133.148 35.1248 134.029 35.5074 134.959 35.5886L136.423 35.7961C136.758 35.8105 137.08 35.9371 137.337 36.1565C137.438 36.2666 137.515 36.3967 137.563 36.5385C137.612 36.6804 137.632 36.8311 137.621 36.981C137.621 37.7946 136.995 38.2096 135.766 38.2096C135.274 38.2459 134.779 38.1799 134.312 38.0156C133.846 37.8514 133.416 37.5923 133.05 37.254L132.837 37.0356L130.891 39.0287L131.094 39.2417C132.265 40.4539 133.649 40.9672 135.734 40.9672C138.599 40.9672 140.545 39.3291 140.545 36.91C140.577 36.3877 140.502 35.8642 140.324 35.3733C140.146 34.8824 139.87 34.4349 139.513 34.0596C138.802 33.4504 137.917 33.0939 136.99 33.0439H137.017Z" fill="#273F32"/>
<line x1="181.5" y1="10.5" x2="181.5" y2="40.5" stroke="#C8EFA0"/>
<path d="M284.651 16.3355L280.18 29.392C279.931 30.1097 279.904 30.4962 280.29 30.4962C280.897 30.4962 282.36 28.9504 283.299 27.8462C283.63 27.8462 283.851 28.0118 283.796 28.3431C283.023 29.8337 281.394 32.042 278.606 32.042C277.502 32.042 277.171 31.4899 277.171 31.0482C277.171 30.6066 277.281 30.1097 277.668 29.0056L282.222 15.673C282.719 14.2376 282.609 13.9616 282.112 13.6856L281.477 13.3543C281.367 13.1887 281.367 12.9679 281.532 12.8023C282.278 12.5262 284.596 12.0294 285.949 11.9189C286.004 11.9189 286.114 12.0846 286.114 12.1398C286.003 12.4583 285.896 12.7585 285.783 13.0773L285.782 13.0783C285.502 13.8646 285.182 14.7649 284.651 16.3355Z" fill="#273F32"/>
<path d="M287.847 29.5851L290.939 22.353C291.187 21.7733 291.297 21.3868 291.242 21.166C291.159 20.7796 290.718 20.3931 290.331 20.3931C289.089 20.3931 286.743 21.6077 285.252 23.3467C285.169 23.5675 285.363 23.8988 285.639 23.8988C286.522 23.1259 287.681 22.4082 288.013 22.4082C288.178 22.4082 288.178 22.5738 288.068 22.8498L285.004 30.1096C284.811 30.5788 284.755 30.8825 284.755 31.1861C284.755 31.4345 285.169 32.0418 285.639 32.0418C287.737 32.0418 290.387 29.9164 291.159 28.757C291.215 28.481 290.994 28.2049 290.69 28.2049C289.89 29.0606 288.371 30.1096 287.93 30.1096C287.709 30.1096 287.737 29.8611 287.847 29.5851Z" fill="#273F32"/>
<path d="M289.172 16.639C289.172 17.3291 289.614 17.9364 290.442 17.9364C291.491 17.9364 292.236 17.0255 292.236 16.0317C292.236 15.176 291.767 14.7344 290.966 14.7344C289.807 14.7344 289.172 15.7557 289.172 16.639Z" fill="#273F32"/>
<path d="M301.263 22.1596H298.337L295.852 29.3089C295.687 29.7506 295.742 29.9714 296.018 29.9714C296.46 29.9714 298.061 28.7568 299.054 27.6527C299.386 27.7079 299.551 27.8735 299.496 28.26C298.281 30.0818 295.576 32.0417 293.81 32.0417C293.258 32.0417 292.816 31.5448 292.816 31.1031C292.816 30.7167 292.899 30.3302 293.147 29.5849L295.687 22.1596H293.589C293.423 21.9111 293.589 21.4419 293.865 21.2763L296.184 20.8346L297.95 18.1571C298.116 18.0466 298.337 18.019 298.613 18.019C298.999 18.019 299.386 18.1571 299.496 18.3779L298.723 20.945H301.483C301.815 21.2763 301.594 21.994 301.263 22.1596Z" fill="#273F32"/>
<path d="M304.263 20.3931C305.726 20.3931 306.389 22.4081 306.444 25.2513C306.472 27.1007 306.389 29.0882 306.085 30.9928H306.195C307.244 29.2262 308.017 27.0179 308.625 24.8096C308.928 23.7055 309.204 21.9941 309.232 21.442C309.287 20.6139 309.646 20.4483 310.032 20.4483C310.364 20.4483 310.778 20.5587 311.054 20.7243C311.302 20.8899 311.413 21.1108 311.413 21.442C311.413 22.0493 310.584 25.4721 308.155 29.6679C306.886 31.821 305.395 34.3053 303.463 36.4308C301.503 38.5838 299.929 39.0807 298.825 39.0807C297.859 39.0807 297.031 38.4458 297.031 37.6177C297.004 36.6792 297.666 36.0719 298.411 36.0719C298.853 36.0719 299.074 36.2927 299.35 36.6516C299.709 37.1208 299.929 37.3969 300.316 37.3969C300.73 37.3969 301.365 37.2037 301.862 36.7068C302.524 36.0443 303.187 34.8297 303.546 33.3944C303.904 32.0694 304.098 30.0543 304.015 27.3216C303.932 24.1472 303.601 22.5738 302.993 22.5738C302.414 22.5738 301.807 23.6503 301.31 24.6992C301.034 24.8648 300.647 24.6992 300.592 24.4232C301.116 22.7394 302.359 20.3931 304.263 20.3931Z" fill="#273F32"/>
<path fill-rule="evenodd" clip-rule="evenodd" d="M274.363 19.9517L273.645 21.4975C273.48 21.2767 273.204 21.0559 273.066 20.9731L273.026 20.9558L272.993 20.9415C272.818 20.8648 272.624 20.7798 272.431 20.7798C271.768 20.7798 271.106 20.9455 270.278 21.3871C269.339 21.884 268.069 22.7397 266.827 24.1199C264.702 26.5214 263.598 29.3093 263.598 30.3859C263.598 31.2692 264.205 32.0421 265.088 32.0421C266.689 32.0421 269.45 30.027 271.382 27.4047H271.465L270.471 30.027C270.25 30.5791 270.195 30.8827 270.195 31.1588C270.195 31.49 270.443 32.0421 271.106 32.0421C272.872 32.0421 275.026 30.4963 276.24 28.9505C276.24 28.5917 276.019 28.426 275.798 28.426C274.584 29.5854 273.452 30.2203 273.038 30.2203C272.872 30.2203 272.762 30.0822 272.9 29.7234C273.921 26.8526 275.688 22.298 276.461 20.5038C276.212 20.0069 275.44 19.8413 274.915 19.8413C274.694 19.8413 274.473 19.8965 274.363 19.9517ZM269.781 23.1261C270.664 22.1876 271.106 21.9392 271.713 21.9392C272.265 21.9392 272.707 22.2428 272.928 22.9053C272.541 24.1751 271.299 26.6594 269.891 28.0948C268.704 29.3369 267.517 30.3031 267.076 30.3031C266.855 30.3031 266.744 30.0546 266.744 29.751C266.8 27.9292 268.235 24.81 269.781 23.1261Z" fill="#273F32"/>
<path d="M264.709 22.1596H261.783L259.299 29.3089C259.133 29.7506 259.189 29.9714 259.465 29.9714C259.906 29.9714 261.507 28.7568 262.501 27.6527C262.832 27.7079 262.998 27.8735 262.943 28.26C261.728 30.0818 259.023 32.0417 257.256 32.0417C256.704 32.0417 256.263 31.5448 256.263 31.1031C256.263 30.7167 256.346 30.3302 256.594 29.5849L259.133 22.1596H257.036C256.87 21.9111 257.036 21.4419 257.312 21.2763L259.63 20.8346L261.397 18.1571C261.563 18.0466 261.783 18.019 262.059 18.019C262.446 18.019 262.832 18.1571 262.943 18.3779L262.17 20.945H264.93C265.261 21.2763 265.041 21.994 264.709 22.1596Z" fill="#273F32"/>
<path d="M251.294 29.5851L254.385 22.353C254.634 21.7733 254.744 21.3868 254.689 21.166C254.606 20.7796 254.165 20.3931 253.778 20.3931C252.536 20.3931 250.19 21.6077 248.699 23.3467C248.616 23.5675 248.809 23.8988 249.085 23.8988C249.969 23.1259 251.128 22.4082 251.459 22.4082C251.625 22.4082 251.625 22.5738 251.515 22.8498L248.451 30.1096C248.257 30.5788 248.202 30.8825 248.202 31.1861C248.202 31.4345 248.616 32.0418 249.085 32.0418C251.183 32.0418 253.833 29.9164 254.606 28.757C254.661 28.481 254.441 28.2049 254.137 28.2049C253.336 29.0606 251.818 30.1096 251.377 30.1096C251.156 30.1096 251.183 29.8611 251.294 29.5851Z" fill="#273F32"/>
<path d="M252.619 16.639C252.619 17.3291 253.06 17.9364 253.888 17.9364C254.937 17.9364 255.683 17.0255 255.683 16.0317C255.683 15.176 255.213 14.7344 254.413 14.7344C253.254 14.7344 252.619 15.7557 252.619 16.639Z" fill="#273F32"/>
<path fill-rule="evenodd" clip-rule="evenodd" d="M241.92 19.2615L241.313 20.8901C241.589 20.8349 241.865 20.8349 242.196 20.8349C244.625 20.8349 246.447 21.9943 246.447 24.3958C246.447 26.4108 245.233 28.4811 243.576 30.0269C242.031 31.4899 239.988 32.042 238.718 32.042C238.442 32.042 238.111 31.9316 237.78 31.8211C237.559 31.8764 237.421 32.042 237.338 32.318L236.151 35.8237C235.627 37.3419 235.599 37.8387 236.593 37.9215L237.752 38.032C237.973 38.1976 237.918 38.6668 237.587 38.7773C235.323 38.7773 233.004 38.8601 230.741 39.0533C230.465 38.8877 230.41 38.446 230.63 38.2528L231.403 38.1424C232.717 37.9508 232.918 37.3792 233.433 35.9164L233.446 35.8789L238.221 22.4083C237.338 22.5739 236.4 23.0156 235.461 23.5125C235.13 23.4573 234.964 23.0708 235.13 22.85C236.013 22.1875 237.448 21.4422 238.663 21.111L239.491 19.0407C239.657 18.8199 240.043 18.7646 240.54 18.7646C241.203 18.7646 241.81 19.0407 241.92 19.2615ZM241.037 21.9943L238.332 29.5301C238.221 29.8613 238.221 30.1925 238.415 30.4962C238.553 30.717 238.856 31.0482 239.243 31.0482C239.657 31.0482 240.816 30.6342 241.755 29.254C242.886 27.5702 243.521 25.5827 243.521 24.0645C243.521 22.5739 242.583 21.9391 241.644 21.9391C241.368 21.9391 241.203 21.9667 241.037 21.9943Z" fill="#273F32"/>
<path d="M225.688 30.2475C225.688 31.2137 226.737 32.0418 227.896 32.0418C229.056 32.0418 230.16 31.6277 230.988 30.9376C232.037 30.0819 232.506 29.033 232.534 28.0945C232.561 27.0179 232.147 26.245 231.347 25.1685C231.234 25.0176 231.099 24.8595 230.958 24.6946C230.482 24.1356 229.939 23.498 229.939 22.7946C229.939 22.4081 230.27 21.9389 230.877 21.9389C231.595 21.9389 232.037 22.2425 232.81 23.1258C232.975 23.3467 233.169 23.4571 233.417 23.4571C233.693 23.4571 234.3 23.043 234.3 22.2977C234.3 21.3316 233.362 20.3931 232.092 20.3931C231.374 20.3931 230.381 20.7795 229.608 21.442C228.614 22.2977 228.007 23.2362 228.007 24.3956C228.007 25.0857 228.393 26.0242 229.166 27.0179C229.217 27.0821 229.271 27.1491 229.327 27.2186C229.848 27.867 230.546 28.7348 230.546 29.5575C230.546 30.1371 230.022 30.5512 229.442 30.5512C228.669 30.5512 228.062 30.0819 227.344 29.309C227.151 29.0882 226.958 28.9226 226.737 28.9226C226.13 28.9226 225.688 29.6403 225.688 30.2475Z" fill="#273F32"/>
<path fill-rule="evenodd" clip-rule="evenodd" d="M214.852 28.4257C214.908 26.4107 216.067 23.8159 217.751 22.2425C219.352 20.7795 220.704 20.3931 221.947 20.3931C224.403 20.3931 225.369 22.0769 225.342 24.1472C225.314 25.8586 224.486 28.3705 222.637 30.1371C221.036 31.7105 219.49 32.0418 218.275 32.0418C215.957 32.0418 214.797 30.4408 214.852 28.4257ZM218.386 31.0481C219.048 31.0481 219.655 30.6064 220.484 29.4194C221.477 27.9841 222.802 24.6716 222.802 22.8774C222.802 22.1321 222.692 21.3868 221.919 21.3868C221.422 21.3868 220.842 21.6904 220.125 22.6014C218.827 24.2852 217.392 27.57 217.392 29.6127C217.392 30.4408 217.751 31.0481 218.386 31.0481Z" fill="#273F32"/>
<path d="M199.425 17.4122L196.223 27.6808C195.395 30.3583 195.092 30.6896 193.849 30.8552L193.215 30.938C192.938 31.0484 192.938 31.5729 193.159 31.7385C194.208 31.6833 195.312 31.6557 196.637 31.6557C197.962 31.6557 199.122 31.6833 200.723 31.7385C200.944 31.6005 201.054 31.1588 200.888 30.938L199.922 30.8276C198.459 30.6619 198.514 30.0823 199.287 27.6808L200.585 23.5954C200.805 22.9329 200.861 22.8225 202.103 22.8225H207.844C209.187 22.8225 209.17 22.8769 208.98 23.4717L208.976 23.485L207.679 27.6808C206.851 30.3583 206.547 30.7172 205.305 30.8552L204.56 30.938C204.284 31.0484 204.284 31.5729 204.504 31.7385C205.691 31.6833 206.768 31.6557 208.12 31.6557C209.445 31.6557 210.577 31.6833 212.068 31.7385C212.261 31.6005 212.371 31.1588 212.206 30.938L211.405 30.8276C209.942 30.6343 209.997 30.0823 210.743 27.6808L213.945 17.4122C214.773 14.7347 215.104 14.431 216.346 14.2654L217.119 14.155C217.395 14.0446 217.395 13.5201 217.174 13.3545C215.96 13.4097 214.883 13.4373 213.558 13.4373C212.206 13.4373 211.074 13.4097 209.721 13.3545C209.501 13.4925 209.39 13.9342 209.556 14.155L210.246 14.2378C211.709 14.4034 211.626 15.0107 210.881 17.4122L209.859 20.7247C209.611 21.5252 209.528 21.5804 208.176 21.5804H202.489C201.22 21.5804 201.192 21.5252 201.44 20.7247L202.489 17.4122C203.345 14.7347 203.621 14.431 204.863 14.2654L205.636 14.155C205.912 14.0446 205.912 13.5201 205.691 13.3545C204.504 13.4097 203.4 13.4373 202.075 13.4373C200.75 13.4373 199.591 13.4097 198.266 13.3545C198.045 13.4925 197.935 13.9342 198.1 14.155L198.79 14.2378C200.253 14.4034 200.171 15.0107 199.425 17.4122Z" fill="#273F32"/>
</svg>
