<svg width="310" height="155" viewBox="0 0 310 155" fill="none" xmlns="http://www.w3.org/2000/svg">
<mask id="mask0_65_992" style="mask-type:luminance" maskUnits="userSpaceOnUse" x="34" y="63" width="242" height="27">
<path d="M276 63H34V89.8333H276V63Z" fill="white"/>
</mask>
<g mask="url(#mask0_65_992)">
<mask id="mask1_65_992" style="mask-type:luminance" maskUnits="userSpaceOnUse" x="34" y="63" width="242" height="27">
<path d="M276 63H34V89.8333H276V63Z" fill="white"/>
</mask>
<g mask="url(#mask1_65_992)">
<mask id="mask2_65_992" style="mask-type:luminance" maskUnits="userSpaceOnUse" x="34" y="63" width="242" height="27">
<path d="M34 63.5712H276V89.8212H34V63.5712Z" fill="white"/>
</mask>
<g mask="url(#mask2_65_992)">
<path d="M57.6234 63.979V75.239H51.6992V89.3976H39.9242V75.2384H34V63.979H57.6234ZM80.1409 63.979L89.3751 89.3976H77.6108L76.0765 85.1002H67.4407L65.9064 89.3976H54.132L63.3636 63.979H80.1409ZM68.6907 78.2508H73.0467L70.9032 72.0389H70.8348L68.6907 78.2508ZM133.785 63.5893C136.211 63.5658 138.6 64.1732 140.699 65.3475C142.757 66.4821 144.461 68.1303 145.63 70.1191C146.828 72.1123 147.448 74.3794 147.425 76.6828C147.441 78.9956 146.822 81.2714 145.63 83.2785C144.467 85.2777 142.763 86.9349 140.699 88.0735C138.592 89.2214 136.212 89.8241 133.792 89.8235C131.372 89.8241 128.993 89.2214 126.886 88.0735C124.826 86.9403 123.122 85.2914 121.954 83.3012C120.762 81.2854 120.147 79.0007 120.171 76.6804C120.158 74.3928 120.764 72.1416 121.931 70.1494C123.099 68.1599 124.803 66.5113 126.862 65.3778C128.961 64.1918 131.352 63.5739 133.785 63.5893ZM132.045 76.8484C132.029 77.2029 132.087 77.5567 132.216 77.8891C132.344 78.2214 132.541 78.5253 132.794 78.7828C133.3 79.2518 133.974 79.5136 134.676 79.5131C135.379 79.5131 136.054 79.2506 136.559 78.7822C136.813 78.5244 137.012 78.2206 137.143 77.8885C137.274 77.5568 137.335 77.2033 137.323 76.8484C137.328 76.4819 137.26 76.1178 137.123 75.7757C136.999 75.4635 136.813 75.1777 136.575 74.9345C136.336 74.6964 136.049 74.509 135.731 74.3844C135.391 74.2494 135.027 74.1812 134.659 74.1838C134.311 74.1767 133.965 74.2399 133.644 74.3697C133.323 74.4994 133.033 74.6926 132.794 74.9369C132.542 75.1905 132.346 75.4906 132.217 75.819C132.089 76.1475 132.03 76.4976 132.045 76.8484ZM262.359 63.5893C264.787 63.5659 267.177 64.1732 269.277 65.3475C271.334 66.4823 273.038 68.1306 274.206 70.1191C275.405 72.1121 276.024 74.3799 276 76.6839C276.018 78.997 275.4 81.2731 274.206 83.2796C273.043 85.2787 271.339 86.9358 269.277 88.0746C267.17 89.2225 264.789 89.8254 262.369 89.8246C259.947 89.8254 257.569 89.2225 255.461 88.0746C253.402 86.9414 251.698 85.2923 250.532 83.3025C249.338 81.2908 248.719 79.0095 248.738 76.6915C248.727 74.4045 249.332 72.1539 250.495 70.1611C251.664 68.1717 253.368 66.5231 255.427 65.3889C257.527 64.198 259.923 63.5755 262.359 63.5893ZM259.733 76.1951C259.713 76.5511 259.77 76.907 259.897 77.2413C260.026 77.5756 260.225 77.8811 260.478 78.1394C260.983 78.61 261.657 78.873 262.359 78.8726C263.061 78.8732 263.735 78.6101 264.24 78.1394C264.495 77.8832 264.695 77.5803 264.828 77.2486C264.958 76.9169 265.02 76.563 265.008 76.2079C265.013 75.8406 264.945 75.4758 264.808 75.1329C264.684 74.8208 264.497 74.5351 264.26 74.2917C264.019 74.0541 263.732 73.8668 263.414 73.7416C263.074 73.6076 262.711 73.5402 262.345 73.5433C261.996 73.5353 261.649 73.5983 261.328 73.7282C261.006 73.858 260.717 74.0519 260.478 74.2969C260.23 74.5493 260.034 74.8474 259.905 75.1735C259.776 75.4995 259.718 75.8471 259.731 76.1957L259.733 76.1951ZM208.732 63.9895L217.964 89.4052H206.204L204.673 85.1079H196.032L194.498 89.4059H182.72L191.955 63.99L208.732 63.9895ZM198.77 79.1129H203.123L200.982 72.8987H200.911L198.77 79.1129ZM160.521 63.9889L165.329 72.1269L170.155 63.9895H181.564V89.4052H169.787V76.681L165.321 84.4369L160.855 76.6804V89.4052H149.09V63.9895L160.521 63.9889ZM103.357 82.2716C100.117 82.1409 98.4675 79.6723 98.3339 77.5747C98.1971 75.4047 99.2135 72.7499 102.288 72.5516C105.178 72.3556 105.861 74.2491 105.861 74.2491H117.727C117.397 72.2078 116.5 70.2906 115.132 68.701C113.702 67.0539 111.883 65.7618 109.828 64.9333C107.589 64.0137 105.178 63.5504 102.745 63.5724C99.7792 63.5724 97.1372 64.1248 94.8188 65.2296C92.5953 66.2538 90.718 67.8641 89.4041 69.8741C88.0975 71.9207 87.4255 74.2851 87.4681 76.688C87.4244 79.0889 88.0896 81.4523 89.3859 83.5025C90.6812 85.5079 92.5393 87.1182 94.7451 88.1469C97.0355 89.2519 99.6528 89.8042 102.595 89.8042C104.789 89.8462 106.964 89.4065 108.955 88.5186C110.796 87.6629 112.161 86.4786 113.051 84.9666V89.3878H118.465V75.7314H102.262V80.5036H108.325C106.509 82.6333 103.357 82.2716 103.357 82.2716ZM231.935 82.2716C228.695 82.1409 227.043 79.6723 226.911 77.5747C226.772 75.4047 227.792 72.7499 230.852 72.5516C233.742 72.3556 234.428 74.2491 234.428 74.2491H246.3C245.971 72.2074 245.074 70.29 243.704 68.701C242.273 67.048 240.452 65.7506 238.393 64.9181C236.149 64.0026 233.736 63.5444 231.299 63.5724C228.332 63.5724 225.69 64.1248 223.373 65.2296C221.15 66.2534 219.274 67.8638 217.96 69.8741C216.652 71.9199 215.979 74.2847 216.023 76.688C215.979 79.0891 216.645 81.4523 217.943 83.5025C219.236 85.5076 221.095 87.1181 223.299 88.1469C225.593 89.2519 228.211 89.8042 231.153 89.8042C233.347 89.8456 235.521 89.4059 237.511 88.5186C239.35 87.6629 240.716 86.4786 241.609 84.9666V89.3878H247.02V75.7314H230.84V80.5036H236.901C235.079 82.6333 231.932 82.2716 231.932 82.2716H231.935Z" fill="#273F32"/>
</g>
</g>
</g>
</svg>
