<svg width="310" height="155" viewBox="0 0 310 155" fill="none" xmlns="http://www.w3.org/2000/svg">
<mask id="mask0_65_985" style="mask-type:luminance" maskUnits="userSpaceOnUse" x="34" y="31" width="242" height="92">
<path d="M34 31.123H276V122.83H34V31.123Z" fill="white"/>
</mask>
<g mask="url(#mask0_65_985)">
<path d="M103.166 116.012C102.918 115.811 102.651 115.634 102.37 115.483C102.416 115.446 102.463 115.414 102.514 115.382C102.835 115.216 103.106 114.971 103.3 114.67C103.494 114.369 103.605 114.023 103.622 113.667C103.71 113.098 103.587 112.517 103.276 112.03C102.965 111.543 102.486 111.182 101.928 111.014C101.407 110.833 100.86 110.738 100.308 110.735H93.9463C93.7229 110.735 93.6624 110.794 93.6624 111.014V120.618C93.6624 120.744 93.6624 120.848 93.8486 120.845C96.0592 120.813 98.2744 120.905 100.485 120.786C101.125 120.754 101.753 120.618 102.346 120.384C104.376 119.573 104.348 116.991 103.166 116.012ZM95.4123 112.046H97.823C98.5583 112.046 99.4425 112.007 100.327 112.085C100.676 112.108 101.02 112.181 101.346 112.305C101.55 112.379 101.729 112.51 101.858 112.682C101.988 112.855 102.064 113.061 102.077 113.275C102.116 113.506 102.082 113.744 101.98 113.956C101.877 114.168 101.711 114.344 101.504 114.46C101.09 114.689 100.627 114.82 100.15 114.834C98.5629 114.939 96.9713 114.857 95.3797 114.884C95.2447 114.884 95.2028 114.843 95.2028 114.717V112.227C95.2028 112.062 95.2727 112.046 95.4123 112.046ZM101.434 119.213C100.902 119.378 100.345 119.453 99.7869 119.435H95.4542C95.268 119.435 95.1982 119.394 95.2028 119.199V116.418C95.2028 116.23 95.2587 116.189 95.4402 116.189H100.094C100.573 116.184 101.048 116.274 101.49 116.453C101.785 116.568 102.032 116.776 102.195 117.044C102.357 117.312 102.425 117.626 102.388 117.936C102.394 118.222 102.303 118.503 102.131 118.734C101.958 118.964 101.714 119.133 101.434 119.213ZM130.656 119.777C130.656 119.403 130.698 119.44 130.325 119.44H123.149C122.819 119.44 122.819 119.44 122.819 119.126V116.886C122.819 116.686 122.726 116.432 122.87 116.299C123.014 116.166 123.256 116.258 123.456 116.258H128.999C129.19 116.258 129.26 116.212 129.25 116.017C129.231 115.713 129.231 115.408 129.25 115.104C129.25 114.907 129.209 114.848 128.999 114.848H123.033C122.921 114.848 122.814 114.848 122.814 114.694V112.204C122.814 112.103 122.847 112.048 122.958 112.053H130.209C130.428 112.053 130.535 112.025 130.507 111.775C130.486 111.495 130.486 111.213 130.507 110.932C130.507 110.725 130.456 110.68 130.251 110.68H121.539C121.32 110.68 121.269 110.744 121.269 110.95V120.511C121.269 120.721 121.325 120.777 121.539 120.777H130.442C130.619 120.777 130.67 120.726 130.661 120.559C130.647 120.325 130.66 120.05 130.656 119.777ZM207.924 110.955C207.924 110.78 207.886 110.712 207.696 110.721H206.602C206.402 110.721 206.36 110.78 206.36 110.968V114.552C206.36 114.852 206.36 114.852 206.062 114.852H199.14C198.921 114.852 198.856 114.804 198.856 114.579V110.932C198.856 110.748 198.804 110.693 198.623 110.698H197.599C197.259 110.698 197.297 110.666 197.297 110.987V120.577C197.297 120.749 197.343 120.795 197.515 120.79H198.586C198.795 120.79 198.865 120.749 198.865 120.531V116.512C198.865 116.216 198.865 116.216 199.163 116.216H206.062C206.393 116.216 206.365 116.171 206.365 116.503V120.568C206.365 120.731 206.402 120.799 206.583 120.79H207.7C207.891 120.79 207.933 120.735 207.928 120.561V115.742C207.928 114.114 207.9 112.56 207.905 110.955H207.924ZM157.187 119.786L152.534 110.886C152.514 110.833 152.478 110.788 152.43 110.759C152.382 110.729 152.325 110.715 152.268 110.721H151.035C150.945 110.709 150.854 110.729 150.777 110.775C150.7 110.822 150.642 110.894 150.612 110.978C149.154 113.771 147.689 116.561 146.216 119.346C145.965 119.8 145.718 120.302 145.453 120.813H146.972C147.036 120.823 147.101 120.81 147.156 120.777C147.211 120.745 147.253 120.694 147.275 120.634C147.638 119.91 148.015 119.195 148.378 118.475C148.399 118.41 148.443 118.355 148.502 118.319C148.561 118.283 148.63 118.268 148.699 118.277H154.474C154.545 118.27 154.617 118.286 154.678 118.323C154.739 118.361 154.785 118.417 154.809 118.484C155.168 119.208 155.54 119.924 155.903 120.644C155.92 120.698 155.956 120.745 156.004 120.776C156.053 120.807 156.111 120.82 156.168 120.813H157.518C157.718 120.813 157.713 120.758 157.634 120.614C157.448 120.343 157.308 120.063 157.164 119.788L157.187 119.786ZM153.744 116.9H149.411C149.299 116.9 149.178 116.927 149.271 116.739C150.03 115.267 150.779 113.795 151.533 112.317C151.545 112.292 151.561 112.268 151.58 112.248C151.668 112.294 151.682 112.376 151.715 112.44C152.436 113.855 153.153 115.272 153.879 116.682C153.944 116.851 153.939 116.9 153.72 116.9H153.744ZM183.286 117.881C182.957 117.745 182.636 117.593 182.323 117.425C182.155 117.333 182.081 117.356 181.988 117.521C181.738 117.998 181.39 118.418 180.966 118.755C180.543 119.092 180.052 119.338 179.526 119.477C178.359 119.797 177.12 119.752 175.98 119.348C175.426 119.174 174.928 118.861 174.534 118.439C174.141 118.018 173.865 117.503 173.734 116.945C173.571 116.238 173.571 115.504 173.734 114.797C173.83 114.119 174.136 113.485 174.609 112.983C175.082 112.481 175.7 112.134 176.38 111.989C177.187 111.785 178.028 111.745 178.851 111.869C180.247 112.057 181.332 112.67 181.909 113.981C181.964 114.109 182.025 114.114 182.141 114.059C182.476 113.898 182.811 113.745 183.156 113.603C183.305 113.543 183.323 113.488 183.258 113.339C182.892 112.541 182.29 111.87 181.532 111.413C180.37 110.751 179.038 110.434 177.697 110.503C177.069 110.501 176.44 110.583 175.835 110.748C175.038 110.925 174.3 111.3 173.691 111.838C173.083 112.376 172.625 113.058 172.361 113.821C172.043 114.74 171.957 115.722 172.11 116.682C172.185 117.506 172.484 118.295 172.975 118.966C173.466 119.637 174.132 120.165 174.902 120.495C176.438 121.134 178.144 121.267 179.763 120.877C180.531 120.733 181.255 120.417 181.88 119.954C182.504 119.49 183.013 118.892 183.365 118.204C183.412 118.041 183.449 117.959 183.263 117.883L183.286 117.881ZM123.787 91.3751C123.787 90.8914 123.368 90.8708 122.986 90.8088C122.223 90.7011 121.455 90.5796 120.706 90.4191C118.6 89.9606 118.1 89.3186 118.1 87.2254V70.2756C118.058 68.0608 118.249 65.8484 118.67 63.6727C119.817 58.35 122.208 53.3643 125.653 49.1118C129.064 44.7878 133.076 41.0209 136.997 37.1532C138.477 35.695 140.082 34.7688 142.158 34.5854C142.553 34.551 143.047 34.5395 142.991 33.9664C142.935 33.3932 142.474 33.5376 142.121 33.5376H132.813C132.494 33.5376 132.092 33.4367 132.038 33.9343C131.987 34.4318 132.331 34.5235 132.729 34.5991C133.425 34.7069 134.114 34.8605 134.791 35.0577C136.41 35.6217 136.522 36.1559 135.256 37.277C132.002 40.149 128.969 43.2557 126.184 46.5715C123.472 49.7311 121.243 53.264 119.568 57.0583C119.568 56.9276 119.624 56.8061 119.494 57.0583C119.191 57.675 118.474 59.9768 117.888 60.3414C117.736 60.4347 117.564 60.4929 117.386 60.5116C117.208 60.5304 117.028 60.5092 116.859 60.4497C116.69 60.3901 116.537 60.2938 116.412 60.1679C116.286 60.0419 116.191 59.8896 116.134 59.7224C115.975 59.3991 115.668 58.8878 115.417 58.427C114.8 56.9824 114.096 55.5752 113.309 54.213C109.842 48.1764 105.299 42.972 100.278 38.139C99.7264 37.6048 99.154 37.0913 98.6467 36.5204C98.0789 35.8785 98.2092 35.4314 98.9864 35.06C99.731 34.7619 100.515 34.5647 101.313 34.4776C101.69 34.4134 102.114 34.3813 102.063 33.8746C102.011 33.3703 101.597 33.5239 101.271 33.5239H86.684C86.3024 33.5239 85.7532 33.3955 85.7532 33.9801C85.7532 34.4364 86.2186 34.4364 86.5863 34.5281C88.5479 34.9155 90.3489 35.8555 91.773 37.2334C97.1807 42.5387 102.533 47.8944 106.612 54.3231C109.451 58.7824 111.363 63.5672 111.587 68.8885C111.861 75.363 111.638 81.8399 111.712 88.3144C111.712 89.3003 111.056 89.7244 110.316 90.0385C109.22 90.4647 108.066 90.7304 106.891 90.8272C106.481 90.8685 106.025 90.8685 106.044 91.4393C106.063 92.0079 106.561 91.8451 106.886 91.8451H122.986C123.321 91.8314 123.805 91.9598 123.787 91.3751ZM209.264 91.3109C207.44 91.1596 205.262 89.9124 204.917 88.186C203.025 78.77 201.164 69.3723 199.24 59.9402C198.013 53.8989 196.975 47.8073 195.514 41.8234C194.765 38.7672 193.304 35.3443 190.553 33.8059C184.771 30.5686 181.057 36.5433 179.814 41.8532C178.716 46.5669 178.037 51.4274 177.25 56.2031C176.319 61.7353 175.405 67.2653 174.507 72.7929C174.293 74.0769 174.065 75.4066 173.38 76.4842C173.136 76.9378 172.73 77.2858 172.24 77.4608C171.533 77.6488 170.793 77.1697 170.379 76.5186C170.024 75.8287 169.811 75.077 169.75 74.3061C168.89 68.2901 167.512 62.2535 166.67 56.2329C165.874 50.5837 164.929 44.0587 162.853 38.7397C162.174 36.995 161.267 35.2846 159.863 34.136C157.723 32.3752 155.303 32.4899 153.32 34.7596C152.655 35.6229 152.17 36.6069 151.891 37.6553C150.03 43.442 148.964 49.513 147.88 55.5153C145.964 66.141 143.889 76.7382 141.655 87.3033C141.376 88.6331 140.952 90.1531 139.794 90.6919C139.17 90.9785 138.463 90.9189 137.793 91.0106C137.42 91.0565 137.064 91.1917 136.755 91.3981C136.691 91.4566 136.646 91.5315 136.624 91.6143C136.601 91.6971 136.603 91.7844 136.629 91.8662C136.655 91.948 136.703 92.021 136.769 92.0769C136.835 92.1328 136.915 92.1693 137.001 92.1822C140.129 92.2922 143.261 92.2922 146.393 92.1822C146.464 92.1758 146.532 92.1535 146.593 92.1171C146.654 92.0806 146.705 92.0309 146.743 91.9718C146.781 91.9127 146.805 91.8457 146.813 91.7761C146.821 91.7064 146.813 91.6359 146.788 91.57C146.755 91.4816 146.695 91.4056 146.616 91.3522C146.245 91.142 145.829 91.0203 145.402 90.9968C144.643 90.9372 143.805 90.9968 143.224 90.4535C142.437 89.7336 142.581 88.4153 142.8 87.3308C145.844 72.0341 148.89 56.7396 151.938 41.4451C152.198 40.1497 152.482 38.7993 153.274 37.7974C153.456 37.5299 153.723 37.3286 154.032 37.2243C154.628 37.0775 155.182 37.5819 155.54 38.1115C156.517 39.549 156.876 41.3442 157.211 43.0821C159.184 53.3418 161.159 63.6016 163.137 73.859C163.826 77.4379 164.534 81.0466 165.883 84.3985C166.414 85.7191 167.079 87.0351 168.136 87.9178C170.821 90.1715 173.678 87.8169 174.837 85.0405C177.501 78.6553 177.955 71.5297 178.926 64.6975C179.633 59.6811 180.219 54.6647 181.122 49.6804C181.797 45.9686 182.109 42.2934 183.64 38.8223C183.942 38.139 184.366 37.3962 185.059 37.2586C185.753 37.1211 186.493 37.747 186.958 38.3981C188.699 40.8421 188.666 43.685 189.213 46.5578C191.873 60.5074 194.583 74.4478 197.343 88.3786C197.641 89.9193 197.343 90.4948 195.905 90.9418C195.303 91.0846 194.694 91.1956 194.081 91.2743C193.746 91.343 193.229 91.2147 193.285 91.8451C193.318 92.2234 193.839 92.2349 194.132 92.2418C199.153 92.2693 204.182 92.2418 209.208 92.2418C209.706 92.2418 209.673 92.2876 209.673 91.7534C209.671 91.6434 209.628 91.538 209.553 91.4567C209.477 91.3754 209.375 91.3236 209.264 91.3109ZM266.087 91.233C265.902 91.112 265.695 91.0257 265.478 90.9785C264.891 90.8501 264.272 90.9189 263.691 90.7538C262.225 90.3251 261.513 88.5895 261.001 87.0557C255.851 71.6191 250.702 56.187 245.55 40.7665C244.943 38.9415 244.293 36.8712 243.116 35.3764C242.115 34.1085 240.519 33.2373 239.011 33.6247C237.573 33.9939 236.573 35.3718 235.856 36.7566C233.873 40.5785 233.013 45.0056 231.609 49.0683C230.106 53.4427 228.785 57.902 227.374 62.2948C224.647 70.835 221.869 79.3592 219.207 87.9224C218.662 89.6786 217.557 90.3205 216.045 90.9487C215.692 91.0772 215.327 91.1694 214.956 91.2238C214.882 91.2371 214.813 91.2659 214.752 91.3083C214.692 91.3507 214.641 91.4056 214.604 91.4691C214.567 91.5324 214.544 91.6032 214.538 91.6762C214.532 91.7492 214.543 91.8226 214.569 91.891C214.602 91.9857 214.665 92.0673 214.749 92.1232C214.833 92.1791 214.933 92.2063 215.035 92.2005H223.47C223.8 92.2005 224.303 92.4068 224.34 91.7764C224.368 91.233 223.949 91.2192 223.568 91.1505C222.862 91.0449 222.164 90.8933 221.478 90.6965C220.105 90.238 219.779 89.5914 220.231 88.17C224.897 73.5024 229.579 58.8399 234.278 44.1826C234.744 42.6786 235.512 39.2625 237.587 40.042C238.983 40.5578 239.737 42.862 240.231 44.1459C242.306 49.6185 244.2 55.1645 246.092 60.7105C246.149 60.8781 246.143 61.0604 246.075 61.2238C246.006 61.3873 245.88 61.5209 245.72 61.6001C245.613 61.6533 245.495 61.6808 245.375 61.6803C243.979 61.6803 240.175 61.6574 238.769 61.6803C238.537 61.6803 238.234 61.623 238.202 61.96C238.169 62.297 238.485 62.3475 238.746 62.3704C241.175 62.5836 245.541 64.1289 246.93 66.0158C248.226 67.8751 249.257 69.8973 249.997 72.0272C250.816 74.2396 251.579 76.4704 252.412 78.6806L252.547 79.029C253.738 82.1654 256.037 86.1088 255.228 89.635C254.925 90.9625 253.208 90.9533 251.933 91.1023C251.379 91.1711 250.704 91.836 251.142 92.2028C256.652 92.2624 261.182 92.2624 266.692 92.2028C266.681 92.0041 266.62 91.8112 266.514 91.6415C266.409 91.4718 266.262 91.333 266.087 91.233ZM89.1505 90.6828C88.8403 90.5554 88.5124 90.4751 88.1779 90.4443C87.9638 90.3942 87.7459 90.362 87.5263 90.348C84.734 90.1531 81.8068 87.8628 79.8196 85.3316C76.1267 80.6087 72.3734 75.9385 68.8993 71.0413C66.7602 67.9783 64.8293 64.7792 63.1192 61.4648C61.5858 58.5141 60.0314 55.5359 59.0541 52.3445C57.872 48.518 60.8505 47.0645 63.217 44.6548C65.7673 42.087 68.4432 39.6293 71.0215 37.1119C72.4468 35.7344 74.2482 34.7952 76.2058 34.4088C76.5595 34.3309 77.0622 34.3309 77.0389 33.8655C77.0133 33.2969 76.4711 33.4092 76.1081 33.4092H61.0297C60.7202 33.4092 60.285 33.2694 60.2385 33.7623C60.192 34.2529 60.6108 34.2988 60.9854 34.363C61.8162 34.4501 62.6283 34.6587 63.3985 34.9797C63.5313 35.0373 63.6479 35.1258 63.7382 35.2377C63.8286 35.3495 63.8901 35.4813 63.9174 35.6217C63.9436 35.763 63.934 35.9086 63.8894 36.0454C63.8447 36.1822 63.7664 36.306 63.6614 36.4058C63.1565 36.9766 62.584 37.4925 62.0326 38.0244C59.2635 40.6931 53.7068 46.6082 48.6923 52.3904C48.4993 52.6142 48.2416 52.7747 47.9536 52.8505C47.6656 52.9263 47.361 52.9138 47.0804 52.8147C46.7998 52.7156 46.5566 52.5345 46.3831 52.2957C46.2096 52.0568 46.1141 51.7715 46.1094 51.4779C46.1094 46.8375 46.1234 42.2017 46.1467 37.5636C46.1304 37.2197 46.1699 36.8712 46.2677 36.5387C47.0635 34.0856 49.9093 35.037 51.8523 34.23C51.8916 34.2114 51.9265 34.1848 51.9548 34.152C51.983 34.1192 52.004 34.0809 52.0163 34.0396C52.0286 33.9983 52.0319 33.955 52.0261 33.9123C52.0203 33.8697 52.0055 33.8287 51.9826 33.7921C51.9517 33.7428 51.9074 33.703 51.8546 33.6775C51.5483 33.5591 51.2198 33.5068 50.8913 33.5239H34.5981C34.3515 33.5239 34.0629 33.5468 33.9745 33.8105C33.9548 33.8708 33.9474 33.9344 33.9529 33.9976C33.9585 34.0608 33.9767 34.1222 34.0066 34.1784C34.0365 34.2345 34.0775 34.2842 34.1271 34.3246C34.1767 34.3649 34.234 34.3952 34.2956 34.4134C35.9827 35.17 38.4539 34.3171 39.1589 36.635C39.2473 36.9308 39.2892 37.238 39.2869 37.5452V87.5166C39.2915 87.8559 39.259 88.1929 39.1938 88.5253C38.7564 90.5406 37.2392 90.3985 35.9361 90.5268C35.4578 90.563 34.9933 90.7015 34.5749 90.9327C34.4795 90.9806 34.4039 91.0594 34.3606 91.1559C34.3174 91.2524 34.3092 91.3606 34.3375 91.4623C34.3668 91.5643 34.431 91.6531 34.5192 91.7137C34.6075 91.7743 34.7143 91.8029 34.8215 91.7947C40.2184 91.8268 45.6153 91.836 51.0123 91.8222C51.4218 91.8222 52.0919 91.7855 52.064 91.3637C51.9244 90.0293 46.5329 91.6755 45.3509 88.6308C45.1683 88.1388 45.0768 87.6185 45.0809 87.0947C45.0437 83.3255 45.281 79.5587 45.2066 75.7918C45.1787 74.5193 45.2182 73.2469 45.3229 71.9745C45.5649 69.0352 44.918 65.814 46.505 63.1339C47.5149 61.4189 49.0227 60.0387 50.4026 58.6058C51.5261 57.4194 52.7146 56.2943 53.9628 55.2356C54.5306 54.7564 55.1728 54.1947 55.9453 54.1397C56.2919 54.1419 56.6334 54.2219 56.9438 54.3737C57.2543 54.5255 57.5256 54.7449 57.7371 55.0155C58.1582 55.5588 58.498 56.1618 58.7423 56.7992C63.3566 67.185 70.0814 76.4704 77.5206 85.0726C79.2006 87.0236 79.3821 88.264 77.2041 89.259C76.1453 89.7771 75.0121 90.1302 73.8417 90.3068C73.6974 90.3251 73.5555 90.3526 73.4135 90.3847H73.3112C73.1195 90.4334 72.9314 90.4946 72.748 90.5681C72.3897 90.708 72.0825 91.5471 72.748 91.5769C72.9714 91.5769 73.2134 91.6342 73.4275 91.6342H88.8713C89.1179 91.6342 89.4111 91.6342 89.4996 91.3476C89.5152 91.2152 89.4904 91.0811 89.4282 90.9626C89.366 90.8442 89.2693 90.7467 89.1505 90.6828Z" fill="#273F32"/>
</g>
</svg>
