<svg width="310" height="155" viewBox="0 0 310 155" fill="none" xmlns="http://www.w3.org/2000/svg">
<g clip-path="url(#clip0_65_1008)">
<path d="M34.9063 88.9947C35.1044 87.3763 35.1962 85.7459 35.1811 84.1147V70.7597C35.1961 69.1284 35.1043 67.498 34.9063 65.8796C34.7131 64.4846 34.41 63.1083 34 61.7646H40.749C40.3367 63.1077 40.0336 64.4841 39.8427 65.8796C39.6447 67.498 39.5529 69.1284 39.5679 70.7597V89.4747C41.4384 89.3447 43.4968 89.3646 45.7481 88.8446C47.5617 88.4618 49.337 87.9044 51.0509 87.1797L51.1232 87.2546L48.7996 93.1097H34C34.41 91.766 34.7131 90.3897 34.9063 88.9947Z" fill="#273F32"/>
<path d="M212.564 61.7646C212.974 63.1083 213.277 64.4846 213.47 65.8796C213.669 67.498 213.76 69.1284 213.745 70.7597V81.4346C213.745 84.1013 213.173 86.118 212.029 87.4847C211.474 88.2316 210.762 88.8365 209.946 89.2528C209.13 89.669 208.233 89.8855 207.324 89.8855C206.415 89.8855 205.518 89.669 204.702 89.2528C203.886 88.8365 203.174 88.2316 202.619 87.4847C201.475 86.128 200.903 84.1113 200.903 81.4346V70.7597C200.889 69.1283 200.982 67.4978 201.182 65.8796C201.371 64.4843 201.673 63.1078 202.084 61.7646H195.335C195.743 63.1084 196.045 64.4847 196.236 65.8796C196.439 67.4976 196.532 69.1282 196.516 70.7597V81.3997C196.516 85.3297 197.297 88.308 198.859 90.3347C200.421 92.3647 203.545 93.5147 207.324 93.5147C211.104 93.5147 214.232 92.3647 215.794 90.3347C217.356 88.3047 218.137 85.3347 218.137 81.3997V70.7597C218.122 69.1284 218.214 67.498 218.412 65.8796C218.603 64.4841 218.906 63.1077 219.318 61.7646H212.564Z" fill="#273F32"/>
<path d="M82.742 89.725C83.428 90.8612 84.1795 91.9533 84.9933 92.995V93.11H77.6463C77.7284 92.7718 77.7658 92.4236 77.7572 92.075C77.745 91.2981 77.6331 90.5263 77.4246 89.78C77.1153 88.6907 76.722 87.6289 76.2483 86.605L74.8021 83.16H63.4734L61.8489 86.72C60.8205 88.9566 60.3062 90.7417 60.3062 92.075C60.307 92.4213 60.3312 92.7672 60.3785 93.11H53.1475V92.995C54.8398 90.7518 56.2944 88.3262 57.4861 85.76L69.5138 61H69.6247L80.8425 85.875C81.4057 87.1996 82.0497 88.4855 82.7709 89.725M65.1414 79.575H73.2595L69.3451 70.315L65.1414 79.575Z" fill="#273F32"/>
<path d="M114.896 82.89C114.896 85.1634 114.958 87.0834 115.08 88.65C115.194 90.1493 115.404 91.6392 115.706 93.11H110.138C109.539 91.5894 108.703 90.1808 107.665 88.94L93.3526 68.675V82.89C93.3319 84.7887 93.4187 86.6869 93.6129 88.575C93.7947 90.1177 94.1027 91.6415 94.5337 93.13H87.7847C88.2079 91.6277 88.516 90.0929 88.7054 88.54C88.8963 86.6701 88.9817 84.7902 88.9609 82.91V63.91C88.3246 63.07 89.5105 64.475 88.9609 63.87C88.4114 63.265 87.7509 62.63 86.9893 61.94V61.785H94.4421C94.7704 62.597 95.1657 63.3783 95.6232 64.12C96.3053 65.1837 97.0438 66.2069 97.8359 67.185L110.51 85.515V72.015C110.528 70.1365 110.443 68.2585 110.254 66.39C110.065 64.835 109.756 63.2983 109.328 61.795H116.077C115.647 63.2837 115.339 64.8075 115.157 66.35C114.963 68.2315 114.877 70.123 114.896 72.015V82.89Z" fill="#273F32"/>
<path d="M149.505 89.725C150.194 90.8589 150.945 91.9508 151.756 92.995V93.11H144.423C144.505 92.7718 144.543 92.4236 144.534 92.075C144.522 91.2981 144.41 90.5263 144.202 89.78C143.89 88.6906 143.496 87.6289 143.021 86.605L141.574 83.16H130.246L128.621 86.72C127.586 88.9566 127.069 90.7417 127.069 92.075C127.07 92.4213 127.094 92.7672 127.141 93.11H119.91V92.995C121.602 90.7518 123.057 88.3262 124.249 85.76L136.301 61H136.411L147.624 85.875C148.189 87.1985 148.833 88.4844 149.553 89.725M131.89 79.575H140.013L136.098 70.315L131.89 79.575Z" fill="#273F32"/>
<path d="M174.433 88.9947C174.631 87.3763 174.722 85.7459 174.707 84.1147V70.7597C174.722 69.1284 174.631 67.498 174.433 65.8796C174.242 64.4841 173.939 63.1077 173.526 61.7646H180.275C179.865 63.1078 179.563 64.4843 179.374 65.8796C179.171 67.4976 179.078 69.1282 179.094 70.7597V89.4747C180.965 89.3447 183.023 89.3646 185.274 88.8446C187.088 88.4606 188.863 87.9033 190.577 87.1797L190.65 87.2546L188.326 93.1097H173.526C173.939 91.7666 174.242 90.3902 174.433 88.9947Z" fill="#273F32"/>
<path d="M226.419 92.2705V85.9155H226.568C227.528 87.1483 228.667 88.2194 229.943 89.0905C230.952 89.6923 232.101 89.9965 233.264 89.9705C234.513 90.0084 235.725 89.5341 236.639 88.6505C237.081 88.2319 237.432 87.7199 237.667 87.1489C237.902 86.5779 238.017 85.9613 238.003 85.3405C238.01 84.6421 237.844 83.9535 237.521 83.3405C237.071 82.5947 236.481 81.9503 235.786 81.4455C234.661 80.5951 233.484 79.8218 232.262 79.1305C230.073 77.8571 228.529 76.5488 227.629 75.2055C226.703 73.7631 226.233 72.0575 226.284 70.3255C226.288 68.8016 226.69 67.3072 227.446 66.0005C228.234 64.6135 229.36 63.4653 230.709 62.6705C232.16 61.8173 233.805 61.3822 235.472 61.4105C237.468 61.3952 239.44 61.8662 241.228 62.7855V67.5305L241.117 67.5705C240.287 66.7713 239.332 66.1238 238.292 65.6555C237.393 65.2945 236.436 65.113 235.472 65.1205C234.598 65.099 233.733 65.3108 232.961 65.7355C232.281 66.1099 231.713 66.6724 231.322 67.3605C230.943 68.0141 230.745 68.763 230.748 69.5255C230.752 70.7066 231.18 71.8439 231.948 72.7155C232.742 73.6755 234.163 74.7421 236.21 75.9155C237.563 76.669 238.853 77.5387 240.066 78.5155C240.952 79.2274 241.659 80.1494 242.129 81.2041C242.599 82.2587 242.817 83.4149 242.766 84.5755C242.805 86.2741 242.34 87.9441 241.436 89.3605C240.543 90.7204 239.296 91.7887 237.839 92.4405C236.251 93.1582 234.534 93.5179 232.802 93.4955C230.617 93.5292 228.448 93.1128 226.419 92.2705Z" fill="#273F32"/>
<path d="M273.922 89.725C274.511 90.86 275.173 91.9525 275.904 92.995V93.11H268.832C268.911 92.7714 268.949 92.4235 268.943 92.075C268.931 91.2981 268.818 90.5263 268.61 89.78C268.297 88.6914 267.902 87.6299 267.429 86.605L265.983 83.16H254.654L253.029 86.72C252.004 88.9566 251.492 90.7417 251.492 92.075C251.493 92.4213 251.517 92.7672 251.564 93.11H244.627V92.995C246.006 91.26 247.148 88.85 248.647 85.76L260.699 61H260.81L272.023 85.875C272.588 87.1985 273.232 88.4844 273.951 89.725M256.322 79.575H264.459L260.55 70.315L256.322 79.575Z" fill="#273F32"/>
</g>
<defs>
<clipPath id="clip0_65_1008">
<rect width="242" height="33" fill="white" transform="translate(34 61)"/>
</clipPath>
</defs>
</svg>
