<svg width="40" height="40" viewBox="0 0 40 40" fill="none" xmlns="http://www.w3.org/2000/svg">
<rect width="40" height="40" rx="20" fill="#FFCDB7"/>
<path d="M29.6201 18.5059H10.3799C9.96927 18.5059 9.71997 18.6523 9.63198 18.9453C9.54399 19.2383 9.5 19.5898 9.5 20C9.5 20.4102 9.54399 20.7617 9.63198 21.0547C9.71997 21.3477 9.96927 21.4941 10.3799 21.4941H29.6201C30.0307 21.4941 30.28 21.3477 30.368 21.0547C30.456 20.7617 30.5 20.4102 30.5 20C30.5 19.5898 30.456 19.2383 30.368 18.9453C30.28 18.6523 30.0307 18.5059 29.6201 18.5059ZM29.6201 24.5117H10.3799C9.96927 24.5117 9.71997 24.6582 9.63198 24.9512C9.54399 25.2441 9.5 25.5957 9.5 26.0059C9.5 26.416 9.54399 26.7676 9.63198 27.0605C9.71997 27.3535 9.96927 27.5 10.3799 27.5H29.6201C30.0307 27.5 30.28 27.3535 30.368 27.0605C30.456 26.7676 30.5 26.416 30.5 26.0059C30.5 25.5957 30.456 25.2441 30.368 24.9512C30.28 24.6582 30.0307 24.5117 29.6201 24.5117ZM10.3799 15.5176H29.6201C30.0307 15.5176 30.28 15.3711 30.368 15.0781C30.456 14.7852 30.5 14.4238 30.5 13.9941C30.5 13.584 30.456 13.2324 30.368 12.9395C30.28 12.6465 30.0307 12.5 29.6201 12.5H10.3799C9.96927 12.5 9.71997 12.6465 9.63198 12.9395C9.54399 13.2324 9.5 13.584 9.5 13.9941C9.5 14.4238 9.54399 14.7852 9.63198 15.0781C9.71997 15.3711 9.96927 15.5176 10.3799 15.5176Z" fill="black"/>
</svg>
