<svg width="240" height="240" viewBox="0 0 240 240" fill="none" xmlns="http://www.w3.org/2000/svg">
<g opacity="0.6" clip-path="url(#clip0_142_2)">
<path d="M120 240C53.7168 240 4.54543e-06 186.283 1.03401e-05 120C1.61347e-05 53.7168 53.7169 -6.09596e-06 120 -3.01299e-07" fill="url(#paint0_linear_142_2)"/>
<path d="M120 -1.0792e-05L120 59.9832C153.142 59.9832 179.983 86.8584 179.983 119.966C179.983 153.075 153.108 179.95 120 179.95L120 240C186.283 240 240 186.283 240 120C240 53.7168 186.283 -4.99737e-06 120 -1.0792e-05Z" fill="url(#paint1_linear_142_2)"/>
</g>
<defs>
<linearGradient id="paint0_linear_142_2" x1="60" y1="-5.24537e-06" x2="60" y2="240" gradientUnits="userSpaceOnUse">
<stop stop-color="#C8EFA0"/>
<stop offset="1" stop-color="#E6E6E6"/>
</linearGradient>
<linearGradient id="paint1_linear_142_2" x1="180" y1="240" x2="180" y2="-5.24537e-06" gradientUnits="userSpaceOnUse">
<stop stop-color="#C8EFA0"/>
<stop offset="1" stop-color="#E6E6E6"/>
</linearGradient>
<clipPath id="clip0_142_2">
<rect width="240" height="240" fill="white" transform="translate(240 240) rotate(-180)"/>
</clipPath>
</defs>
</svg>
