<svg width="360" height="240" viewBox="0 0 360 240" fill="none" xmlns="http://www.w3.org/2000/svg">
<path d="M240 120H180.017C180.017 153.142 153.142 179.983 120.034 179.983C86.9254 179.983 60.0503 153.108 60.0503 120H0C0 186.283 53.7168 240 120 240C186.283 240 240 186.283 240 120Z" fill="url(#paint0_linear_142_9)" fill-opacity="0.5"/>
<path d="M120 120H180C180 86.8584 206.883 60.0168 240 60.0168C273.117 60.0168 300 86.8919 300 120H360C360.067 53.7168 306.335 0 240.033 0C173.732 0 120 53.7168 120 120Z" fill="url(#paint1_linear_142_9)" fill-opacity="0.5"/>
<defs>
<linearGradient id="paint0_linear_142_9" x1="120" y1="120" x2="120" y2="240" gradientUnits="userSpaceOnUse">
<stop stop-color="#C8EFA0"/>
<stop offset="1" stop-color="#EAF4E7"/>
</linearGradient>
<linearGradient id="paint1_linear_142_9" x1="240" y1="0" x2="240" y2="120" gradientUnits="userSpaceOnUse">
<stop stop-color="#C8EFA0"/>
<stop offset="1" stop-color="#EAF4E7"/>
</linearGradient>
</defs>
</svg>
