<svg width="28" height="22" viewBox="0 0 28 22" fill="none" xmlns="http://www.w3.org/2000/svg">
<g clip-path="url(#clip0_65_835)">
<path d="M24.6812 5.48387C24.6812 5.6129 24.6812 5.73656 24.6812 5.85484C24.6812 5.97312 24.6812 6.09677 24.6812 6.22581C24.6812 8.05377 24.3315 9.90322 23.6323 11.7742C22.9331 13.6452 21.906 15.3387 20.5513 16.8548C19.1965 18.371 17.5248 19.6021 15.5364 20.5484C13.5479 21.5161 11.2535 22 8.65316 22C7.058 22 5.52841 21.7796 4.06436 21.3387C2.60031 20.8978 1.24554 20.2796 0 19.4839C0.240367 19.5269 0.469804 19.5484 0.688319 19.5484C0.906835 19.5484 1.13627 19.5484 1.37664 19.5484C2.68773 19.5484 3.93871 19.3441 5.12962 18.9355C6.32053 18.5269 7.3967 17.9462 8.35816 17.1935C7.13448 17.172 6.04192 16.8011 5.08045 16.0806C4.11899 15.3602 3.45252 14.4516 3.08105 13.3548C3.25586 13.3763 3.43613 13.3978 3.62187 13.4194C3.80761 13.4409 3.98788 13.4516 4.16269 13.4516C4.42491 13.4516 4.6762 13.4301 4.91657 13.3871C5.15693 13.3441 5.3973 13.3011 5.63766 13.2581C4.34842 13 3.27225 12.3656 2.40912 11.3548C1.54598 10.3441 1.11442 9.1613 1.11442 7.80645V7.74194C1.50775 7.93548 1.91746 8.09677 2.34356 8.22581C2.76967 8.35484 3.21216 8.43011 3.67104 8.45161C2.90623 7.95699 2.2944 7.30108 1.83552 6.48387C1.37664 5.66666 1.1472 4.78495 1.1472 3.83871C1.1472 3.32258 1.21822 2.82796 1.36025 2.35484C1.50229 1.88172 1.69348 1.44086 1.93385 1.03226C2.6331 1.87097 3.40882 2.63441 4.26102 3.32258C5.11323 4.01076 6.03098 4.60215 7.0143 5.09677C7.99762 5.5914 9.04648 5.98925 10.1609 6.29032C11.2535 6.5914 12.3788 6.77419 13.5369 6.83871C13.4932 6.62365 13.4605 6.4086 13.4386 6.19355C13.4168 5.97849 13.4058 5.76344 13.4058 5.54839C13.4058 4.0215 13.9521 2.71506 15.0447 1.62903C16.1373 0.543005 17.4702 0 19.0435 0C19.852 0 20.6113 0.161289 21.3215 0.483871C22.0317 0.806453 22.6381 1.23656 23.1406 1.77419C23.7962 1.64516 24.4244 1.46774 25.0253 1.24194C25.6262 1.01613 26.1889 0.741937 26.7134 0.419355C26.5167 1.06452 26.2053 1.65054 25.7792 2.17742C25.3531 2.7043 24.8451 3.13978 24.2551 3.48387C24.8232 3.41935 25.3804 3.31183 25.9267 3.16129C26.473 3.01075 26.9974 2.82796 27.5 2.6129C27.1067 3.17205 26.6751 3.69355 26.2053 4.17742C25.7355 4.66129 25.2275 5.09677 24.6812 5.48387Z" fill="#273F32"/>
</g>
<defs>
<clipPath id="clip0_65_835">
<rect width="27.5" height="22" fill="white"/>
</clipPath>
</defs>
</svg>
