<svg width="70" height="84" viewBox="0 0 70 84" fill="none" xmlns="http://www.w3.org/2000/svg">
<path d="M35.5515 0H23.9701L20.8013 31.5347H19.2907L15.983 16.9389L11.4338 0H0.546948L13.7778 39.388L0 82.6289H11.5727L15.8441 45.4451H17.0856L20.3933 63.4859L24.9425 82.6289H35.8207L22.5984 37.6004L35.5515 0Z" fill="#EADE00"/>
<path d="M60.346 52.3351C60.346 58.7654 59.704 64.0846 58.4189 68.3106C57.1339 72.5367 55.5281 74.6457 53.6005 74.6457C52.3157 74.6457 51.4388 74.0986 50.9787 72.9965C50.5186 71.8944 50.2928 70.0634 50.2928 67.4866V0H40.6475V72.8493C40.6475 76.2422 41.4723 78.9584 43.1304 80.9712C44.7887 82.9846 46.8983 84 49.4681 84C52.498 84 55.068 82.3514 57.186 79.0451C59.2955 75.7388 60.9975 69.3606 62.2821 59.9021L63.6629 60.1796L60.355 81.1105V82.6289H70.0003V0H60.355V52.3351H60.346Z" fill="#EADE00"/>
</svg>
