<svg width="32" height="22" viewBox="0 0 32 22" fill="none" xmlns="http://www.w3.org/2000/svg">
<g clip-path="url(#clip0_65_839)">
<path d="M31.2559 3.45819C31.0842 2.79598 30.7531 2.21349 30.2625 1.7107C29.772 1.20791 29.1834 0.870681 28.4967 0.698997C27.8835 0.527312 26.9025 0.39242 25.5535 0.294314C24.18 0.220735 22.8066 0.159421 21.4331 0.110368C20.0596 0.0613152 18.8456 0.036789 17.791 0.036789C16.7363 0.0122628 16.209 0 16.209 0C16.209 0 15.6817 0.0122628 14.6271 0.036789C13.5725 0.036789 12.3584 0.0551836 10.9849 0.0919731C9.61148 0.128763 8.23802 0.183946 6.86455 0.257525C5.5156 0.35563 4.53456 0.490523 3.9214 0.662207C3.25919 0.833892 2.6767 1.17112 2.17391 1.67391C1.67112 2.1767 1.33389 2.75919 1.16221 3.4214C0.818839 4.67225 0.622631 6.24804 0.573579 8.14883C0.524526 10.0496 0.5 11 0.5 11C0.5 11 0.524526 11.9565 0.573579 13.8696C0.622631 15.7826 0.806576 17.34 1.12542 18.5418C1.2971 19.2285 1.63433 19.8172 2.13712 20.3077C2.63991 20.7982 3.2224 21.1416 3.88462 21.3378C4.5223 21.4849 5.5156 21.6076 6.86455 21.7057C8.2135 21.8038 9.58082 21.8774 10.9666 21.9264C12.3523 21.9755 13.5725 22 14.6271 22C15.6572 22 16.1722 22 16.1722 22C16.1722 22 16.6995 22 17.7542 22C18.8088 22 20.029 21.9816 21.4147 21.9448C22.8005 21.908 24.1678 21.8406 25.5167 21.7425C26.8657 21.6689 27.8467 21.5463 28.4599 21.3746C29.1466 21.2029 29.7352 20.8657 30.2258 20.3629C30.7163 19.8601 31.0596 19.2776 31.2559 18.6154C31.5747 17.3891 31.7648 15.8194 31.8261 13.9064C31.8874 11.9933 31.9181 11.0368 31.9181 11.0368C31.9181 11.0368 31.8935 10.0803 31.8445 8.16722C31.7954 6.25417 31.5992 4.68451 31.2559 3.45819ZM13.0451 15.709L13.0819 6.29097L21.2492 11L13.0451 15.709Z" fill="#273F32"/>
</g>
<defs>
<clipPath id="clip0_65_839">
<rect width="31.4181" height="22" fill="white" transform="translate(0.5)"/>
</clipPath>
</defs>
</svg>
