<svg width="11" height="22" viewBox="0 0 11 22" fill="none" xmlns="http://www.w3.org/2000/svg">
    <g clip-path="url(#a3id0kll8a)">
        <path d="M7.158 22V11.974h3.262l.47-3.925H7.157V5.557c0-.573.115-1.036.346-1.389.23-.353.732-.53 1.506-.53H11V.143c-.48-.038-.963-.071-1.451-.1A24.773 24.773 0 0 0 8.098 0c-1.437 0-2.607.444-3.51 1.332-.903.888-1.354 2.172-1.354 3.853v2.864H0v3.925h3.234V22h3.924z" fill="#fff"/>
    </g>
    <defs>
        <clipPath id="a3id0kll8a">
            <path fill="#fff" d="M0 0h11v22H0z"/>
        </clipPath>
    </defs>
</svg>
