<svg width="23" height="22" viewBox="0 0 23 22" fill="none" xmlns="http://www.w3.org/2000/svg">
    <g clip-path="url(#m3iuc33iga)">
        <path d="M11.5 5.343a5.69 5.69 0 0 0-2.206.428 5.884 5.884 0 0 0-1.79 1.215A5.867 5.867 0 0 0 6.286 8.77a5.65 5.65 0 0 0-.43 2.2c0 .781.144 1.515.43 2.2a5.867 5.867 0 0 0 1.218 1.786c.506.505 1.103.91 1.79 1.214a5.69 5.69 0 0 0 2.206.429 5.69 5.69 0 0 0 2.206-.429 5.883 5.883 0 0 0 1.79-1.214c.506-.505.912-1.1 1.217-1.786.287-.685.43-1.419.43-2.2 0-.78-.143-1.514-.43-2.2a5.866 5.866 0 0 0-1.217-1.785 5.884 5.884 0 0 0-1.79-1.215 5.69 5.69 0 0 0-2.206-.428zm0 9.286a3.537 3.537 0 0 1-2.592-1.072 3.519 3.519 0 0 1-1.075-2.586c0-1.01.358-1.871 1.075-2.585A3.537 3.537 0 0 1 11.5 7.314c1.012 0 1.876.357 2.592 1.072a3.519 3.519 0 0 1 1.075 2.585c0 1.01-.358 1.872-1.075 2.586A3.537 3.537 0 0 1 11.5 14.63zm7.19-9.515c0-.362-.129-.666-.387-.914a1.296 1.296 0 0 0-.93-.371c-.364 0-.674.123-.932.371a1.218 1.218 0 0 0-.386.914c0 .381.129.696.386.943.258.248.569.372.931.372.363 0 .674-.124.931-.372.258-.247.387-.562.387-.943zM21.927 3.8a5.56 5.56 0 0 0-1.275-1.957A5.638 5.638 0 0 0 18.72.57a9.491 9.491 0 0 0-1.332-.357 7.237 7.237 0 0 0-1.361-.128 34.162 34.162 0 0 0-1.575-.072C13.973.004 12.99 0 11.5 0S9.027.005 8.55.014c-.478.01-1.003.034-1.576.072-.458 0-.912.043-1.36.128A8.484 8.484 0 0 0 4.31.571a5.577 5.577 0 0 0-1.962 1.272A5.56 5.56 0 0 0 1.073 3.8C.92 4.22.8 4.652.715 5.1c-.086.448-.139.9-.158 1.357-.019.59-.033 1.12-.043 1.586C.504 8.51.5 9.486.5 10.97c0 1.486.005 2.467.014 2.943.01.476.024 1.01.043 1.6.02.457.072.905.158 1.343.086.438.205.876.358 1.314a5.42 5.42 0 0 0 1.275 1.943 5.675 5.675 0 0 0 1.962 1.257c.42.172.854.305 1.303.4.45.096.903.143 1.361.143a36.58 36.58 0 0 0 1.59.072c.468.01 1.446.014 2.936.014s2.473-.005 2.95-.014c.478-.01 1.013-.034 1.605-.072.439 0 .883-.043 1.332-.128a9.486 9.486 0 0 0 1.332-.357 5.436 5.436 0 0 0 1.948-1.272 5.657 5.657 0 0 0 1.26-1.957c.172-.419.3-.852.387-1.3.086-.448.129-.9.129-1.357.019-.59.033-1.12.043-1.586.01-.466.014-1.443.014-2.928V8.07c0-.466-.02-.995-.057-1.585 0-.457-.043-.915-.13-1.372a6.726 6.726 0 0 0-.386-1.314zm-1.49 11.6c0 .362-.033.714-.1 1.057a7.01 7.01 0 0 1-.272 1 3.645 3.645 0 0 1-.83 1.286 3.386 3.386 0 0 1-1.261.8 4.636 4.636 0 0 1-1.003.286 9.51 9.51 0 0 1-1.03.114c-.593.019-1.113.033-1.562.043-.449.01-1.418.014-2.908.014s-2.458-.005-2.907-.014c-.449-.01-.97-.024-1.561-.043a5.34 5.34 0 0 1-1.046-.1 6.135 6.135 0 0 1-1.017-.3 3.386 3.386 0 0 1-1.26-.8 3.644 3.644 0 0 1-.831-1.286 7.017 7.017 0 0 1-.272-1 5.363 5.363 0 0 1-.1-1.028 23.357 23.357 0 0 1-.058-1.543V8.07c0-.447.02-.966.058-1.557 0-.343.033-.685.1-1.028.067-.343.157-.686.272-1.029.19-.476.468-.895.83-1.257a3.717 3.717 0 0 1 1.261-.829A8.487 8.487 0 0 1 5.957 2.1c.334-.067.683-.1 1.046-.1.573-.02 1.088-.033 1.546-.043.459-.01 1.433-.014 2.922-.014h2.908c.449 0 .97.019 1.561.057.344 0 .688.033 1.031.1a7.07 7.07 0 0 1 1.003.271c.477.19.898.467 1.26.829.363.362.64.78.831 1.257.115.343.205.681.272 1.014.067.334.1.681.1 1.043.02.572.034 1.086.043 1.543.01.457.015 1.429.015 2.914v2.9c0 .448-.01.958-.029 1.529h-.029z" fill="#304FE8"/>
    </g>
    <defs>
        <clipPath id="m3iuc33iga">
            <path fill="#fff" transform="translate(.5)" d="M0 0h22v22H0z"/>
        </clipPath>
    </defs>
</svg>
