<svg width="130" height="39" viewBox="0 0 130 39" fill="none" xmlns="http://www.w3.org/2000/svg">
    <path d="M19.79 23.444c-7.105 3.474-15.433 1.034-18.582-5.421-3.15-6.455.074-14.554 7.18-18.023l3.531 7.256c-3.111 1.522-4.667 4.766-3.469 7.23 1.198 2.465 4.705 3.233 7.816 1.715l3.524 7.243z" fill="#304FE8"/>
    <path d="M28.395 39c7.31-3.562 10.725-11.635 7.626-18.028-3.1-6.393-11.54-8.686-18.853-5.125L28.395 39z" fill="#48D18A"/>
    <path d="M52.154 8.072a3.615 3.615 0 0 0-2.658-.983h-3.64v10.04h3.64a3.617 3.617 0 0 0 2.658-.982c1.041-1.055 1.033-2.41 1.025-3.721v-.717c.008-1.33.017-2.582-1.025-3.637zm-1.624 6.417a1.428 1.428 0 0 1-1.204.506h-1.162V9.236h1.158a1.4 1.4 0 0 1 1.2.506c.295.367.345.933.345 2.338s-.046 2.037-.337 2.409zm6.664-7.4h-2.307v10.04h2.307V7.09zm7.773 4.78a3.356 3.356 0 0 0-1.933-.798l-1.116-.16a1.435 1.435 0 0 1-.75-.316.702.702 0 0 1-.204-.515c0-.603.47-.979 1.25-.979a2.395 2.395 0 0 1 1.778.595l.162.156 1.496-1.498-.171-.164a4.26 4.26 0 0 0-1.484-.93 4.22 4.22 0 0 0-1.727-.251c-2.108 0-3.524 1.265-3.524 3.139a2.762 2.762 0 0 0 .75 2.046 3.39 3.39 0 0 0 1.957.843l1.142.16c.26.01.51.107.712.275a.873.873 0 0 1 .216.637c0 .629-.483.95-1.44.95a2.812 2.812 0 0 1-2.121-.739l-.163-.165-1.52 1.536.163.169c.908.932 1.99 1.333 3.615 1.333 2.233 0 3.749-1.266 3.749-3.139a2.935 2.935 0 0 0-.858-2.185h.02zm1.64-2.645h2.467v7.906h2.307V9.236h2.47V7.101h-7.264l.02 2.123zm10.83 4.088h.954l1.846 3.818h2.661l-2.17-4.244c.5-.225.923-.596 1.214-1.064a2.82 2.82 0 0 0 .423-1.569c0-1.86-1.358-3.164-3.299-3.164h-3.92v10.04h2.304l-.012-3.817zm0-4.088h1.508a1.009 1.009 0 0 1 .78.266 1.036 1.036 0 0 1 .333.763 1.045 1.045 0 0 1-.332.763 1.017 1.017 0 0 1-.78.266h-1.508V9.224zm8.956-2.135h-2.308v10.04h2.308V7.09zm9.318 7.05a2.47 2.47 0 0 0-.259-1.226c-.19-.379-.474-.7-.824-.934.295-.234.534-.532.699-.872.164-.341.25-.715.25-1.095 0-1.801-1.207-2.923-3.153-2.923h-4.032v10.04h4.187c1.895 0 3.124-1.176 3.124-2.99h.008zm-4.998-4.915h1.574c.629 0 .991.316.991.869 0 .552-.362.869-.991.869h-1.575V9.224zm0 5.771v-1.886h1.695a.868.868 0 0 1 .722.226.89.89 0 0 1 .282.71.913.913 0 0 1-.282.714.888.888 0 0 1-.722.236h-1.695zm13.962-7.906h-2.291v6.459c0 .953-.529 1.527-1.417 1.527-.887 0-1.4-.574-1.4-1.527v-6.46H97.26v6.527c0 2.08 1.558 3.595 3.707 3.595 2.15 0 3.708-1.515 3.708-3.595V7.09zm8.401 0h-7.26v2.147h2.47v7.906h2.303V9.236h2.462l.025-2.147zm1.304 10.04h6.668v-2.134h-4.377v-1.86h3.728V11h-3.728V9.236h4.377V7.101h-6.685l.017 10.029zM130 12.068v-.358c0-1.33 0-2.582-1.025-3.637a3.649 3.649 0 0 0-1.231-.762 3.613 3.613 0 0 0-1.426-.221h-3.645v10.04h3.645a3.614 3.614 0 0 0 2.657-.982c1.041-1.055 1.033-2.41 1.025-3.721v-.359zm-2.654 2.422a1.425 1.425 0 0 1-1.203.506h-1.179V9.236h1.162a1.41 1.41 0 0 1 1.204.506c.291.367.345.933.345 2.338s-.045 2.037-.345 2.409h.016zM50.634 24.804l-1.117-.165a1.4 1.4 0 0 1-.75-.312.71.71 0 0 1-.203-.519c0-.599.47-.974 1.25-.974a2.396 2.396 0 0 1 1.778.595l.162.156 1.496-1.498-.171-.165a4.263 4.263 0 0 0-1.484-.93 4.219 4.219 0 0 0-1.728-.25c-2.107 0-3.523 1.265-3.523 3.134a2.769 2.769 0 0 0 .745 2.05c.55.485 1.236.78 1.962.844l1.104.186c.262.012.513.11.716.278a.847.847 0 0 1 .217.637c0 .629-.483.95-1.441.95a2.83 2.83 0 0 1-2.12-.739l-.163-.169-1.52 1.54.162.165c.908.936 1.991 1.333 3.616 1.333 2.232 0 3.748-1.266 3.748-3.135a2.932 2.932 0 0 0-.803-2.202 3.31 3.31 0 0 0-1.933-.81zm4.273 6.054h6.69v-2.13h-4.361v-1.861h3.728v-2.135h-3.728v-1.776h4.382v-2.135h-6.71v10.037zm15.529-6.856c0-1.864-1.358-3.164-3.3-3.164h-3.931v10.037h2.303V27.04h.954l1.845 3.818h2.674l-2.17-4.24a2.77 2.77 0 0 0 1.202-1.06 2.82 2.82 0 0 0 .423-1.556zm-3.42 1.03h-1.508v-2.06h1.508a1.007 1.007 0 0 1 .78.267 1.032 1.032 0 0 1 .333.763 1.045 1.045 0 0 1-.333.764 1.02 1.02 0 0 1-.78.266zm8.13 1.468-1.728-5.679h-2.437l3.274 10.037h1.725l3.286-10.037H76.85L75.147 26.5zm5 4.358h2.307V20.821h-2.308v10.037zm7.717-7.982c.332-.013.657.1.91.319.253.218.416.524.457.858l.045.177H91.6l-.046-.27c-.33-2.017-1.716-3.219-3.707-3.219a3.66 3.66 0 0 0-1.47.276 3.701 3.701 0 0 0-1.242.842c-.43.42-.72.963-.833 1.557a18.162 18.162 0 0 0 0 4.847c.12.593.41 1.136.833 1.561.354.362.777.648 1.243.839.466.192.966.285 1.469.275 1.99 0 3.378-1.202 3.707-3.219l.046-.27h-2.325l-.045.177c-.04.335-.202.642-.456.861a1.314 1.314 0 0 1-.91.32 1.235 1.235 0 0 1-1.017-.421c-.316-.342-.416-.696-.416-2.532 0-1.835.083-2.202.416-2.552a1.25 1.25 0 0 1 .996-.426h.02zm5.09 7.982h6.665v-2.13h-4.382v-1.861h3.749v-2.135h-3.749v-1.776h4.382v-2.135h-6.665v10.037zm12.126-6.054-1.112-.165a1.387 1.387 0 0 1-.75-.312.71.71 0 0 1-.208-.519c0-.599.47-.974 1.228-.974a2.39 2.39 0 0 1 1.779.595l.162.156 1.496-1.498-.171-.165a4.258 4.258 0 0 0-1.484-.93 4.222 4.222 0 0 0-1.728-.25c-2.107 0-3.523 1.265-3.523 3.134a2.766 2.766 0 0 0 .749 2.05 3.39 3.39 0 0 0 1.958.844l1.141.16c.261.011.512.11.713.279a.847.847 0 0 1 .22.637c0 .628-.487.949-1.445.949a2.82 2.82 0 0 1-2.116-.738l-.167-.17-1.516 1.54.159.165c.912.937 1.991 1.334 3.615 1.334 2.233 0 3.749-1.266 3.749-3.135a2.916 2.916 0 0 0-.804-2.202 3.309 3.309 0 0 0-1.966-.785h.021z" fill="#304FE8"/>
</svg>
