<svg width="241" height="72" viewBox="0 0 241 72" fill="none" xmlns="http://www.w3.org/2000/svg">
    <path d="M36.535 43.282C23.418 49.695 8.043 45.19 2.23 33.273-3.584 21.356 2.368 6.405 15.485 0l6.52 13.396c-5.744 2.81-8.617 8.8-6.405 13.349 2.212 4.55 8.686 5.966 14.43 3.164l6.505 13.373zM52.427 72c13.494-6.574 19.799-21.479 14.077-33.28C60.783 26.916 45.2 22.682 31.7 29.257L52.427 72zM96.283 14.834a6.736 6.736 0 0 0-2.273-1.407 6.674 6.674 0 0 0-2.633-.408h-6.721v18.538h6.72a6.674 6.674 0 0 0 2.634-.408 6.738 6.738 0 0 0 2.273-1.407c1.922-1.947 1.907-4.448 1.892-6.87v-1.324c.015-2.453.03-4.767-1.892-6.714zm-3 11.847c-.27.323-.612.576-.999.739-.386.162-.805.23-1.223.195h-2.145V16.985h2.138c.416-.035.834.032 1.22.195.385.162.726.416.995.74.545.677.638 1.72.638 4.314 0 2.594-.085 3.762-.623 4.448zm12.305-13.662h-4.261v18.538h4.261V13.019zm14.349 8.825a6.194 6.194 0 0 0-3.568-1.472l-2.061-.296a2.651 2.651 0 0 1-1.384-.584 1.311 1.311 0 0 1-.377-.95c0-1.114.869-1.807 2.307-1.807a4.424 4.424 0 0 1 3.283 1.098l.3.288 2.761-2.765-.315-.304a7.873 7.873 0 0 0-2.74-1.717 7.788 7.788 0 0 0-3.189-.464c-3.891 0-6.506 2.337-6.506 5.795a5.074 5.074 0 0 0 1.384 3.777 6.26 6.26 0 0 0 3.615 1.559l2.107.296c.481.017.943.195 1.315.506a1.626 1.626 0 0 1 .4 1.176c0 1.16-.893 1.752-2.661 1.752a5.186 5.186 0 0 1-2.095-.274 5.235 5.235 0 0 1-1.819-1.089l-.3-.303-2.807 2.835.3.311c1.676 1.721 3.676 2.462 6.675 2.462 4.121 0 6.921-2.337 6.921-5.795a5.426 5.426 0 0 0-.371-2.187 5.358 5.358 0 0 0-1.214-1.848h.039zm3.03-4.883h4.552v14.596h4.26V16.984h4.56v-3.941h-13.411l.039 3.918zm19.993 7.547h1.761l3.407 7.049h4.914l-4.007-7.836a5.109 5.109 0 0 0 2.241-1.964c.538-.866.81-1.874.781-2.896 0-3.435-2.507-5.842-6.09-5.842h-7.236v18.538h4.252l-.023-7.05zm0-7.547h2.784a1.858 1.858 0 0 1 1.441.491 1.916 1.916 0 0 1 .613 1.409 1.922 1.922 0 0 1-.613 1.409 1.88 1.88 0 0 1-1.441.492h-2.784V16.96zm16.533-3.942h-4.26v18.538h4.26V13.019zm17.203 13.015a4.554 4.554 0 0 0-.478-2.262 4.484 4.484 0 0 0-1.522-1.725c.545-.43.987-.981 1.29-1.61.304-.63.463-1.32.464-2.02 0-3.326-2.23-5.398-5.822-5.398h-7.443v18.538h7.728c3.499 0 5.767-2.173 5.767-5.523h.016zm-9.228-9.073h2.907c1.161 0 1.83.584 1.83 1.604s-.669 1.604-1.83 1.604h-2.907v-3.208zm0 10.655v-3.482h3.13a1.6 1.6 0 0 1 1.333.418 1.651 1.651 0 0 1 .52 1.311 1.69 1.69 0 0 1-.52 1.318 1.639 1.639 0 0 1-1.333.434h-3.13zm25.776-14.597h-4.229v11.925c0 1.76-.977 2.82-2.615 2.82-1.638 0-2.584-1.06-2.584-2.82V13.019h-4.26v12.05c0 3.84 2.876 6.636 6.844 6.636 3.968 0 6.844-2.796 6.844-6.636v-12.05zm15.511 0h-13.404v3.965h4.56V31.58h4.253V16.984h4.544l.047-3.965zm2.407 18.538h12.311v-3.941h-8.082V24.18h6.882V20.24h-6.882v-3.256h8.082v-3.941h-12.342l.031 18.514zm28.836-9.347v-.662c0-2.453 0-4.767-1.891-6.714a6.743 6.743 0 0 0-2.273-1.407 6.674 6.674 0 0 0-2.633-.408h-6.729v18.538h6.729a6.674 6.674 0 0 0 2.633-.408 6.744 6.744 0 0 0 2.273-1.407c1.922-1.947 1.907-4.448 1.891-6.87v-.662zm-4.898 4.47a2.638 2.638 0 0 1-1 .74c-.386.162-.805.23-1.222.195h-2.177V16.985h2.146a2.63 2.63 0 0 1 2.222.935c.539.677.639 1.72.639 4.314 0 2.594-.085 3.762-.639 4.448h.031zM93.476 45.725l-2.06-.303a2.58 2.58 0 0 1-1.385-.577 1.31 1.31 0 0 1-.377-.958c0-1.106.87-1.799 2.307-1.799a4.42 4.42 0 0 1 1.75.215 4.462 4.462 0 0 1 1.534.883l.3.288 2.76-2.765-.315-.303a7.868 7.868 0 0 0-2.74-1.718 7.792 7.792 0 0 0-3.189-.463c-3.89 0-6.505 2.336-6.505 5.787-.04.693.062 1.386.299 2.038a5.065 5.065 0 0 0 1.077 1.747 6.304 6.304 0 0 0 3.622 1.558l2.038.343c.484.022.948.203 1.322.514a1.561 1.561 0 0 1 .4 1.176c0 1.16-.892 1.752-2.66 1.752a5.218 5.218 0 0 1-2.095-.277 5.267 5.267 0 0 1-1.82-1.086l-.3-.311-2.806 2.843.3.303c1.676 1.73 3.675 2.462 6.674 2.462 4.122 0 6.921-2.337 6.921-5.788a5.414 5.414 0 0 0-.317-2.191 5.36 5.36 0 0 0-1.167-1.874 6.11 6.11 0 0 0-3.568-1.496zm7.89 11.177h12.35v-3.933h-8.051v-3.435h6.882v-3.941h-6.882v-3.28h8.089v-3.94h-12.388v18.53zm28.668-12.657c0-3.442-2.507-5.841-6.091-5.841h-7.259v18.53h4.253v-7.08h1.761l3.406 7.048h4.937l-4.006-7.828a5.117 5.117 0 0 0 2.219-1.956 5.217 5.217 0 0 0 .78-2.872zm-6.314 1.901h-2.783v-3.8h2.783a1.863 1.863 0 0 1 1.441.49 1.922 1.922 0 0 1 .453 2.179 1.902 1.902 0 0 1-1.122 1.039 1.864 1.864 0 0 1-.772.092zm15.011 2.71-3.191-10.483h-4.499l6.044 18.53h3.184l6.067-18.53h-4.46l-3.145 10.483zm9.228 8.046h4.26v-18.53h-4.26v18.53zm14.249-14.736a2.428 2.428 0 0 1 1.68.588c.467.403.767.968.842 1.585l.085.327h4.291l-.085-.498c-.607-3.723-3.168-5.943-6.844-5.943a6.764 6.764 0 0 0-2.713.51 6.828 6.828 0 0 0-2.293 1.554 5.431 5.431 0 0 0-1.538 2.874c-.4 2.97-.4 5.98 0 8.95a5.671 5.671 0 0 0 1.538 2.881 6.853 6.853 0 0 0 2.295 1.548 6.78 6.78 0 0 0 2.711.508c3.676 0 6.237-2.22 6.844-5.943l.085-.498h-4.291l-.085.327a2.488 2.488 0 0 1-.84 1.59 2.426 2.426 0 0 1-1.682.59 2.28 2.28 0 0 1-1.876-.778c-.585-.63-.769-1.285-.769-4.673s.153-4.066.769-4.712a2.3 2.3 0 0 1 1.838-.787h.038zm9.397 14.736h12.304v-3.933h-8.09v-3.435h6.921v-3.941h-6.921v-3.28h8.09v-3.94h-12.304v18.53zm22.385-11.177-2.053-.303a2.556 2.556 0 0 1-1.384-.577 1.335 1.335 0 0 1-.385-.958c0-1.106.869-1.799 2.269-1.799a4.407 4.407 0 0 1 3.283 1.098l.3.288 2.761-2.765-.315-.303a7.873 7.873 0 0 0-2.74-1.718 7.791 7.791 0 0 0-3.189-.463c-3.891 0-6.506 2.336-6.506 5.787a5.124 5.124 0 0 0 .304 2.038 5.08 5.08 0 0 0 1.08 1.747 6.26 6.26 0 0 0 3.615 1.558l2.107.296c.482.02.944.201 1.315.514a1.577 1.577 0 0 1 .407 1.176c0 1.16-.9 1.752-2.668 1.752a5.196 5.196 0 0 1-2.091-.276 5.247 5.247 0 0 1-1.816-1.087l-.307-.311-2.799 2.843.292.304c1.684 1.729 3.676 2.46 6.675 2.46 4.121 0 6.92-2.336 6.92-5.786a5.395 5.395 0 0 0-1.484-4.066 6.104 6.104 0 0 0-3.629-1.449h.038z" fill="#fff"/>
</svg>
