<svg width="240" height="73" viewBox="0 0 240 73" fill="none" xmlns="http://www.w3.org/2000/svg">
    <path d="M36.535 44.055C23.418 50.468 8.043 45.965 2.23 34.047-3.584 22.13 2.368 7.179 15.485.774l6.52 13.395c-5.744 2.81-8.617 8.8-6.405 13.35 2.212 4.55 8.686 5.966 14.43 3.164l6.505 13.372z" fill="#304FE8"/>
    <path d="M52.425 72.774c13.494-6.575 19.799-21.48 14.077-33.282-5.721-11.801-21.304-16.036-34.805-9.461l20.728 42.743z" fill="#00E66F"/>
    <path d="M96.281 15.608a6.737 6.737 0 0 0-2.273-1.408 6.673 6.673 0 0 0-2.633-.407h-6.721V32.33h6.72a6.673 6.673 0 0 0 2.634-.407 6.737 6.737 0 0 0 2.273-1.407c1.922-1.948 1.907-4.448 1.892-6.87v-1.324c.015-2.454.03-4.767-1.892-6.714zm-3 11.846a2.608 2.608 0 0 1-2.222.935h-2.145V17.758h2.138c.416-.035.834.032 1.22.194.385.163.726.417.994.74.546.678.639 1.721.639 4.315 0 2.594-.085 3.762-.623 4.447zm12.305-13.66h-4.261V32.33h4.261V13.793zm14.349 8.824a6.193 6.193 0 0 0-3.568-1.472l-2.061-.296a2.651 2.651 0 0 1-1.384-.585 1.311 1.311 0 0 1-.377-.95c0-1.113.869-1.807 2.307-1.807a4.424 4.424 0 0 1 3.283 1.099l.3.288 2.761-2.765-.315-.304a7.874 7.874 0 0 0-2.74-1.717 7.79 7.79 0 0 0-3.189-.464c-3.891 0-6.506 2.337-6.506 5.795a5.075 5.075 0 0 0 1.384 3.778 6.26 6.26 0 0 0 3.615 1.557l2.107.296a2.17 2.17 0 0 1 1.315.506 1.626 1.626 0 0 1 .4 1.176c0 1.161-.892 1.753-2.661 1.753a5.186 5.186 0 0 1-2.095-.274 5.234 5.234 0 0 1-1.819-1.089l-.3-.304-2.807 2.835.3.312c1.676 1.721 3.676 2.461 6.675 2.461 4.121 0 6.921-2.337 6.921-5.795a5.427 5.427 0 0 0-.371-2.187 5.36 5.36 0 0 0-1.214-1.847h.039zm3.03-4.884h4.552V32.33h4.26V17.758h4.56v-3.941h-13.411l.039 3.917zm19.993 7.547h1.761l3.407 7.05h4.914l-4.007-7.836a5.109 5.109 0 0 0 2.241-1.965c.539-.865.81-1.873.781-2.895 0-3.435-2.506-5.842-6.09-5.842h-7.236V32.33h4.252l-.023-7.048zm0-7.547h2.784a1.866 1.866 0 0 1 1.441.492 1.917 1.917 0 0 1 .613 1.409 1.922 1.922 0 0 1-.613 1.409 1.876 1.876 0 0 1-1.441.491h-2.784v-3.8zm16.534-3.94h-4.261V32.33h4.261V13.793zm17.202 13.014a4.564 4.564 0 0 0-.477-2.263 4.495 4.495 0 0 0-1.523-1.725c.545-.43.987-.98 1.29-1.61.304-.629.463-1.32.464-2.02 0-3.325-2.23-5.397-5.822-5.397h-7.443V32.33h7.728c3.499 0 5.767-2.173 5.767-5.522h.016zm-9.228-9.074h2.907c1.161 0 1.83.584 1.83 1.605 0 1.02-.669 1.604-1.83 1.604h-2.907v-3.209zm0 10.655v-3.481h3.13a1.603 1.603 0 0 1 1.333.417 1.651 1.651 0 0 1 .52 1.312 1.69 1.69 0 0 1-.52 1.317 1.637 1.637 0 0 1-1.333.435h-3.13zm25.776-14.596h-4.229v11.925c0 1.76-.977 2.82-2.615 2.82-1.638 0-2.583-1.06-2.583-2.82V13.793h-4.261v12.05c0 3.84 2.876 6.635 6.844 6.635 3.968 0 6.844-2.796 6.844-6.636V13.793zm15.511 0h-13.404v3.965h4.56v14.596h4.253V17.758h4.545l.046-3.965zm2.407 18.537h12.311v-3.94h-8.082v-3.436h6.882v-3.94h-6.882v-3.256h8.082v-3.941h-12.342l.031 18.513zm28.837-9.346v-.662c0-2.454 0-4.767-1.892-6.714a6.743 6.743 0 0 0-2.273-1.408 6.672 6.672 0 0 0-2.633-.407h-6.729V32.33h6.729a6.672 6.672 0 0 0 2.633-.407 6.743 6.743 0 0 0 2.273-1.407c1.922-1.948 1.907-4.448 1.892-6.87v-.662zm-4.899 4.47a2.638 2.638 0 0 1-1 .74c-.386.162-.805.23-1.222.195h-2.177V17.758h2.146a2.61 2.61 0 0 1 2.222.934c.539.678.639 1.721.639 4.315 0 2.594-.085 3.762-.639 4.447h.031zM93.474 46.498l-2.06-.304a2.582 2.582 0 0 1-1.385-.576 1.311 1.311 0 0 1-.377-.958c0-1.106.87-1.8 2.307-1.8a4.423 4.423 0 0 1 1.751.216 4.46 4.46 0 0 1 1.533.883l.3.288 2.76-2.765-.315-.304a7.866 7.866 0 0 0-2.74-1.717 7.789 7.789 0 0 0-3.189-.463c-3.89 0-6.505 2.336-6.505 5.787-.04.692.062 1.386.299 2.037a5.064 5.064 0 0 0 1.077 1.748 6.304 6.304 0 0 0 3.622 1.558l2.038.342c.484.023.948.203 1.322.514a1.562 1.562 0 0 1 .4 1.176c0 1.16-.892 1.753-2.66 1.753a5.222 5.222 0 0 1-2.095-.277 5.27 5.27 0 0 1-1.82-1.086l-.3-.312-2.806 2.843.3.304c1.676 1.73 3.675 2.461 6.675 2.461 4.121 0 6.92-2.336 6.92-5.787a5.414 5.414 0 0 0-.317-2.192 5.36 5.36 0 0 0-1.167-1.874 6.11 6.11 0 0 0-3.568-1.495zm7.89 11.177h12.35v-3.933h-8.051v-3.435h6.882v-3.941h-6.882v-3.28h8.089v-3.94h-12.388v18.529zm28.668-12.657c0-3.443-2.507-5.841-6.091-5.841h-7.259v18.529h4.253v-7.08h1.761l3.406 7.049h4.937l-4.006-7.828a5.117 5.117 0 0 0 2.219-1.956 5.216 5.216 0 0 0 .78-2.873zm-6.314 1.9h-2.783v-3.8h2.783a1.864 1.864 0 0 1 1.441.491 1.922 1.922 0 0 1 .453 2.179 1.902 1.902 0 0 1-1.122 1.038 1.863 1.863 0 0 1-.772.093zm15.011 2.711-3.191-10.484h-4.499l6.044 18.53h3.184l6.067-18.53h-4.46l-3.145 10.484zm9.228 8.046h4.26v-18.53h-4.26v18.53zm14.249-14.736a2.428 2.428 0 0 1 1.68.588c.467.402.768.968.842 1.585l.085.327h4.291l-.085-.499c-.607-3.723-3.168-5.942-6.844-5.942a6.76 6.76 0 0 0-2.713.51 6.838 6.838 0 0 0-2.293 1.553 5.43 5.43 0 0 0-1.538 2.874c-.4 2.97-.4 5.98 0 8.95a5.671 5.671 0 0 0 1.538 2.882 6.855 6.855 0 0 0 2.295 1.548c.86.353 1.783.526 2.711.508 3.676 0 6.237-2.22 6.844-5.943l.085-.498h-4.291l-.085.327a2.488 2.488 0 0 1-.84 1.59 2.426 2.426 0 0 1-1.682.59 2.279 2.279 0 0 1-1.027-.169 2.305 2.305 0 0 1-.849-.61c-.585-.63-.769-1.285-.769-4.673s.154-4.065.769-4.712a2.301 2.301 0 0 1 1.838-.786h.038zm9.397 14.736h12.304v-3.933h-8.09v-3.435h6.921v-3.941h-6.921v-3.28h8.09v-3.94h-12.304v18.529zm22.385-11.177-2.053-.304a2.557 2.557 0 0 1-1.384-.576 1.334 1.334 0 0 1-.385-.958c0-1.106.869-1.8 2.269-1.8a4.407 4.407 0 0 1 3.283 1.099l.3.288 2.761-2.765-.315-.304a7.871 7.871 0 0 0-2.74-1.717 7.788 7.788 0 0 0-3.189-.463c-3.891 0-6.506 2.336-6.506 5.787a5.124 5.124 0 0 0 .304 2.038 5.08 5.08 0 0 0 1.08 1.747 6.26 6.26 0 0 0 3.615 1.558l2.107.295c.482.021.944.202 1.315.515a1.578 1.578 0 0 1 .407 1.176c0 1.16-.9 1.752-2.668 1.752a5.198 5.198 0 0 1-2.091-.277 5.245 5.245 0 0 1-1.816-1.086l-.307-.311-2.799 2.843.292.303c1.684 1.73 3.676 2.462 6.675 2.462 4.121 0 6.92-2.337 6.92-5.788a5.395 5.395 0 0 0-1.484-4.065 6.105 6.105 0 0 0-3.629-1.449h.038z" fill="#304FE8"/>
</svg>
