<svg width="28" height="22" viewBox="0 0 28 22" fill="none" xmlns="http://www.w3.org/2000/svg">
    <path d="M24.232 5.484v.742c0 1.828-.343 3.677-1.03 5.548a16.001 16.001 0 0 1-3.024 5.08c-1.33 1.517-2.972 2.748-4.924 3.694C13.302 21.516 11.049 22 8.496 22c-1.566 0-3.068-.22-4.506-.661A15.737 15.737 0 0 1 0 19.484c.236.043.461.064.676.064h.676c1.287 0 2.515-.204 3.684-.612 1.17-.41 2.226-.99 3.17-1.742a5.33 5.33 0 0 1-3.218-1.113c-.944-.72-1.598-1.63-1.963-2.726l.531.064c.182.022.36.033.531.033.257 0 .504-.022.74-.065l.708-.129c-1.266-.258-2.322-.892-3.17-1.903-.847-1.01-1.27-2.194-1.27-3.549v-.064c.385.193.788.355 1.206.484.418.129.853.204 1.303.226a5.483 5.483 0 0 1-1.802-1.968 5.391 5.391 0 0 1-.676-2.645c0-.516.07-1.011.21-1.484.139-.473.327-.914.563-1.323a16.446 16.446 0 0 0 2.285 2.29c.836.689 1.737 1.28 2.703 1.775.965.494 1.995.892 3.09 1.193 1.072.301 2.177.484 3.314.549a6.675 6.675 0 0 1-.129-1.29c0-1.528.536-2.834 1.61-3.92C15.843.543 17.151 0 18.696 0c.794 0 1.54.161 2.237.484a5.565 5.565 0 0 1 1.786 1.29 11.48 11.48 0 0 0 1.85-.532c.59-.226 1.143-.5 1.658-.823a5.2 5.2 0 0 1-.918 1.758 5.449 5.449 0 0 1-1.496 1.307 10.55 10.55 0 0 0 1.641-.323c.537-.15 1.052-.333 1.545-.548-.386.559-.81 1.08-1.271 1.564-.461.484-.96.92-1.497 1.307z" fill="#304FE8"/>
</svg>
