<svg width="28" height="22" viewBox="0 0 28 22" fill="none" xmlns="http://www.w3.org/2000/svg">
    <g clip-path="url(#gkhoo1oega)">
        <path d="M24.681 5.484v.742c0 1.828-.35 3.677-1.049 5.548a15.946 15.946 0 0 1-3.08 5.08c-1.355 1.517-3.027 2.748-5.016 3.694C13.548 21.516 11.254 22 8.653 22c-1.595 0-3.125-.22-4.589-.661A16.166 16.166 0 0 1 0 19.484c.24.043.47.064.688.064h.689c1.31 0 2.562-.204 3.753-.612a10.97 10.97 0 0 0 3.228-1.742A5.492 5.492 0 0 1 5.08 16.08c-.961-.72-1.627-1.63-1.999-2.726l.54.064c.187.022.367.033.542.033.262 0 .513-.022.754-.065l.72-.129a5.576 5.576 0 0 1-3.228-1.903c-.863-1.01-1.295-2.194-1.295-3.549v-.064a8.09 8.09 0 0 0 1.23.484c.426.129.868.204 1.327.226a5.522 5.522 0 0 1-1.835-1.968 5.314 5.314 0 0 1-.689-2.645c0-.516.071-1.011.213-1.484.142-.473.333-.914.574-1.323.7.839 1.475 1.602 2.327 2.29.852.689 1.77 1.28 2.753 1.775.984.494 2.032.892 3.147 1.193 1.093.301 2.218.484 3.376.549a6.592 6.592 0 0 1-.131-1.29c0-1.528.546-2.834 1.639-3.92C16.137.543 17.47 0 19.044 0c.808 0 1.567.161 2.277.484.71.322 1.317.753 1.82 1.29a11.857 11.857 0 0 0 1.884-.532c.601-.226 1.164-.5 1.688-.823a5.166 5.166 0 0 1-.934 1.758 5.519 5.519 0 0 1-1.524 1.307 10.922 10.922 0 0 0 1.672-.323 12.3 12.3 0 0 0 1.573-.548c-.393.559-.825 1.08-1.295 1.564s-.977.92-1.524 1.307z" fill="#fff"/>
    </g>
    <defs>
        <clipPath id="gkhoo1oega">
            <path fill="#fff" d="M0 0h27.5v22H0z"/>
        </clipPath>
    </defs>
</svg>
