<svg width="32" height="22" viewBox="0 0 32 22" fill="none" xmlns="http://www.w3.org/2000/svg">
    <g clip-path="url(#gjvd6lysta)">
        <path d="M31.256 3.458a3.85 3.85 0 0 0-.994-1.747A3.66 3.66 0 0 0 28.497.699c-.613-.172-1.595-.307-2.944-.405a231.439 231.439 0 0 0-4.12-.184 103.39 103.39 0 0 0-3.642-.073L16.209 0l-1.582.037a154.213 154.213 0 0 0-7.763.22c-1.348.099-2.33.234-2.943.405a3.777 3.777 0 0 0-1.747 1.012A3.777 3.777 0 0 0 1.162 3.42C.82 4.672.622 6.248.574 8.15L.5 11l.074 2.87c.049 1.913.233 3.47.551 4.672a3.66 3.66 0 0 0 1.012 1.766c.503.49 1.085.834 1.748 1.03.637.147 1.63.27 2.98.368 1.348.098 2.716.171 4.102.22 1.385.05 2.605.074 3.66.074h3.127c1.055 0 2.275-.018 3.66-.055a89.192 89.192 0 0 0 4.103-.203c1.349-.073 2.33-.196 2.943-.367a3.66 3.66 0 0 0 1.766-1.012 4.164 4.164 0 0 0 1.03-1.748c.319-1.226.509-2.796.57-4.709l.092-2.87-.073-2.869c-.05-1.913-.246-3.482-.59-4.709zM13.046 15.71l.036-9.418L21.249 11l-8.204 4.709z" fill="#304FE8"/>
    </g>
    <defs>
        <clipPath id="gjvd6lysta">
            <path fill="#fff" transform="translate(.5)" d="M0 0h31.418v22H0z"/>
        </clipPath>
    </defs>
</svg>
