<svg width="32" height="22" viewBox="0 0 32 22" fill="none" xmlns="http://www.w3.org/2000/svg">
    <g clip-path="url(#de9qnrfr2a)">
        <path d="M30.443 3.458a3.877 3.877 0 0 0-.967-1.747 3.541 3.541 0 0 0-1.72-1.012C27.16.527 26.204.392 24.892.294A219.403 219.403 0 0 0 20.88.11a97.996 97.996 0 0 0-3.546-.073L15.794 0l-1.54.037a146.18 146.18 0 0 0-7.557.22C5.382.357 4.426.492 3.83.663A3.656 3.656 0 0 0 2.13 1.674a3.802 3.802 0 0 0-.985 1.747C.81 4.672.619 6.248.572 8.15L.5 11l.072 2.87c.047 1.913.226 3.47.537 4.672.167.686.495 1.275.985 1.766.49.49 1.056.834 1.701 1.03.621.147 1.588.27 2.901.368 1.314.098 2.645.171 3.994.22 1.349.05 2.537.074 3.564.074h3.044c1.027 0 2.215-.018 3.564-.055 1.349-.037 2.68-.104 3.993-.203 1.314-.073 2.269-.196 2.866-.367a3.541 3.541 0 0 0 1.719-1.012 4.188 4.188 0 0 0 1.003-1.748c.31-1.226.495-2.796.555-4.709l.09-2.87-.072-2.869c-.048-1.913-.239-3.482-.573-4.709zM12.713 15.71l.036-9.418L20.701 11l-7.988 4.709z" fill="#304FE8"/>
    </g>
    <defs>
        <clipPath id="de9qnrfr2a">
            <path fill="#fff" transform="translate(.5)" d="M0 0h31v22H0z"/>
        </clipPath>
    </defs>
</svg>
