<svg width="319" height="202" viewBox="0 0 319 202" fill="none" xmlns="http://www.w3.org/2000/svg">
<path d="M256.231 77.7253C260.018 77.7253 263.72 76.5875 266.869 74.4559C270.018 72.3243 272.472 69.2945 273.921 65.7498C275.371 62.2051 275.75 58.3045 275.011 54.5415C274.272 50.7784 272.449 47.3218 269.771 44.6088C267.093 41.8957 263.681 40.0481 259.967 39.2996C256.253 38.5511 252.403 38.9353 248.904 40.4035C245.405 41.8718 242.415 44.3583 240.311 47.5484C238.207 50.7386 237.084 54.4893 237.084 58.3261C237.084 63.471 239.101 68.4053 242.692 72.0434C246.283 75.6814 251.153 77.7253 256.231 77.7253ZM62.6841 77.7253C66.4712 77.7253 70.1731 76.5875 73.322 74.4559C76.4708 72.3243 78.925 69.2945 80.3742 65.7498C81.8234 62.2051 82.2026 58.3045 81.4638 54.5415C80.725 50.7784 78.9014 47.3218 76.2235 44.6088C73.5457 41.8957 70.1339 40.0481 66.4196 39.2996C62.7054 38.5511 58.8554 38.9353 55.3566 40.4035C51.8579 41.8718 48.8674 44.3583 46.7635 47.5484C44.6595 50.7386 43.5365 54.4893 43.5365 58.3261C43.5365 63.471 45.5538 68.4053 49.1447 72.0434C52.7356 75.6814 57.6059 77.7253 62.6841 77.7253ZM300.74 133.396C300.74 126.33 307.757 119.007 307.757 109.586C307.921 107.984 307.755 106.364 307.27 104.83C306.784 103.296 305.99 101.881 304.938 100.673C303.885 99.4659 302.596 98.4929 301.154 97.8157C299.711 97.1385 298.145 96.7719 296.555 96.739C281.212 96.739 278.084 112.627 270.729 112.627C263.375 112.627 263.121 100.55 251.92 100.55C243.762 100.55 241.649 109.543 241.649 114.468C241.649 124.831 251.244 142.689 238.901 142.689C230.786 142.689 228.334 135.58 220.092 135.58C207.749 135.58 210.159 152.153 210.159 158.876C210.371 161.492 210.018 164.122 209.124 166.585C208.229 169.047 206.815 171.282 204.979 173.133C203.144 174.985 200.932 176.408 198.497 177.304C196.063 178.199 193.465 178.545 190.884 178.318C188.449 178.44 186.015 178.045 183.739 177.16C181.462 176.275 179.393 174.919 177.663 173.178C175.933 171.437 174.58 169.35 173.69 167.05C172.801 164.75 172.395 162.287 172.498 159.819C172.498 140.719 200.057 143.588 200.057 126.716C200.057 117.594 185.643 117.851 185.643 109.115C185.643 95.3258 217.767 100.036 217.767 82.4359C217.767 64.8353 192.913 70.7878 192.913 58.6687C192.913 50.5321 208.51 48.862 208.51 35.5438C208.604 33.8718 208.355 32.1982 207.781 30.628C207.206 29.0578 206.317 27.6247 205.171 26.4186C204.024 25.2125 202.643 24.2594 201.116 23.6189C199.589 22.9785 197.947 22.6645 196.295 22.6966C189.363 22.6966 186.362 26.3367 181.163 26.3367C169.201 26.3367 176.936 0 159.437 0C141.937 0 149.715 26.3367 137.711 26.3367C132.512 26.3367 129.511 22.6966 122.579 22.6966C120.928 22.664 119.288 22.9781 117.763 23.619C116.237 24.2599 114.86 25.2138 113.716 26.4206C112.573 27.6274 111.688 29.061 111.118 30.6311C110.549 32.2013 110.306 33.8739 110.405 35.5438C110.405 48.862 126.002 50.5321 126.002 58.6687C126.002 70.7878 101.106 64.4927 101.106 82.4359C101.106 100.379 133.23 95.283 133.23 109.115C133.23 117.68 118.817 117.68 118.817 126.716C118.817 143.588 146.376 140.719 146.376 159.819C146.485 162.285 146.084 164.747 145.199 167.047C144.315 169.347 142.966 171.435 141.239 173.176C139.512 174.918 137.445 176.275 135.171 177.16C132.897 178.046 130.465 178.44 128.031 178.318C125.448 178.552 122.845 178.211 120.405 177.318C117.965 176.425 115.748 175.003 113.908 173.151C112.067 171.299 110.649 169.062 109.752 166.596C108.855 164.13 108.501 161.495 108.714 158.876C108.714 152.153 111.124 135.58 98.7814 135.58C90.5813 135.58 88.1297 142.689 80.0142 142.689C67.6295 142.689 77.2245 124.831 77.2245 114.468C77.2245 109.543 75.1533 100.55 66.9532 100.55C55.7521 100.55 55.7521 112.627 48.1438 112.627C40.5354 112.627 37.6612 96.739 22.3177 96.739C20.728 96.7719 19.1623 97.1385 17.7195 97.8157C16.2767 98.4929 14.9883 99.4659 13.9356 100.673C12.8829 101.881 12.0889 103.296 11.6037 104.83C11.1184 106.364 10.9526 107.984 11.1166 109.586C11.1166 119.007 18.1332 126.33 18.1332 133.396C18.1332 142.561 0 138.835 0 154.166C0 162.731 9.17226 166.456 20.1621 166.456C28.6157 166.456 41.2963 165.257 41.2963 172.708C41.2963 180.16 31.6591 182.601 31.6591 191.594C31.6591 199.473 38.887 202 46.2417 202C59.5313 201.517 72.4615 197.5 83.7338 190.352C63.6986 174.721 38.5066 146.372 34.3643 125.431C40.9581 135.709 91.8071 201.786 159.437 201.786C227.066 201.786 277.788 135.709 284.678 125.217C280.451 146.158 255.344 174.507 235.308 190.138C246.562 197.259 259.458 201.274 272.716 201.786C280.071 201.786 287.341 199.259 287.341 191.38C287.341 182.387 277.661 179.946 277.661 172.494C277.661 165.043 290.342 166.242 298.796 166.242C309.828 166.242 319 162.345 319 153.952C318.915 138.621 300.74 142.346 300.74 133.182V133.396ZM158.042 150.526L159.225 95.9254L149.334 98.6233C149.334 54.8145 160.493 30.8332 160.493 30.8332L159.31 85.1766L169.539 82.65C169.539 126.544 158.042 150.526 158.042 150.526Z" fill="#BEA063"/>
</svg>
