<svg width="146" height="220" viewBox="0 0 146 220" fill="none" xmlns="http://www.w3.org/2000/svg">
    <path fill-rule="evenodd" clip-rule="evenodd" d="M31.023 153.781v3.801h47.638v-3.801h-9.999c-7.498 0-11.027-2.485-11.027-7.455v-36.399h12.35l29.407 47.655h16.761v-3.801h-2.206c-6.028 0-9.115-3.654-13.085-9.94l-21.613-34.06c18.084-.877 32.052-7.309 32.052-24.558 0-18.565-15.585-24.85-39.404-24.85H31.023v3.8h7.499c7.498 0 11.027 2.485 11.027 7.455v74.698c0 4.97-3.529 7.455-11.027 7.455h-7.499zm37.64-89.608h1.91c17.644 0 30.142 4.824 30.142 21.196 0 17.395-13.82 20.904-30.141 20.904H57.635V71.628c0-4.97 3.529-7.455 11.027-7.455z" fill="#fff"/>
    <path fill-rule="evenodd" clip-rule="evenodd" d="M0 110.073C0 170.738 32.788 220 73.073 220 113.213 220 146 170.738 146 110.073 146 49.409 113.212 0 73.073 0 32.788 0 0 49.409 0 110.073zm7.057 0C7.057 53.063 36.61 6.87 73.073 6.87c36.317 0 66.017 46.193 66.017 103.203 0 57.01-29.7 103.203-66.017 103.203-36.316 0-66.016-46.193-66.016-103.203z" fill="#fff"/>
</svg>
