<svg width="1139" height="941" viewBox="0 0 1139 941" fill="none" xmlns="http://www.w3.org/2000/svg">
    <circle cx="569" cy="470" r="150" fill="#fff"/>
    <circle cx="569" cy="150" r="150" fill="#fff"/>
    <circle cx="569" cy="311" r="170" fill="#00E66F"/>
    <path d="M575.192 332.936c-38.715 18.928-84.093 5.635-101.252-29.538-17.158-35.174.408-79.3 39.123-98.205l19.244 39.537c-16.955 8.293-25.432 25.971-18.904 39.399 6.528 13.429 25.636 17.61 42.59 9.339l19.199 39.468z" fill="#304FE8"/>
    <path d="M622.092 417.696c39.825-19.404 58.434-63.394 41.548-98.227-16.887-34.832-62.877-47.329-102.725-27.925l61.177 126.152z" fill="#fff"/>
    <path d="M488.483 543.507v-28.8h11.9c.28 0 .64.013 1.08.04.44.013.846.053 1.22.12 1.666.253 3.04.806 4.12 1.66a7.597 7.597 0 0 1 2.42 3.24c.533 1.293.8 2.733.8 4.32 0 1.573-.267 3.013-.8 4.32a7.789 7.789 0 0 1-2.44 3.22c-1.08.853-2.447 1.406-4.1 1.66-.374.053-.787.093-1.24.12-.44.026-.794.04-1.06.04h-7.08v10.06h-4.82zm4.82-14.56h6.88c.266 0 .566-.014.9-.04.333-.027.64-.08.92-.16.8-.2 1.426-.554 1.88-1.06.466-.507.793-1.08.98-1.72.2-.64.3-1.267.3-1.88 0-.614-.1-1.24-.3-1.88a4.27 4.27 0 0 0-.98-1.74c-.454-.507-1.08-.86-1.88-1.06a3.9 3.9 0 0 0-.92-.14 11.26 11.26 0 0 0-.9-.04h-6.88v9.72zm26.22 15.16c-1.56 0-2.88-.294-3.96-.88-1.08-.6-1.9-1.394-2.46-2.38-.547-.987-.82-2.074-.82-3.26 0-1.04.173-1.974.52-2.8.346-.84.88-1.56 1.6-2.16.72-.614 1.653-1.114 2.8-1.5.866-.28 1.88-.534 3.04-.76a69.944 69.944 0 0 1 3.8-.62c1.373-.2 2.806-.414 4.3-.64l-1.72.98c.013-1.494-.32-2.594-1-3.3-.68-.707-1.827-1.06-3.44-1.06-.974 0-1.914.226-2.82.68-.907.453-1.54 1.233-1.9 2.34l-4.4-1.38c.533-1.827 1.546-3.294 3.04-4.4 1.506-1.107 3.533-1.66 6.08-1.66 1.92 0 3.606.313 5.06.94 1.466.626 2.553 1.653 3.26 3.08.386.76.62 1.54.7 2.34.08.786.12 1.646.12 2.58v13.26h-4.22v-4.68l.7.76c-.974 1.56-2.114 2.706-3.42 3.44-1.294.72-2.914 1.08-4.86 1.08zm.96-3.84c1.093 0 2.026-.194 2.8-.58.773-.387 1.386-.86 1.84-1.42.466-.56.78-1.087.94-1.58.253-.614.393-1.314.42-2.1.04-.8.06-1.447.06-1.94l1.48.44c-1.454.226-2.7.426-3.74.6a59.84 59.84 0 0 0-2.68.5c-.747.146-1.407.313-1.98.5-.56.2-1.034.433-1.42.7a3.08 3.08 0 0 0-.9.92c-.2.346-.3.753-.3 1.22 0 .533.133 1.006.4 1.42.266.4.653.72 1.16.96.52.24 1.16.36 1.92.36zm16.046 3.24v-21.6h4.26v5.26l-.52-.68c.267-.72.62-1.374 1.06-1.96.454-.6.994-1.094 1.62-1.48.534-.36 1.12-.64 1.76-.84a7.891 7.891 0 0 1 2-.38 8.085 8.085 0 0 1 1.98.08v4.5c-.64-.187-1.38-.247-2.22-.18a5.08 5.08 0 0 0-2.24.7c-.666.36-1.213.82-1.64 1.38-.413.56-.72 1.2-.92 1.92-.2.706-.3 1.473-.3 2.3v10.98h-4.84zm28.637 0c-1.427.266-2.827.38-4.2.34-1.36-.027-2.58-.274-3.66-.74a5.075 5.075 0 0 1-2.46-2.26c-.493-.934-.753-1.887-.78-2.86-.027-.974-.04-2.074-.04-3.3v-18.78h4.8v18.5c0 .866.007 1.626.02 2.28.027.653.167 1.186.42 1.6.48.8 1.247 1.246 2.3 1.34 1.053.093 2.253.04 3.6-.16v4.04zm-15.06-17.82v-3.78h15.06v3.78h-15.06zm34.645 17.82v-10.4c0-.68-.047-1.434-.14-2.26a7.847 7.847 0 0 0-.66-2.38 4.511 4.511 0 0 0-1.52-1.9c-.667-.494-1.574-.74-2.72-.74-.614 0-1.22.1-1.82.3-.6.2-1.147.546-1.64 1.04-.48.48-.867 1.146-1.16 2-.294.84-.44 1.92-.44 3.24l-2.86-1.22c0-1.84.353-3.507 1.06-5a8.503 8.503 0 0 1 3.16-3.56c1.386-.894 3.093-1.34 5.12-1.34 1.6 0 2.92.266 3.96.8 1.04.533 1.866 1.213 2.48 2.04a8.888 8.888 0 0 1 1.36 2.64c.293.933.48 1.82.56 2.66.093.826.14 1.5.14 2.02v12.06h-4.88zm-14.98 0v-21.6h4.3v6.7h.58v14.9h-4.88zm34.547.6c-2.186 0-4.106-.474-5.76-1.42a10.12 10.12 0 0 1-3.88-3.94c-.92-1.68-1.38-3.614-1.38-5.8 0-2.36.454-4.407 1.36-6.14.907-1.747 2.167-3.1 3.78-4.06 1.614-.96 3.48-1.44 5.6-1.44 2.24 0 4.14.526 5.7 1.58 1.574 1.04 2.74 2.513 3.5 4.42.76 1.906 1.047 4.153.86 6.74h-4.78v-1.76c-.013-2.347-.426-4.06-1.24-5.14-.813-1.08-2.093-1.62-3.84-1.62-1.973 0-3.44.613-4.4 1.84-.96 1.213-1.44 2.993-1.44 5.34 0 2.186.48 3.88 1.44 5.08.96 1.2 2.36 1.8 4.2 1.8 1.187 0 2.207-.26 3.06-.78.867-.534 1.534-1.3 2-2.3l4.76 1.44c-.826 1.946-2.106 3.46-3.84 4.54-1.72 1.08-3.62 1.62-5.7 1.62zm-7.44-10.06v-3.64h14.86v3.64h-14.86zm21.683 9.46v-21.6h4.26v5.26l-.52-.68c.266-.72.62-1.374 1.06-1.96a5.88 5.88 0 0 1 1.62-1.48 6.69 6.69 0 0 1 1.76-.84 7.883 7.883 0 0 1 2-.38 8.085 8.085 0 0 1 1.98.08v4.5c-.64-.187-1.38-.247-2.22-.18-.827.066-1.574.3-2.24.7-.667.36-1.214.82-1.64 1.38-.414.56-.72 1.2-.92 1.92-.2.706-.3 1.473-.3 2.3v10.98h-4.84zm23.535.6c-2.667 0-4.833-.6-6.5-1.8-1.667-1.2-2.68-2.887-3.04-5.06l4.92-.76c.253 1.066.813 1.906 1.68 2.52.867.613 1.96.92 3.28.92 1.16 0 2.053-.227 2.68-.68.64-.467.96-1.1.96-1.9 0-.494-.12-.887-.36-1.18-.227-.307-.733-.6-1.52-.88s-1.993-.634-3.62-1.06c-1.813-.48-3.253-.994-4.32-1.54-1.067-.56-1.833-1.22-2.3-1.98-.467-.76-.7-1.68-.7-2.76 0-1.347.353-2.52 1.06-3.52.707-1 1.693-1.767 2.96-2.3 1.267-.547 2.76-.82 4.48-.82 1.68 0 3.167.26 4.46.78 1.307.52 2.36 1.26 3.16 2.22.8.96 1.293 2.086 1.48 3.38l-4.92.88c-.12-.92-.54-1.647-1.26-2.18-.707-.534-1.653-.834-2.84-.9-1.133-.067-2.047.106-2.74.52-.693.4-1.04.966-1.04 1.7 0 .413.14.766.42 1.06.28.293.84.586 1.68.88.853.293 2.12.653 3.8 1.08 1.72.44 3.093.946 4.12 1.52 1.04.56 1.787 1.233 2.24 2.02.467.786.7 1.74.7 2.86 0 2.173-.793 3.88-2.38 5.12-1.573 1.24-3.753 1.86-6.54 1.86zM514.952 100.139c-2.88 0-5.347-.626-7.4-1.88-2.054-1.266-3.634-3.026-4.74-5.28-1.094-2.253-1.64-4.866-1.64-7.84 0-2.973.546-5.586 1.64-7.84 1.106-2.253 2.686-4.006 4.74-5.26 2.053-1.266 4.52-1.9 7.4-1.9 3.32 0 6.086.834 8.3 2.5 2.213 1.654 3.766 3.887 4.66 6.7l-4.86 1.34c-.56-1.88-1.514-3.346-2.86-4.4-1.347-1.066-3.094-1.6-5.24-1.6-1.934 0-3.547.434-4.84 1.3-1.28.867-2.247 2.087-2.9 3.66-.64 1.56-.967 3.394-.98 5.5 0 2.107.32 3.947.96 5.52.653 1.56 1.626 2.774 2.92 3.64 1.293.867 2.906 1.3 4.84 1.3 2.146 0 3.893-.533 5.24-1.6 1.346-1.066 2.3-2.533 2.86-4.4l4.86 1.34c-.894 2.814-2.447 5.054-4.66 6.72-2.214 1.654-4.98 2.48-8.3 2.48zm17.751-.6v-29.4h4.82v29.4h-4.82zm11.211-24.88v-4.42h4.82v4.42h-4.82zm0 24.88v-21.6h4.82v21.6h-4.82zm20.631.6c-2.187 0-4.107-.473-5.76-1.42a10.105 10.105 0 0 1-3.88-3.94c-.92-1.68-1.38-3.613-1.38-5.8 0-2.36.453-4.406 1.36-6.14.906-1.746 2.166-3.1 3.78-4.06 1.613-.96 3.48-1.44 5.6-1.44 2.24 0 4.14.527 5.7 1.58 1.573 1.04 2.74 2.514 3.5 4.42.76 1.907 1.046 4.154.86 6.74h-4.78v-1.76c-.014-2.346-.427-4.06-1.24-5.14-.814-1.08-2.094-1.62-3.84-1.62-1.974 0-3.44.614-4.4 1.84-.96 1.214-1.44 2.994-1.44 5.34 0 2.187.48 3.88 1.44 5.08.96 1.2 2.36 1.8 4.2 1.8 1.186 0 2.206-.26 3.06-.78.866-.533 1.533-1.3 2-2.3l4.76 1.44c-.827 1.947-2.107 3.46-3.84 4.54-1.72 1.08-3.62 1.62-5.7 1.62zm-7.44-10.06v-3.64h14.86v3.64h-14.86zm36.036 9.46v-10.4c0-.68-.046-1.433-.14-2.26a7.793 7.793 0 0 0-.66-2.38 4.51 4.51 0 0 0-1.52-1.9c-.666-.493-1.573-.74-2.72-.74-.613 0-1.22.1-1.82.3-.6.2-1.146.547-1.64 1.04-.48.48-.866 1.147-1.16 2-.293.84-.44 1.92-.44 3.24l-2.86-1.22c0-1.84.354-3.506 1.06-5a8.514 8.514 0 0 1 3.16-3.56c1.387-.893 3.094-1.34 5.12-1.34 1.6 0 2.92.267 3.96.8 1.04.534 1.867 1.214 2.48 2.04a8.858 8.858 0 0 1 1.36 2.64c.294.934.48 1.82.56 2.66.094.827.14 1.5.14 2.02v12.06h-4.88zm-14.98 0v-21.6h4.3v6.7h.58v14.9h-4.88zm37.739 0c-1.426.267-2.826.38-4.2.34-1.36-.026-2.58-.273-3.66-.74a5.072 5.072 0 0 1-2.46-2.26c-.493-.933-.753-1.886-.78-2.86-.026-.973-.04-2.073-.04-3.3V71.94h4.8v18.5c0 .867.007 1.627.02 2.28.027.654.167 1.187.42 1.6.48.8 1.247 1.247 2.3 1.34 1.054.094 2.254.04 3.6-.16v4.04zm-15.06-17.82v-3.78h15.06v3.78h-15.06zm28.045 18.42c-2.667 0-4.833-.6-6.5-1.8-1.667-1.2-2.68-2.886-3.04-5.06l4.92-.76c.253 1.067.813 1.907 1.68 2.52.867.614 1.96.92 3.28.92 1.16 0 2.053-.226 2.68-.68.64-.466.96-1.1.96-1.9 0-.493-.12-.886-.36-1.18-.227-.306-.733-.6-1.52-.88s-1.993-.633-3.62-1.06c-1.813-.48-3.253-.993-4.32-1.54-1.067-.56-1.833-1.22-2.3-1.98-.467-.76-.7-1.68-.7-2.76 0-1.346.353-2.52 1.06-3.52.707-1 1.693-1.766 2.96-2.3 1.267-.546 2.76-.82 4.48-.82 1.68 0 3.167.26 4.46.78 1.307.52 2.36 1.26 3.16 2.22.8.96 1.293 2.087 1.48 3.38l-4.92.88c-.12-.92-.54-1.646-1.26-2.18-.707-.533-1.653-.833-2.84-.9-1.133-.066-2.047.107-2.74.52-.693.4-1.04.967-1.04 1.7 0 .414.14.767.42 1.06.28.294.84.587 1.68.88.853.294 2.12.654 3.8 1.08 1.72.44 3.093.947 4.12 1.52 1.04.56 1.787 1.234 2.24 2.02.467.787.7 1.74.7 2.86 0 2.174-.793 3.88-2.38 5.12-1.573 1.24-3.753 1.86-6.54 1.86z" fill="#304FE8"/>
    <circle cx="100" cy="482" r="100" fill="#001DAB"/>
    <ellipse cx="220" cy="701.5" rx="100" ry="100.5" fill="#001DAB"/>
    <circle cx="917" cy="702" r="100" fill="#001DAB"/>
    <circle cx="441" cy="841" r="100" fill="#001DAB"/>
    <circle cx="696" cy="841" r="100" fill="#001DAB"/>
    <circle cx="1039" cy="482" r="100" fill="#001DAB"/>
    <path d="M58.072 491v-18.72h5.967c.156 0 .464.004.923.013.468.009.919.039 1.352.091 1.482.191 2.734.719 3.757 1.586 1.031.858 1.811 1.954 2.34 3.289.529 1.335.793 2.795.793 4.381 0 1.586-.264 3.046-.793 4.381-.529 1.335-1.309 2.435-2.34 3.302-1.023.858-2.275 1.382-3.757 1.573a13.1 13.1 0 0 1-1.339.091c-.468.009-.78.013-.936.013h-5.967zm3.185-2.951h2.782c.26 0 .59-.009.988-.026a7.251 7.251 0 0 0 1.079-.117c.884-.165 1.603-.559 2.158-1.183.555-.624.962-1.382 1.222-2.275a9.696 9.696 0 0 0 .403-2.808 9.88 9.88 0 0 0-.403-2.86c-.269-.893-.685-1.642-1.248-2.249-.555-.607-1.265-.992-2.132-1.157a5.608 5.608 0 0 0-1.079-.117 24.13 24.13 0 0 0-.988-.026h-2.782v12.818zm21.403 3.341c-1.421 0-2.67-.308-3.744-.923a6.571 6.571 0 0 1-2.522-2.561c-.598-1.092-.897-2.349-.897-3.77 0-1.534.295-2.864.884-3.991.59-1.135 1.408-2.015 2.457-2.639 1.049-.624 2.262-.936 3.64-.936 1.456 0 2.691.342 3.705 1.027 1.023.676 1.781 1.634 2.275 2.873.494 1.239.68 2.7.559 4.381H85.91v-1.144c-.009-1.525-.277-2.639-.806-3.341-.529-.702-1.36-1.053-2.496-1.053-1.283 0-2.236.399-2.86 1.196-.624.789-.936 1.946-.936 3.471 0 1.421.312 2.522.936 3.302.624.78 1.534 1.17 2.73 1.17.771 0 1.434-.169 1.989-.507.563-.347.997-.845 1.3-1.495l3.094.936c-.537 1.265-1.37 2.249-2.496 2.951a6.828 6.828 0 0 1-3.705 1.053zm-4.836-6.539v-2.366h9.659v2.366h-9.659zm19.515 6.539c-1.734 0-3.142-.39-4.225-1.17-1.084-.78-1.742-1.876-1.976-3.289l3.198-.494a2.703 2.703 0 0 0 1.092 1.638c.563.399 1.274.598 2.132.598.754 0 1.334-.147 1.742-.442.416-.303.624-.715.624-1.235 0-.321-.078-.576-.234-.767-.148-.199-.477-.39-.988-.572-.512-.182-1.296-.412-2.353-.689-1.179-.312-2.115-.646-2.808-1.001-.694-.364-1.192-.793-1.495-1.287-.304-.494-.455-1.092-.455-1.794 0-.875.23-1.638.689-2.288.459-.65 1.1-1.148 1.924-1.495.823-.355 1.794-.533 2.912-.533 1.092 0 2.058.169 2.899.507.849.338 1.534.819 2.054 1.443.52.624.84 1.356.962 2.197l-3.198.572c-.078-.598-.351-1.07-.82-1.417-.459-.347-1.074-.542-1.845-.585-.737-.043-1.33.069-1.781.338-.451.26-.676.628-.676 1.105 0 .269.09.498.273.689.182.191.546.381 1.092.572.554.191 1.378.425 2.47.702 1.118.286 2.01.615 2.678.988.676.364 1.161.802 1.456 1.313.303.511.455 1.131.455 1.859 0 1.413-.516 2.522-1.547 3.328-1.023.806-2.44 1.209-4.251 1.209zm8.905-16.562v-2.873h3.133v2.873h-3.133zm0 16.172v-14.04h3.133V491h-3.133zm12.929 6.63c-.78 0-1.529-.121-2.249-.364a6.318 6.318 0 0 1-1.924-1.053 5.563 5.563 0 0 1-1.404-1.638l2.886-1.43c.269.511.646.888 1.131 1.131a3.428 3.428 0 0 0 1.573.377c.65 0 1.231-.117 1.742-.351a2.554 2.554 0 0 0 1.183-1.014c.286-.442.421-.997.403-1.664v-3.991h.39V476.96h2.743v14.716c0 .355-.017.693-.052 1.014a6.86 6.86 0 0 1-.143.962c-.208.91-.606 1.655-1.196 2.236-.589.589-1.321 1.027-2.197 1.313-.866.286-1.828.429-2.886.429zm-.273-6.24c-1.291 0-2.418-.325-3.38-.975-.962-.65-1.707-1.534-2.236-2.652-.528-1.118-.793-2.379-.793-3.783 0-1.421.265-2.687.793-3.796.538-1.118 1.296-1.998 2.275-2.639.98-.65 2.132-.975 3.458-.975 1.335 0 2.453.325 3.354.975.91.641 1.599 1.521 2.067 2.639.468 1.118.702 2.383.702 3.796 0 1.395-.234 2.656-.702 3.783-.468 1.118-1.165 2.002-2.093 2.652-.927.65-2.075.975-3.445.975zm.481-2.808c.841 0 1.517-.191 2.028-.572.52-.39.897-.932 1.131-1.625.243-.693.364-1.495.364-2.405 0-.919-.121-1.72-.364-2.405-.234-.693-.602-1.231-1.105-1.612-.502-.39-1.152-.585-1.95-.585-.84 0-1.534.208-2.08.624-.546.407-.949.962-1.209 1.664-.26.693-.39 1.465-.39 2.314 0 .858.126 1.638.377 2.34.26.693.655 1.244 1.183 1.651.529.407 1.201.611 2.015.611zM139.004 491v-6.76c0-.442-.031-.932-.091-1.469a5.1 5.1 0 0 0-.429-1.547 2.935 2.935 0 0 0-.988-1.235c-.434-.321-1.023-.481-1.768-.481-.399 0-.793.065-1.183.195s-.746.355-1.066.676c-.312.312-.564.745-.754 1.3-.191.546-.286 1.248-.286 2.106l-1.859-.793c0-1.196.229-2.279.689-3.25a5.524 5.524 0 0 1 2.054-2.314c.901-.581 2.01-.871 3.328-.871 1.04 0 1.898.173 2.574.52.676.347 1.213.789 1.612 1.326.398.537.693 1.109.884 1.716.19.607.312 1.183.364 1.729.06.537.091.975.091 1.313V491h-3.172zm-9.737 0v-14.04h2.795v4.355h.377V491h-3.172zM959.27 491v-18.72h2.821l6.474 13.26 6.474-13.26h2.821V491h-2.925v-11.999L969.189 491h-1.248l-5.733-11.999V491h-2.938zm26.168.39c-1.014 0-1.872-.191-2.574-.572-.702-.39-1.235-.906-1.599-1.547a4.302 4.302 0 0 1-.533-2.119c0-.676.113-1.283.338-1.82a3.595 3.595 0 0 1 1.04-1.404c.468-.399 1.075-.724 1.82-.975a17.22 17.22 0 0 1 1.976-.494 46.199 46.199 0 0 1 2.47-.403c.893-.13 1.825-.269 2.795-.416l-1.118.637c.009-.971-.208-1.686-.65-2.145-.442-.459-1.187-.689-2.236-.689a4.05 4.05 0 0 0-1.833.442c-.589.295-1.001.802-1.235 1.521l-2.86-.897c.347-1.187 1.006-2.141 1.976-2.86.98-.719 2.297-1.079 3.952-1.079 1.248 0 2.345.204 3.289.611a4.08 4.08 0 0 1 2.119 2.002c.252.494.403 1.001.455 1.521.052.511.078 1.07.078 1.677V491h-2.743v-3.042l.455.494c-.632 1.014-1.373 1.759-2.223 2.236-.84.468-1.893.702-3.159.702zm.624-2.496c.711 0 1.318-.126 1.82-.377.503-.251.902-.559 1.196-.923.304-.364.507-.706.611-1.027a3.89 3.89 0 0 0 .273-1.365c.026-.52.039-.94.039-1.261l.962.286c-.944.147-1.755.277-2.431.39-.676.113-1.256.221-1.742.325-.485.095-.914.204-1.287.325a4.01 4.01 0 0 0-.923.455 2.023 2.023 0 0 0-.585.598 1.56 1.56 0 0 0-.195.793c0 .347.087.654.26.923.174.26.425.468.754.624.338.156.754.234 1.248.234zm10.691-14.066v-2.873h3.133v2.873h-3.133zm0 16.172v-14.04h3.133V491h-3.133zm16.737 0v-6.76c0-.442-.03-.932-.09-1.469a4.935 4.935 0 0 0-.43-1.547 2.979 2.979 0 0 0-.99-1.235c-.43-.321-1.02-.481-1.77-.481-.39 0-.79.065-1.18.195-.39.13-.74.355-1.06.676-.32.312-.57.745-.76 1.3-.19.546-.28 1.248-.28 2.106l-1.86-.793c0-1.196.23-2.279.69-3.25a5.475 5.475 0 0 1 2.05-2.314c.9-.581 2.01-.871 3.33-.871 1.04 0 1.9.173 2.57.52.68.347 1.22.789 1.61 1.326.4.537.7 1.109.89 1.716.19.607.31 1.183.36 1.729.06.537.09.975.09 1.313V491h-3.17zm-9.74 0v-14.04h2.8v4.355h.38V491h-3.18zm24.53 0c-.92.173-1.83.247-2.73.221-.88-.017-1.67-.178-2.37-.481a3.25 3.25 0 0 1-1.6-1.469 4.236 4.236 0 0 1-.51-1.859c-.02-.633-.03-1.348-.03-2.145V473.06h3.12v12.025c0 .563.01 1.057.02 1.482.01.425.1.771.27 1.04.31.52.81.81 1.49.871.69.061 1.47.026 2.34-.104V491zm-9.78-11.583v-2.457h9.78v2.457h-9.78zm18.48 11.973c-1.43 0-2.67-.308-3.75-.923a6.62 6.62 0 0 1-2.52-2.561c-.6-1.092-.9-2.349-.9-3.77 0-1.534.3-2.864.89-3.991.59-1.135 1.4-2.015 2.45-2.639 1.05-.624 2.27-.936 3.64-.936 1.46 0 2.69.342 3.71 1.027 1.02.676 1.78 1.634 2.27 2.873.5 1.239.68 2.7.56 4.381h-3.1v-1.144c-.01-1.525-.28-2.639-.81-3.341-.53-.702-1.36-1.053-2.5-1.053-1.28 0-2.23.399-2.86 1.196-.62.789-.93 1.946-.93 3.471 0 1.421.31 2.522.93 3.302.63.78 1.54 1.17 2.73 1.17.77 0 1.44-.169 1.99-.507.57-.347 1-.845 1.3-1.495l3.1.936c-.54 1.265-1.37 2.249-2.5 2.951a6.821 6.821 0 0 1-3.7 1.053zm-4.84-6.539v-2.366h9.66v2.366h-9.66zm23.42 6.149v-6.76c0-.442-.03-.932-.09-1.469a4.935 4.935 0 0 0-.43-1.547 2.88 2.88 0 0 0-.98-1.235c-.44-.321-1.03-.481-1.77-.481-.4 0-.8.065-1.19.195-.39.13-.74.355-1.06.676-.31.312-.57.745-.76 1.3-.19.546-.28 1.248-.28 2.106l-1.86-.793c0-1.196.23-2.279.69-3.25a5.542 5.542 0 0 1 2.05-2.314c.9-.581 2.01-.871 3.33-.871 1.04 0 1.9.173 2.57.52.68.347 1.22.789 1.62 1.326.39.537.69 1.109.88 1.716.19.607.31 1.183.36 1.729.06.537.1.975.1 1.313V491h-3.18zm-9.73 0v-14.04h2.79v4.355h.38V491h-3.17zm20.22.39c-1.01 0-1.87-.191-2.57-.572-.7-.39-1.24-.906-1.6-1.547a4.354 4.354 0 0 1-.53-2.119c0-.676.11-1.283.34-1.82.22-.546.57-1.014 1.04-1.404.46-.399 1.07-.724 1.82-.975.56-.182 1.22-.347 1.97-.494.76-.147 1.59-.282 2.47-.403.89-.13 1.83-.269 2.8-.416l-1.12.637c.01-.971-.21-1.686-.65-2.145-.44-.459-1.19-.689-2.24-.689-.63 0-1.24.147-1.83.442-.59.295-1 .802-1.24 1.521l-2.86-.897c.35-1.187 1.01-2.141 1.98-2.86.98-.719 2.3-1.079 3.95-1.079 1.25 0 2.35.204 3.29.611a4.1 4.1 0 0 1 2.12 2.002c.25.494.4 1.001.46 1.521.05.511.07 1.07.07 1.677V491h-2.74v-3.042l.46.494c-.64 1.014-1.38 1.759-2.23 2.236-.84.468-1.89.702-3.16.702zm.63-2.496c.71 0 1.31-.126 1.82-.377.5-.251.9-.559 1.19-.923.31-.364.51-.706.61-1.027.17-.399.26-.854.28-1.365.02-.52.04-.94.04-1.261l.96.286c-.95.147-1.76.277-2.43.39-.68.113-1.26.221-1.74.325-.49.095-.92.204-1.29.325-.37.13-.67.282-.92.455-.26.173-.45.373-.59.598-.13.225-.19.49-.19.793 0 .347.08.654.26.923.17.26.42.468.75.624.34.156.75.234 1.25.234zm20.14 2.106v-6.76c0-.442-.03-.932-.09-1.469a5.218 5.218 0 0 0-.43-1.547 2.979 2.979 0 0 0-.99-1.235c-.43-.321-1.02-.481-1.77-.481-.4 0-.79.065-1.18.195-.39.13-.75.355-1.07.676-.31.312-.56.745-.75 1.3-.19.546-.29 1.248-.29 2.106l-1.85-.793c0-1.196.22-2.279.68-3.25a5.565 5.565 0 0 1 2.06-2.314c.9-.581 2.01-.871 3.33-.871 1.04 0 1.89.173 2.57.52.68.347 1.21.789 1.61 1.326.4.537.7 1.109.89 1.716.19.607.31 1.183.36 1.729.06.537.09.975.09 1.313V491h-3.17zm-9.74 0v-14.04h2.8v4.355h.37V491h-3.17zm22.17.39c-1.45 0-2.68-.321-3.7-.962-1.03-.65-1.81-1.534-2.36-2.652-.53-1.118-.81-2.383-.82-3.796.01-1.439.3-2.713.85-3.822a6.36 6.36 0 0 1 2.39-2.626c1.03-.641 2.26-.962 3.68-.962 1.6 0 2.94.403 4.04 1.209 1.11.797 1.84 1.889 2.17 3.276l-3.12.845c-.24-.754-.64-1.339-1.2-1.755a3.14 3.14 0 0 0-1.93-.637c-.81 0-1.48.195-2.01.585-.53.381-.92.91-1.17 1.586-.25.676-.38 1.443-.38 2.301 0 1.335.3 2.414.9 3.237.59.823 1.48 1.235 2.66 1.235.83 0 1.49-.191 1.96-.572.49-.381.85-.932 1.1-1.651l3.19.715c-.43 1.43-1.19 2.531-2.27 3.302-1.08.763-2.41 1.144-3.98 1.144zm14.86 0c-1.42 0-2.67-.308-3.74-.923a6.486 6.486 0 0 1-2.52-2.561c-.6-1.092-.9-2.349-.9-3.77 0-1.534.29-2.864.88-3.991.59-1.135 1.41-2.015 2.46-2.639 1.05-.624 2.26-.936 3.64-.936 1.46 0 2.69.342 3.71 1.027 1.02.676 1.78 1.634 2.27 2.873.49 1.239.68 2.7.56 4.381h-3.11v-1.144c-.01-1.525-.28-2.639-.8-3.341-.53-.702-1.36-1.053-2.5-1.053-1.28 0-2.24.399-2.86 1.196-.62.789-.94 1.946-.94 3.471 0 1.421.32 2.522.94 3.302.62.78 1.53 1.17 2.73 1.17.77 0 1.43-.169 1.99-.507.56-.347 1-.845 1.3-1.495l3.09.936a6.257 6.257 0 0 1-2.49 2.951 6.855 6.855 0 0 1-3.71 1.053zm-4.83-6.539v-2.366h9.66v2.366h-9.66zM171.714 695.39c-1.369 0-2.604-.238-3.705-.715-1.092-.477-1.993-1.157-2.704-2.041-.702-.893-1.148-1.95-1.339-3.172l3.25-.494c.277 1.109.845 1.967 1.703 2.574.867.607 1.863.91 2.99.91.667 0 1.296-.104 1.885-.312.589-.208 1.066-.511 1.43-.91.373-.399.559-.888.559-1.469 0-.26-.043-.498-.13-.715a1.71 1.71 0 0 0-.39-.598 2.428 2.428 0 0 0-.65-.468 4.432 4.432 0 0 0-.91-.377l-4.836-1.43a13.609 13.609 0 0 1-1.352-.481 5.825 5.825 0 0 1-1.365-.845 4.333 4.333 0 0 1-1.053-1.378c-.269-.563-.403-1.257-.403-2.08 0-1.205.303-2.214.91-3.029.615-.823 1.439-1.439 2.47-1.846 1.04-.407 2.193-.607 3.458-.598 1.283.009 2.427.23 3.432.663a6.522 6.522 0 0 1 2.522 1.859c.676.815 1.153 1.798 1.43 2.951l-3.367.585c-.139-.659-.407-1.218-.806-1.677a3.765 3.765 0 0 0-1.443-1.066 4.843 4.843 0 0 0-3.549-.104c-.529.191-.958.468-1.287.832a1.866 1.866 0 0 0-.481 1.274c0 .459.139.836.416 1.131.277.286.62.516 1.027.689.416.165.836.303 1.261.416l3.354.936c.459.121.975.286 1.547.494a7.026 7.026 0 0 1 1.651.871c.529.373.962.862 1.3 1.469.347.607.52 1.378.52 2.314 0 .971-.204 1.824-.611 2.561a5.36 5.36 0 0 1-1.625 1.82 7.449 7.449 0 0 1-2.353 1.092c-.875.243-1.794.364-2.756.364zm16.36 0c-1.404 0-2.631-.316-3.679-.949a6.516 6.516 0 0 1-2.444-2.613c-.572-1.118-.858-2.401-.858-3.848 0-1.473.294-2.765.884-3.874a6.516 6.516 0 0 1 2.457-2.6c1.048-.624 2.262-.936 3.64-.936 1.412 0 2.643.316 3.692.949a6.507 6.507 0 0 1 2.444 2.626c.58 1.109.871 2.388.871 3.835 0 1.456-.295 2.743-.884 3.861a6.53 6.53 0 0 1-2.444 2.613c-1.049.624-2.275.936-3.679.936zm0-2.938c1.248 0 2.175-.416 2.782-1.248.606-.832.91-1.907.91-3.224 0-1.361-.308-2.444-.923-3.25-.616-.815-1.539-1.222-2.769-1.222-.841 0-1.534.191-2.08.572-.538.373-.936.897-1.196 1.573-.26.667-.39 1.443-.39 2.327 0 1.361.307 2.448.923 3.263.624.806 1.538 1.209 2.743 1.209zM199.167 695v-14.261c0-.355.013-.745.039-1.17.026-.433.1-.862.221-1.287a2.83 2.83 0 0 1 .663-1.157c.399-.442.828-.745 1.287-.91a4.448 4.448 0 0 1 1.378-.286c.451-.026.845-.039 1.183-.039h1.755v2.548h-1.625c-.598 0-1.044.152-1.339.455-.286.295-.429.685-.429 1.17V695h-3.133zm-2.262-11.583v-2.457h8.788v2.457h-8.788zM216 695c-.927.173-1.837.247-2.73.221-.884-.017-1.677-.178-2.379-.481a3.299 3.299 0 0 1-1.599-1.469 4.204 4.204 0 0 1-.507-1.859 80.528 80.528 0 0 1-.026-2.145V677.06h3.12v12.025c0 .563.005 1.057.013 1.482.018.425.109.771.273 1.04.312.52.811.81 1.495.871.685.061 1.465.026 2.34-.104V695zm-9.789-11.583v-2.457H216v2.457h-9.789zM222.009 695l-4.29-14.066 3.068.026 2.743 9.009 2.782-9.009h2.639l2.769 9.009 2.756-9.009h3.068l-4.29 14.04h-2.444l-3.185-9.659-3.172 9.659h-2.444zm21.02.39c-1.014 0-1.872-.191-2.574-.572-.702-.39-1.235-.906-1.599-1.547a4.302 4.302 0 0 1-.533-2.119c0-.676.113-1.283.338-1.82a3.595 3.595 0 0 1 1.04-1.404c.468-.399 1.075-.724 1.82-.975a17.22 17.22 0 0 1 1.976-.494 46.199 46.199 0 0 1 2.47-.403c.893-.13 1.825-.269 2.795-.416l-1.118.637c.009-.971-.208-1.686-.65-2.145-.442-.459-1.187-.689-2.236-.689a4.05 4.05 0 0 0-1.833.442c-.589.295-1.001.802-1.235 1.521l-2.86-.897c.347-1.187 1.006-2.141 1.976-2.86.98-.719 2.297-1.079 3.952-1.079 1.248 0 2.345.204 3.289.611a4.08 4.08 0 0 1 2.119 2.002c.252.494.403 1.001.455 1.521.052.511.078 1.07.078 1.677V695h-2.743v-3.042l.455.494c-.632 1.014-1.373 1.759-2.223 2.236-.84.468-1.893.702-3.159.702zm.624-2.496c.711 0 1.318-.126 1.82-.377.503-.251.902-.559 1.196-.923.304-.364.507-.706.611-1.027a3.89 3.89 0 0 0 .273-1.365c.026-.52.039-.94.039-1.261l.962.286c-.944.147-1.755.277-2.431.39-.676.113-1.256.221-1.742.325-.485.095-.914.204-1.287.325a4.01 4.01 0 0 0-.923.455 2.023 2.023 0 0 0-.585.598 1.56 1.56 0 0 0-.195.793c0 .347.087.654.26.923.174.26.425.468.754.624.338.156.754.234 1.248.234zM254.084 695v-14.04h2.769v3.419l-.338-.442c.173-.468.403-.893.689-1.274a3.81 3.81 0 0 1 1.053-.962 4.342 4.342 0 0 1 1.144-.546 5.125 5.125 0 0 1 1.3-.247 5.288 5.288 0 0 1 1.287.052v2.925c-.416-.121-.897-.16-1.443-.117a3.297 3.297 0 0 0-1.456.455 3.262 3.262 0 0 0-1.066.897 3.78 3.78 0 0 0-.598 1.248c-.13.459-.195.958-.195 1.495V695h-3.146zm16.514.39c-1.422 0-2.67-.308-3.744-.923a6.564 6.564 0 0 1-2.522-2.561c-.598-1.092-.897-2.349-.897-3.77 0-1.534.294-2.864.884-3.991.589-1.135 1.408-2.015 2.457-2.639 1.048-.624 2.262-.936 3.64-.936 1.456 0 2.691.342 3.705 1.027 1.022.676 1.781 1.634 2.275 2.873.494 1.239.68 2.7.559 4.381h-3.107v-1.144c-.009-1.525-.278-2.639-.806-3.341-.529-.702-1.361-1.053-2.496-1.053-1.283 0-2.236.399-2.86 1.196-.624.789-.936 1.946-.936 3.471 0 1.421.312 2.522.936 3.302.624.78 1.534 1.17 2.73 1.17.771 0 1.434-.169 1.989-.507.563-.347.996-.845 1.3-1.495l3.094.936c-.538 1.265-1.37 2.249-2.496 2.951a6.828 6.828 0 0 1-3.705 1.053zm-4.836-6.539v-2.366h9.659v2.366h-9.659zM138.239 726v-18.72h5.967c.156 0 .464.004.923.013.468.009.919.039 1.352.091 1.482.191 2.734.719 3.757 1.586 1.031.858 1.811 1.954 2.34 3.289.529 1.335.793 2.795.793 4.381 0 1.586-.264 3.046-.793 4.381-.529 1.335-1.309 2.435-2.34 3.302-1.023.858-2.275 1.382-3.757 1.573-.425.052-.871.082-1.339.091-.468.009-.78.013-.936.013h-5.967zm3.185-2.951h2.782c.26 0 .589-.009.988-.026a7.255 7.255 0 0 0 1.079-.117c.884-.165 1.603-.559 2.158-1.183.555-.624.962-1.382 1.222-2.275a9.683 9.683 0 0 0 .403-2.808 9.866 9.866 0 0 0-.403-2.86c-.269-.893-.685-1.642-1.248-2.249-.555-.607-1.265-.992-2.132-1.157a5.61 5.61 0 0 0-1.079-.117 24.142 24.142 0 0 0-.988-.026h-2.782v12.818zm21.403 3.341c-1.421 0-2.669-.308-3.744-.923a6.57 6.57 0 0 1-2.522-2.561c-.598-1.092-.897-2.349-.897-3.77 0-1.534.295-2.864.884-3.991.589-1.135 1.408-2.015 2.457-2.639 1.049-.624 2.262-.936 3.64-.936 1.456 0 2.691.342 3.705 1.027 1.023.676 1.781 1.634 2.275 2.873.494 1.239.68 2.7.559 4.381h-3.107v-1.144c-.009-1.525-.277-2.639-.806-3.341-.529-.702-1.361-1.053-2.496-1.053-1.283 0-2.236.399-2.86 1.196-.624.789-.936 1.946-.936 3.471 0 1.421.312 2.522.936 3.302.624.78 1.534 1.17 2.73 1.17.771 0 1.434-.169 1.989-.507.563-.347.997-.845 1.3-1.495l3.094.936c-.537 1.265-1.369 2.249-2.496 2.951a6.828 6.828 0 0 1-3.705 1.053zm-4.836-6.539v-2.366h9.659v2.366h-9.659zM175.373 726l-5.096-14.04h3.133l3.536 10.179 3.523-10.179h3.146L178.519 726h-3.146zm16.45.39c-1.421 0-2.669-.308-3.744-.923a6.57 6.57 0 0 1-2.522-2.561c-.598-1.092-.897-2.349-.897-3.77 0-1.534.295-2.864.884-3.991.589-1.135 1.408-2.015 2.457-2.639 1.049-.624 2.262-.936 3.64-.936 1.456 0 2.691.342 3.705 1.027 1.023.676 1.781 1.634 2.275 2.873.494 1.239.68 2.7.559 4.381h-3.107v-1.144c-.009-1.525-.277-2.639-.806-3.341-.529-.702-1.361-1.053-2.496-1.053-1.283 0-2.236.399-2.86 1.196-.624.789-.936 1.946-.936 3.471 0 1.421.312 2.522.936 3.302.624.78 1.534 1.17 2.73 1.17.771 0 1.434-.169 1.989-.507.563-.347.997-.845 1.3-1.495l3.094.936c-.537 1.265-1.369 2.249-2.496 2.951a6.828 6.828 0 0 1-3.705 1.053zm-4.836-6.539v-2.366h9.659v2.366h-9.659zM201.341 726v-19.11h3.133V726h-3.133zm13.228.39c-1.404 0-2.63-.316-3.679-.949a6.523 6.523 0 0 1-2.444-2.613c-.572-1.118-.858-2.401-.858-3.848 0-1.473.295-2.765.884-3.874a6.516 6.516 0 0 1 2.457-2.6c1.049-.624 2.262-.936 3.64-.936 1.413 0 2.643.316 3.692.949a6.5 6.5 0 0 1 2.444 2.626c.581 1.109.871 2.388.871 3.835 0 1.456-.295 2.743-.884 3.861a6.523 6.523 0 0 1-2.444 2.613c-1.049.624-2.275.936-3.679.936zm0-2.938c1.248 0 2.175-.416 2.782-1.248.607-.832.91-1.907.91-3.224 0-1.361-.308-2.444-.923-3.25-.615-.815-1.538-1.222-2.769-1.222-.841 0-1.534.191-2.08.572-.537.373-.936.897-1.196 1.573-.26.667-.39 1.443-.39 2.327 0 1.361.308 2.448.923 3.263.624.806 1.538 1.209 2.743 1.209zm16.618 2.938c-1.369 0-2.518-.325-3.445-.975-.927-.65-1.625-1.534-2.093-2.652-.468-1.127-.702-2.388-.702-3.783 0-1.413.234-2.678.702-3.796.468-1.118 1.153-1.998 2.054-2.639.91-.65 2.032-.975 3.367-.975 1.326 0 2.474.325 3.445.975.979.641 1.738 1.521 2.275 2.639.537 1.109.806 2.375.806 3.796 0 1.404-.264 2.665-.793 3.783-.529 1.118-1.274 2.002-2.236 2.652-.962.65-2.089.975-3.38.975zm-6.773 5.85v-20.28h2.769v9.854h.39v10.426h-3.159zm6.292-8.658c.815 0 1.486-.204 2.015-.611.529-.407.919-.958 1.17-1.651.26-.702.39-1.482.39-2.34 0-.849-.13-1.621-.39-2.314-.26-.702-.663-1.257-1.209-1.664-.546-.416-1.239-.624-2.08-.624-.797 0-1.447.195-1.95.585-.503.381-.875.919-1.118 1.612-.234.685-.351 1.486-.351 2.405 0 .91.117 1.712.351 2.405.243.693.62 1.235 1.131 1.625.52.381 1.2.572 2.041.572zM257.323 726v-8.528c0-.962-.239-1.712-.715-2.249-.477-.546-1.123-.819-1.937-.819-.503 0-.954.117-1.352.351-.399.225-.715.563-.949 1.014-.234.442-.351.971-.351 1.586l-1.391-.819c-.009-.971.208-1.824.65-2.561a4.744 4.744 0 0 1 1.82-1.742c.762-.416 1.612-.624 2.548-.624 1.551 0 2.738.468 3.562 1.404.832.927 1.248 2.149 1.248 3.666V726h-3.133zm-16.887 0v-14.04h2.769v4.355h.39V726h-3.159zm8.463 0v-8.489c0-.979-.239-1.742-.715-2.288-.477-.546-1.127-.819-1.95-.819-.798 0-1.439.273-1.924.819-.477.546-.715 1.257-.715 2.132l-1.404-.936c0-.91.225-1.729.676-2.457a4.804 4.804 0 0 1 1.82-1.716c.771-.425 1.633-.637 2.587-.637 1.048 0 1.924.225 2.626.676a4.058 4.058 0 0 1 1.586 1.82c.355.763.533 1.625.533 2.587V726h-3.12zm21.102.39c-1.421 0-2.669-.308-3.744-.923a6.57 6.57 0 0 1-2.522-2.561c-.598-1.092-.897-2.349-.897-3.77 0-1.534.295-2.864.884-3.991.589-1.135 1.408-2.015 2.457-2.639 1.049-.624 2.262-.936 3.64-.936 1.456 0 2.691.342 3.705 1.027 1.023.676 1.781 1.634 2.275 2.873.494 1.239.68 2.7.559 4.381h-3.107v-1.144c-.009-1.525-.277-2.639-.806-3.341-.529-.702-1.361-1.053-2.496-1.053-1.283 0-2.236.399-2.86 1.196-.624.789-.936 1.946-.936 3.471 0 1.421.312 2.522.936 3.302.624.78 1.534 1.17 2.73 1.17.771 0 1.434-.169 1.989-.507.563-.347.997-.845 1.3-1.495l3.094.936c-.537 1.265-1.369 2.249-2.496 2.951a6.828 6.828 0 0 1-3.705 1.053zm-4.836-6.539v-2.366h9.659v2.366h-9.659zM288.589 726v-6.76c0-.442-.031-.932-.091-1.469a5.1 5.1 0 0 0-.429-1.547 2.935 2.935 0 0 0-.988-1.235c-.434-.321-1.023-.481-1.768-.481-.399 0-.793.065-1.183.195s-.746.355-1.066.676c-.312.312-.564.745-.754 1.3-.191.546-.286 1.248-.286 2.106l-1.859-.793c0-1.196.229-2.279.689-3.25a5.524 5.524 0 0 1 2.054-2.314c.901-.581 2.01-.871 3.328-.871 1.04 0 1.898.173 2.574.52.676.347 1.213.789 1.612 1.326.398.537.693 1.109.884 1.716.19.607.312 1.183.364 1.729.06.537.091.975.091 1.313V726h-3.172zm-9.737 0v-14.04h2.795v4.355h.377V726h-3.172zm24.53 0c-.927.173-1.837.247-2.73.221-.884-.017-1.677-.178-2.379-.481a3.299 3.299 0 0 1-1.599-1.469 4.178 4.178 0 0 1-.507-1.859 80.528 80.528 0 0 1-.026-2.145V708.06h3.12v12.025c0 .563.004 1.057.013 1.482.017.425.108.771.273 1.04.312.52.81.81 1.495.871.685.061 1.465.026 2.34-.104V726zm-9.789-11.583v-2.457h9.789v2.457h-9.789zM876.706 711v-15.782h-6.058v-2.938h15.249v2.938h-6.058V711h-3.133zm15.57.39c-1.421 0-2.669-.308-3.744-.923a6.577 6.577 0 0 1-2.522-2.561c-.598-1.092-.897-2.349-.897-3.77 0-1.534.295-2.864.884-3.991.59-1.135 1.409-2.015 2.457-2.639 1.049-.624 2.262-.936 3.64-.936 1.456 0 2.691.342 3.705 1.027 1.023.676 1.781 1.634 2.275 2.873.494 1.239.681 2.7.559 4.381h-3.107v-1.144c-.008-1.525-.277-2.639-.806-3.341-.528-.702-1.36-1.053-2.496-1.053-1.282 0-2.236.399-2.86 1.196-.624.789-.936 1.946-.936 3.471 0 1.421.312 2.522.936 3.302.624.78 1.534 1.17 2.73 1.17.772 0 1.435-.169 1.989-.507.564-.347.997-.845 1.3-1.495l3.094.936c-.537 1.265-1.369 2.249-2.496 2.951a6.828 6.828 0 0 1-3.705 1.053zm-4.836-6.539v-2.366h9.659v2.366h-9.659zm19.515 6.539c-1.733 0-3.142-.39-4.225-1.17-1.083-.78-1.742-1.876-1.976-3.289l3.198-.494a2.706 2.706 0 0 0 1.092 1.638c.563.399 1.274.598 2.132.598.754 0 1.335-.147 1.742-.442.416-.303.624-.715.624-1.235 0-.321-.078-.576-.234-.767-.147-.199-.477-.39-.988-.572-.511-.182-1.296-.412-2.353-.689-1.179-.312-2.115-.646-2.808-1.001-.693-.364-1.192-.793-1.495-1.287-.303-.494-.455-1.092-.455-1.794 0-.875.23-1.638.689-2.288.459-.65 1.101-1.148 1.924-1.495.823-.355 1.794-.533 2.912-.533 1.092 0 2.058.169 2.899.507.849.338 1.534.819 2.054 1.443.52.624.841 1.356.962 2.197l-3.198.572c-.078-.598-.351-1.07-.819-1.417-.459-.347-1.075-.542-1.846-.585-.737-.043-1.33.069-1.781.338-.451.26-.676.628-.676 1.105 0 .269.091.498.273.689.182.191.546.381 1.092.572.555.191 1.378.425 2.47.702 1.118.286 2.011.615 2.678.988.676.364 1.161.802 1.456 1.313.303.511.455 1.131.455 1.859 0 1.413-.516 2.522-1.547 3.328-1.023.806-2.44 1.209-4.251 1.209zm16.874-.39c-.927.173-1.837.247-2.73.221-.884-.017-1.677-.178-2.379-.481a3.299 3.299 0 0 1-1.599-1.469 4.204 4.204 0 0 1-.507-1.859 80.528 80.528 0 0 1-.026-2.145V693.06h3.12v12.025c0 .563.005 1.057.013 1.482.018.425.109.771.273 1.04.312.52.811.81 1.495.871.685.061 1.465.026 2.34-.104V711zm-9.789-11.583v-2.457h9.789v2.457h-9.789zm13.068-4.589v-2.873h3.133v2.873h-3.133zm0 16.172v-14.04h3.133V711h-3.133zm16.738 0v-6.76c0-.442-.03-.932-.091-1.469a5.043 5.043 0 0 0-.429-1.547 2.928 2.928 0 0 0-.988-1.235c-.433-.321-1.022-.481-1.768-.481-.398 0-.793.065-1.183.195s-.745.355-1.066.676c-.312.312-.563.745-.754 1.3-.19.546-.286 1.248-.286 2.106l-1.859-.793c0-1.196.23-2.279.689-3.25a5.531 5.531 0 0 1 2.054-2.314c.902-.581 2.011-.871 3.328-.871 1.04 0 1.898.173 2.574.52.676.347 1.214.789 1.612 1.326.399.537.694 1.109.884 1.716a8.44 8.44 0 0 1 .364 1.729c.061.537.091.975.091 1.313V711h-3.172zm-9.737 0v-14.04h2.795v4.355h.377V711h-3.172zm22.204 6.63c-.78 0-1.53-.121-2.249-.364a6.306 6.306 0 0 1-1.924-1.053 5.563 5.563 0 0 1-1.404-1.638l2.886-1.43c.268.511.645.888 1.131 1.131a3.425 3.425 0 0 0 1.573.377c.65 0 1.23-.117 1.742-.351a2.564 2.564 0 0 0 1.183-1.014c.286-.442.42-.997.403-1.664v-3.991h.39V696.96h2.743v14.716c0 .355-.018.693-.052 1.014a7.01 7.01 0 0 1-.143.962c-.208.91-.607 1.655-1.196 2.236-.59.589-1.322 1.027-2.197 1.313-.867.286-1.829.429-2.886.429zm-.273-6.24c-1.292 0-2.418-.325-3.38-.975-.962-.65-1.708-1.534-2.236-2.652-.529-1.118-.793-2.379-.793-3.783 0-1.421.264-2.687.793-3.796.537-1.118 1.295-1.998 2.275-2.639.979-.65 2.132-.975 3.458-.975 1.334 0 2.452.325 3.354.975.91.641 1.599 1.521 2.067 2.639.468 1.118.702 2.383.702 3.796 0 1.395-.234 2.656-.702 3.783-.468 1.118-1.166 2.002-2.093 2.652-.928.65-2.076.975-3.445.975zm.481-2.808c.84 0 1.516-.191 2.028-.572.52-.39.897-.932 1.131-1.625.242-.693.364-1.495.364-2.405 0-.919-.122-1.72-.364-2.405-.234-.693-.603-1.231-1.105-1.612-.503-.39-1.153-.585-1.95-.585-.841 0-1.534.208-2.08.624-.546.407-.949.962-1.209 1.664-.26.693-.39 1.465-.39 2.314 0 .858.125 1.638.377 2.34.26.693.654 1.244 1.183 1.651.528.407 1.2.611 2.015.611zM694.766 850.39l-5.343-5.317 1.963-1.963 5.317 5.317-1.937 1.963zm-6.734 0c-1.872 0-3.475-.407-4.81-1.222-1.335-.823-2.362-1.967-3.081-3.432-.711-1.465-1.066-3.163-1.066-5.096 0-1.933.355-3.631 1.066-5.096.719-1.465 1.746-2.604 3.081-3.419 1.335-.823 2.938-1.235 4.81-1.235 1.872 0 3.475.412 4.81 1.235 1.343.815 2.37 1.954 3.081 3.419.719 1.465 1.079 3.163 1.079 5.096 0 1.933-.36 3.631-1.079 5.096-.711 1.465-1.738 2.609-3.081 3.432-1.335.815-2.938 1.222-4.81 1.222zm0-2.951c1.257.009 2.301-.269 3.133-.832.841-.563 1.469-1.356 1.885-2.379.425-1.023.637-2.219.637-3.588 0-1.369-.212-2.557-.637-3.562-.416-1.014-1.044-1.803-1.885-2.366-.832-.563-1.876-.854-3.133-.871-1.257-.009-2.301.269-3.133.832-.832.563-1.46 1.356-1.885 2.379-.416 1.023-.624 2.219-.624 3.588 0 1.369.208 2.561.624 3.575.416 1.005 1.04 1.79 1.872 2.353.841.563 1.889.854 3.146.871zm9.75 2.561 5.902-18.72h4.589l5.902 18.72h-3.224l-5.356-16.796h.702L701.006 850h-3.224zm3.289-4.056v-2.925h9.828v2.925h-9.828zM386.394 835v-18.72h7.423c1.266 0 2.301.256 3.107.767.815.503 1.417 1.148 1.807 1.937a5.35 5.35 0 0 1 .598 2.444c0 1.031-.247 1.907-.741 2.626a3.555 3.555 0 0 1-1.989 1.456v-.65c1.179.269 2.072.828 2.678 1.677.616.849.923 1.816.923 2.899 0 1.109-.212 2.08-.637 2.912a4.57 4.57 0 0 1-1.898 1.95c-.832.468-1.863.702-3.094.702h-8.177zm3.172-2.951h4.615c.546 0 1.036-.108 1.469-.325a2.508 2.508 0 0 0 1.014-.936c.252-.407.377-.888.377-1.443 0-.503-.108-.953-.325-1.352a2.374 2.374 0 0 0-.949-.949c-.416-.243-.914-.364-1.495-.364h-4.706v5.369zm0-8.294h4.212c.451 0 .854-.087 1.209-.26a2 2 0 0 0 .845-.767c.208-.338.312-.754.312-1.248 0-.65-.208-1.192-.624-1.625-.416-.433-.996-.65-1.742-.65h-4.212v4.55zm18.496 11.648c-1.04 0-1.898-.173-2.574-.52-.676-.347-1.214-.789-1.612-1.326a5.741 5.741 0 0 1-.884-1.716 9.117 9.117 0 0 1-.377-1.716 14.614 14.614 0 0 1-.078-1.326v-7.839h3.172v6.76c0 .433.03.923.091 1.469.06.537.199 1.057.416 1.56.225.494.554.901.988 1.222.442.321 1.035.481 1.781.481.398 0 .793-.065 1.183-.195s.741-.351 1.053-.663c.32-.321.576-.758.767-1.313.19-.555.286-1.257.286-2.106l1.859.793c0 1.196-.234 2.279-.702 3.25a5.535 5.535 0 0 1-2.041 2.327c-.902.572-2.011.858-3.328.858zm4.589-.403v-4.355h-.377v-9.685h3.146V835h-2.769zm11.842.39c-1.733 0-3.142-.39-4.225-1.17-1.083-.78-1.742-1.876-1.976-3.289l3.198-.494a2.706 2.706 0 0 0 1.092 1.638c.563.399 1.274.598 2.132.598.754 0 1.335-.147 1.742-.442.416-.303.624-.715.624-1.235 0-.321-.078-.576-.234-.767-.147-.199-.477-.39-.988-.572-.511-.182-1.296-.412-2.353-.689-1.179-.312-2.115-.646-2.808-1.001-.693-.364-1.192-.793-1.495-1.287-.303-.494-.455-1.092-.455-1.794 0-.875.23-1.638.689-2.288.459-.65 1.101-1.148 1.924-1.495.823-.355 1.794-.533 2.912-.533 1.092 0 2.058.169 2.899.507.849.338 1.534.819 2.054 1.443.52.624.841 1.356.962 2.197l-3.198.572c-.078-.598-.351-1.07-.819-1.417-.459-.347-1.075-.542-1.846-.585-.737-.043-1.33.069-1.781.338-.451.26-.676.628-.676 1.105 0 .269.091.498.273.689.182.191.546.381 1.092.572.555.191 1.378.425 2.47.702 1.118.286 2.011.615 2.678.988.676.364 1.161.802 1.456 1.313.303.511.455 1.131.455 1.859 0 1.413-.516 2.522-1.547 3.328-1.023.806-2.44 1.209-4.251 1.209zm8.905-16.562v-2.873h3.133v2.873h-3.133zm0 16.172v-14.04h3.133V835h-3.133zm16.738 0v-6.76c0-.442-.03-.932-.091-1.469a5.043 5.043 0 0 0-.429-1.547 2.928 2.928 0 0 0-.988-1.235c-.433-.321-1.022-.481-1.768-.481-.398 0-.793.065-1.183.195s-.745.355-1.066.676c-.312.312-.563.745-.754 1.3-.19.546-.286 1.248-.286 2.106l-1.859-.793c0-1.196.23-2.279.689-3.25a5.531 5.531 0 0 1 2.054-2.314c.902-.581 2.011-.871 3.328-.871 1.04 0 1.898.173 2.574.52.676.347 1.214.789 1.612 1.326.399.537.694 1.109.884 1.716a8.44 8.44 0 0 1 .364 1.729c.061.537.091.975.091 1.313V835h-3.172zm-9.737 0v-14.04h2.795v4.355h.377V835h-3.172zm22.456.39c-1.421 0-2.669-.308-3.744-.923a6.577 6.577 0 0 1-2.522-2.561c-.598-1.092-.897-2.349-.897-3.77 0-1.534.295-2.864.884-3.991.59-1.135 1.409-2.015 2.457-2.639 1.049-.624 2.262-.936 3.64-.936 1.456 0 2.691.342 3.705 1.027 1.023.676 1.781 1.634 2.275 2.873.494 1.239.681 2.7.559 4.381h-3.107v-1.144c-.008-1.525-.277-2.639-.806-3.341-.528-.702-1.36-1.053-2.496-1.053-1.282 0-2.236.399-2.86 1.196-.624.789-.936 1.946-.936 3.471 0 1.421.312 2.522.936 3.302.624.78 1.534 1.17 2.73 1.17.772 0 1.435-.169 1.989-.507.564-.347.997-.845 1.3-1.495l3.094.936c-.537 1.265-1.369 2.249-2.496 2.951a6.828 6.828 0 0 1-3.705 1.053zm-4.836-6.539v-2.366h9.659v2.366h-9.659zm19.515 6.539c-1.733 0-3.142-.39-4.225-1.17-1.083-.78-1.742-1.876-1.976-3.289l3.198-.494a2.706 2.706 0 0 0 1.092 1.638c.563.399 1.274.598 2.132.598.754 0 1.335-.147 1.742-.442.416-.303.624-.715.624-1.235 0-.321-.078-.576-.234-.767-.147-.199-.477-.39-.988-.572-.511-.182-1.296-.412-2.353-.689-1.179-.312-2.115-.646-2.808-1.001-.693-.364-1.192-.793-1.495-1.287-.303-.494-.455-1.092-.455-1.794 0-.875.23-1.638.689-2.288.459-.65 1.101-1.148 1.924-1.495.823-.355 1.794-.533 2.912-.533 1.092 0 2.058.169 2.899.507.849.338 1.534.819 2.054 1.443.52.624.841 1.356.962 2.197l-3.198.572c-.078-.598-.351-1.07-.819-1.417-.459-.347-1.075-.542-1.846-.585-.737-.043-1.33.069-1.781.338-.451.26-.676.628-.676 1.105 0 .269.091.498.273.689.182.191.546.381 1.092.572.555.191 1.378.425 2.47.702 1.118.286 2.011.615 2.678.988.676.364 1.161.802 1.456 1.313.303.511.455 1.131.455 1.859 0 1.413-.516 2.522-1.547 3.328-1.023.806-2.44 1.209-4.251 1.209zm14.066 0c-1.733 0-3.141-.39-4.225-1.17-1.083-.78-1.742-1.876-1.976-3.289l3.198-.494a2.706 2.706 0 0 0 1.092 1.638c.564.399 1.274.598 2.132.598.754 0 1.335-.147 1.742-.442.416-.303.624-.715.624-1.235 0-.321-.078-.576-.234-.767-.147-.199-.476-.39-.988-.572-.511-.182-1.295-.412-2.353-.689-1.178-.312-2.114-.646-2.808-1.001-.693-.364-1.191-.793-1.495-1.287-.303-.494-.455-1.092-.455-1.794 0-.875.23-1.638.689-2.288.46-.65 1.101-1.148 1.924-1.495.824-.355 1.794-.533 2.912-.533 1.092 0 2.059.169 2.899.507.85.338 1.534.819 2.054 1.443.52.624.841 1.356.962 2.197l-3.198.572c-.078-.598-.351-1.07-.819-1.417-.459-.347-1.074-.542-1.846-.585-.736-.043-1.33.069-1.781.338-.45.26-.676.628-.676 1.105 0 .269.091.498.273.689.182.191.546.381 1.092.572.555.191 1.378.425 2.47.702 1.118.286 2.011.615 2.678.988.676.364 1.162.802 1.456 1.313.304.511.455 1.131.455 1.859 0 1.413-.515 2.522-1.547 3.328-1.022.806-2.439 1.209-4.251 1.209zM359.239 866v-18.72h5.967c.156 0 .464.004.923.013.468.009.919.039 1.352.091 1.482.191 2.734.719 3.757 1.586 1.031.858 1.811 1.954 2.34 3.289.529 1.335.793 2.795.793 4.381 0 1.586-.264 3.046-.793 4.381-.529 1.335-1.309 2.435-2.34 3.302-1.023.858-2.275 1.382-3.757 1.573-.425.052-.871.082-1.339.091-.468.009-.78.013-.936.013h-5.967zm3.185-2.951h2.782c.26 0 .589-.009.988-.026a7.255 7.255 0 0 0 1.079-.117c.884-.165 1.603-.559 2.158-1.183.555-.624.962-1.382 1.222-2.275a9.683 9.683 0 0 0 .403-2.808 9.866 9.866 0 0 0-.403-2.86c-.269-.893-.685-1.642-1.248-2.249-.555-.607-1.265-.992-2.132-1.157a5.61 5.61 0 0 0-1.079-.117 24.142 24.142 0 0 0-.988-.026h-2.782v12.818zm21.403 3.341c-1.421 0-2.669-.308-3.744-.923a6.57 6.57 0 0 1-2.522-2.561c-.598-1.092-.897-2.349-.897-3.77 0-1.534.295-2.864.884-3.991.589-1.135 1.408-2.015 2.457-2.639 1.049-.624 2.262-.936 3.64-.936 1.456 0 2.691.342 3.705 1.027 1.023.676 1.781 1.634 2.275 2.873.494 1.239.68 2.7.559 4.381h-3.107v-1.144c-.009-1.525-.277-2.639-.806-3.341-.529-.702-1.361-1.053-2.496-1.053-1.283 0-2.236.399-2.86 1.196-.624.789-.936 1.946-.936 3.471 0 1.421.312 2.522.936 3.302.624.78 1.534 1.17 2.73 1.17.771 0 1.434-.169 1.989-.507.563-.347.997-.845 1.3-1.495l3.094.936c-.537 1.265-1.369 2.249-2.496 2.951a6.828 6.828 0 0 1-3.705 1.053zm-4.836-6.539v-2.366h9.659v2.366h-9.659zM396.373 866l-5.096-14.04h3.133l3.536 10.179 3.523-10.179h3.146L399.519 866h-3.146zm16.45.39c-1.421 0-2.669-.308-3.744-.923a6.57 6.57 0 0 1-2.522-2.561c-.598-1.092-.897-2.349-.897-3.77 0-1.534.295-2.864.884-3.991.589-1.135 1.408-2.015 2.457-2.639 1.049-.624 2.262-.936 3.64-.936 1.456 0 2.691.342 3.705 1.027 1.023.676 1.781 1.634 2.275 2.873.494 1.239.68 2.7.559 4.381h-3.107v-1.144c-.009-1.525-.277-2.639-.806-3.341-.529-.702-1.361-1.053-2.496-1.053-1.283 0-2.236.399-2.86 1.196-.624.789-.936 1.946-.936 3.471 0 1.421.312 2.522.936 3.302.624.78 1.534 1.17 2.73 1.17.771 0 1.434-.169 1.989-.507.563-.347.997-.845 1.3-1.495l3.094.936c-.537 1.265-1.369 2.249-2.496 2.951a6.828 6.828 0 0 1-3.705 1.053zm-4.836-6.539v-2.366h9.659v2.366h-9.659zM422.341 866v-19.11h3.133V866h-3.133zm13.228.39c-1.404 0-2.63-.316-3.679-.949a6.523 6.523 0 0 1-2.444-2.613c-.572-1.118-.858-2.401-.858-3.848 0-1.473.295-2.765.884-3.874a6.516 6.516 0 0 1 2.457-2.6c1.049-.624 2.262-.936 3.64-.936 1.413 0 2.643.316 3.692.949a6.5 6.5 0 0 1 2.444 2.626c.581 1.109.871 2.388.871 3.835 0 1.456-.295 2.743-.884 3.861a6.523 6.523 0 0 1-2.444 2.613c-1.049.624-2.275.936-3.679.936zm0-2.938c1.248 0 2.175-.416 2.782-1.248.607-.832.91-1.907.91-3.224 0-1.361-.308-2.444-.923-3.25-.615-.815-1.538-1.222-2.769-1.222-.841 0-1.534.191-2.08.572-.537.373-.936.897-1.196 1.573-.26.667-.39 1.443-.39 2.327 0 1.361.308 2.448.923 3.263.624.806 1.538 1.209 2.743 1.209zm16.618 2.938c-1.369 0-2.518-.325-3.445-.975-.927-.65-1.625-1.534-2.093-2.652-.468-1.127-.702-2.388-.702-3.783 0-1.413.234-2.678.702-3.796.468-1.118 1.153-1.998 2.054-2.639.91-.65 2.032-.975 3.367-.975 1.326 0 2.474.325 3.445.975.979.641 1.738 1.521 2.275 2.639.537 1.109.806 2.375.806 3.796 0 1.404-.264 2.665-.793 3.783-.529 1.118-1.274 2.002-2.236 2.652-.962.65-2.089.975-3.38.975zm-6.773 5.85v-20.28h2.769v9.854h.39v10.426h-3.159zm6.292-8.658c.815 0 1.486-.204 2.015-.611.529-.407.919-.958 1.17-1.651.26-.702.39-1.482.39-2.34 0-.849-.13-1.621-.39-2.314-.26-.702-.663-1.257-1.209-1.664-.546-.416-1.239-.624-2.08-.624-.797 0-1.447.195-1.95.585-.503.381-.875.919-1.118 1.612-.234.685-.351 1.486-.351 2.405 0 .91.117 1.712.351 2.405.243.693.62 1.235 1.131 1.625.52.381 1.2.572 2.041.572zM478.323 866v-8.528c0-.962-.239-1.712-.715-2.249-.477-.546-1.123-.819-1.937-.819-.503 0-.954.117-1.352.351-.399.225-.715.563-.949 1.014-.234.442-.351.971-.351 1.586l-1.391-.819c-.009-.971.208-1.824.65-2.561a4.744 4.744 0 0 1 1.82-1.742c.762-.416 1.612-.624 2.548-.624 1.551 0 2.738.468 3.562 1.404.832.927 1.248 2.149 1.248 3.666V866h-3.133zm-16.887 0v-14.04h2.769v4.355h.39V866h-3.159zm8.463 0v-8.489c0-.979-.239-1.742-.715-2.288-.477-.546-1.127-.819-1.95-.819-.798 0-1.439.273-1.924.819-.477.546-.715 1.257-.715 2.132l-1.404-.936c0-.91.225-1.729.676-2.457a4.804 4.804 0 0 1 1.82-1.716c.771-.425 1.633-.637 2.587-.637 1.048 0 1.924.225 2.626.676a4.058 4.058 0 0 1 1.586 1.82c.355.763.533 1.625.533 2.587V866h-3.12zm21.102.39c-1.421 0-2.669-.308-3.744-.923a6.57 6.57 0 0 1-2.522-2.561c-.598-1.092-.897-2.349-.897-3.77 0-1.534.295-2.864.884-3.991.589-1.135 1.408-2.015 2.457-2.639 1.049-.624 2.262-.936 3.64-.936 1.456 0 2.691.342 3.705 1.027 1.023.676 1.781 1.634 2.275 2.873.494 1.239.68 2.7.559 4.381h-3.107v-1.144c-.009-1.525-.277-2.639-.806-3.341-.529-.702-1.361-1.053-2.496-1.053-1.283 0-2.236.399-2.86 1.196-.624.789-.936 1.946-.936 3.471 0 1.421.312 2.522.936 3.302.624.78 1.534 1.17 2.73 1.17.771 0 1.434-.169 1.989-.507.563-.347.997-.845 1.3-1.495l3.094.936c-.537 1.265-1.369 2.249-2.496 2.951a6.828 6.828 0 0 1-3.705 1.053zm-4.836-6.539v-2.366h9.659v2.366h-9.659zM509.589 866v-6.76c0-.442-.031-.932-.091-1.469a5.1 5.1 0 0 0-.429-1.547 2.935 2.935 0 0 0-.988-1.235c-.434-.321-1.023-.481-1.768-.481-.399 0-.793.065-1.183.195s-.746.355-1.066.676c-.312.312-.564.745-.754 1.3-.191.546-.286 1.248-.286 2.106l-1.859-.793c0-1.196.229-2.279.689-3.25a5.524 5.524 0 0 1 2.054-2.314c.901-.581 2.01-.871 3.328-.871 1.04 0 1.898.173 2.574.52.676.347 1.213.789 1.612 1.326.398.537.693 1.109.884 1.716.19.607.312 1.183.364 1.729.06.537.091.975.091 1.313V866h-3.172zm-9.737 0v-14.04h2.795v4.355h.377V866h-3.172zm24.53 0c-.927.173-1.837.247-2.73.221-.884-.017-1.677-.178-2.379-.481a3.299 3.299 0 0 1-1.599-1.469 4.178 4.178 0 0 1-.507-1.859 80.528 80.528 0 0 1-.026-2.145V848.06h3.12v12.025c0 .563.004 1.057.013 1.482.017.425.108.771.273 1.04.312.52.81.81 1.495.871.685.061 1.465.026 2.34-.104V866zm-9.789-11.583v-2.457h9.789v2.457h-9.789z" fill="#00E66F"/>
    <path stroke="#00E66F" stroke-width="3.744" stroke-linecap="round" d="M383.128 483.276H236.872M426.296 599 343 641.584M515 649l-26 68.174M712.704 599 796 641.584M624 649l26 68.174M901.128 483.276H754.872"/>
</svg>
